<svg version="1.1" id="Layer_1" xmlns="http://www.w3.org/2000/svg" xmlns:xlink="http://www.w3.org/1999/xlink" x="0px" y="0px" viewBox="0 0 305.9 74.6" style="enable-background:new 0 0 305.9 74.6;" xml:space="preserve">
 <style type="text/css">
  .st0{fill:#5D452B;}
	.st1{fill:#59611D;}
	.st2{fill:#FFFFFF;}
	.st3{fill:#B4BD00;}
	.st4{fill:#C2D500;}
	.st5{fill:#DAE343;}
 </style>
 <g>
  <path class="st0" d="M99.5,18c-0.3-0.1-0.7-0.1-1.2,0.2c-1.7,1.1-3.4,1.8-4.7,1.6c-1.5-0.3-2.5-1.7-2.4-4.9
		c0.1-1.8,0.8-3.3,2.5-4.4C95.1,9.6,97,9,99.9,9h0.3c4.1-0.1,10.1-0.3,16.3,19.1c0.1,0.4,0.3,0.9,0.5,1.3c0.8,1.9,1.4,3.6-0.7,4.4
		c-1.5,0.6-3,0.6-4.4,0.4c-1.4-0.2-2.6-0.8-3.6-1.5c-6.4,3.7-10.8,4.3-13.6,3.1c-1.5-0.6-2.5-1.6-3.1-2.8c-0.6-1.2-0.8-2.6-0.6-4.1
		c0.5-3.7,3.3-8.1,7.9-10.2C99.3,18.4,99.5,18.2,99.5,18C99.6,18.1,99.6,18.1,99.5,18 M121.8,31.3c0.2-3.2,0.2-6.3,0-9.5
		s-0.6-6.5-1.3-9.7c-0.5-2.7,0-4.3,1.4-5.2c1.3-0.8,3.1-0.8,5.2-0.4c2.3,0.4,3.9,1.2,5,2.4s1.4,3,0.9,5.5c-0.8,4.4-0.7,8.8-0.7,13.1
		c0,1.7,0.1,3.3,0,5c0,1.5-0.6,2.7-1.6,3.6c-1,0.9-2.3,1.4-3.8,1.5c-2.3,0-3.6-0.6-4.4-1.8C121.8,34.7,121.6,33.3,121.8,31.3z
		 M137.8,10c0-0.5,0-1,0-1.5c0.1-1.5,0.4-2.7,1.3-3.8c0.9-1.1,2.2-1.8,4-1.8c0.4,0,0.8,0,1.3,0c1.2,0.1,2.2,0.3,2.9,0.7
		c0.8,0.4,1.3,1,1.7,1.6c0.3,0.6,0.5,1.3,0.4,2c0,0.8-0.3,1.6-0.7,2.3c-1,1.8-2.5,3-4,3.6c-1,0.4-2.1,0.5-3.1,0.4s-1.9-0.5-2.6-1.1
		C138.3,11.8,137.9,11,137.8,10z M138.3,19.2c-0.3-1.3-0.1-2.5,0.8-3.5c0.9-0.9,2.3-1.4,4.6-1.4l0,0c1.6,0,3,0.2,4,0.9
		c1.2,0.8,1.9,1.9,1.7,4.1c-0.2,1.9-0.3,3.7-0.3,5.5c0,1.8,0,3.5,0.1,5.5l0,0l0,0c0,1.4-0.4,2.6-1.3,3.5c-0.9,1-2.3,1.6-4,1.7l0,0
		l0,0l0,0c-0.1,0-0.3,0-0.4,0c-1.2,0-2.3-0.3-3.2-1c-0.9-0.7-1.5-1.8-1.6-3.6c0-0.1,0-0.3,0-0.4l0,0c0.1-1.9,0.2-3.7,0.1-5.5
		C138.9,23.2,138.7,21.4,138.3,19.2z M153,23.3c0.5-1.1,1.6-2.2,3.1-3.1c-0.1-5.7,0.7-9.1,2.3-11.1c1.8-2.1,4.2-2.7,7.5-3
		c1.8-0.2,3.5,0,4.7,0.6c1.3,0.6,2.2,1.7,2.6,3.1c0.2,0.7,0.2,1.3,0.2,1.8c0,1.1-0.3,1.8-0.8,2.4c-0.5,0.6-1.3,1-2.2,1.3
		c-0.5,0.1-1.1,0.2-1.8,0.2c-1,0-1.6,0.6-1.9,1.4c-0.3,0.7-0.4,1.6-0.4,2.4c1.5-0.3,2.9-0.3,3.8,0c0.6,0.2,1.1,0.4,1.5,0.8
		c0.4,0.4,0.7,0.9,0.9,1.5c0.2,0.7,0.1,1.5-0.1,2.4c-0.3,1-0.5,1.9-1.1,2.6c-0.6,0.9-1.5,1.4-3,1.3c-1-0.1-1.5,0-1.6,0.1
		c0,0,0.1,0.2,0.2,0.4l0,0c0.7,2.1,0.8,4,0.3,5.4c-0.5,1.6-1.5,2.7-3.1,3.4c-1.9,0.8-3.5,1.3-4.7,1.2c-0.6-0.1-1.1-0.2-1.6-0.5
		c-0.5-0.3-0.8-0.7-1.1-1.3c-0.3-0.7-0.4-1.6-0.3-2.6c0.1-1.4,0.1-2.7,0.2-4.1c0-0.4,0-0.9,0-1.3c-1.3-0.2-2.3-0.6-2.9-1.1
		c-0.7-0.5-1.1-1.2-1.2-1.9C152.5,24.8,152.6,24,153,23.3z M180.9,12.7c2.7-2.5,6.4-3.9,10.7-3.8c0.4,0,0.8,0,1.1,0.1
		c2.5,0.3,4.6,1.4,6.2,3.3c1.5,1.8,2.5,4.6,2.4,8c0,0.7-0.1,1.4-0.2,2l0,0c-0.6,4.9-2.4,8-4.8,9.9c-2.5,1.8-5.5,2.5-8.9,2.5
		c-0.2,0-0.4,0-0.6,0c-3.5-0.1-6.1-1.6-7.9-3.7c-1.7-2-2.6-4.8-2.6-7.4c0-0.2,0-0.4,0-0.6C176.5,19,178.2,15.3,180.9,12.7z M190,21
		c-0.7,0-1.3,0.2-1.8,0.6c-0.4,0.4-0.7,0.9-0.7,1.5l0,0v0.1l0,0c0,0.4,0.1,0.7,0.3,0.9l0,0c0.2,0.2,0.4,0.4,0.9,0.4l0,0h0.1l0,0
		c0.6,0,1.2-0.2,1.7-0.6c0.4-0.3,0.7-0.8,0.7-1.5c0-0.1,0-0.2,0-0.3c0-0.4-0.1-0.7-0.2-0.8c-0.2-0.2-0.4-0.3-0.7-0.3l0,0
		C190.2,21,190.1,21,190,21L190,21z M257.8,9.3c0-1.8,0.3-3.5,1.3-4.8c1-1.3,2.7-2,5.3-1.9c1.2,0.1,2.2,0.3,2.9,0.7
		c0.8,0.4,1.3,0.9,1.6,1.5c0.3,0.6,0.5,1.3,0.4,1.9c0,0.8-0.3,1.7-0.7,2.3c-1,1.9-2.8,3.1-4.5,3.6c-1,0.3-2,0.3-2.9,0.2
		s-1.8-0.5-2.4-1.1C258.2,11.2,257.8,10.4,257.8,9.3z M258.6,19.3c-0.1-0.4-0.1-0.9-0.1-1.4c0-0.9,0.3-1.7,0.8-2.4
		c0.6-0.7,1.4-1.2,2.7-1.5c0.6-0.1,1.2-0.2,1.9-0.1l0,0c0.1,0,0.2,0,0.3,0c1.5,0.1,2.9,0.5,3.8,1.3l0,0c1,0.9,1.7,2.1,1.6,4l0,0
		c0,0.1,0,0.2,0,0.2c-0.1,2.5-0.2,4.2-0.2,6.1c0,1.1,0,2.2,0,3.6c0,1.3-0.2,2.5-0.8,3.6c-0.7,1.2-1.8,1.9-3.7,2l0,0
		c-0.1,0-0.3,0-0.4,0c-1.2,0-2.5-0.3-3.4-1.1c-1-0.8-1.7-1.9-1.8-3.7c0-0.1,0-0.2,0-0.4l0,0c0.1-1.9,0.1-3.5,0-5.1
		C259.2,23.1,259,21.5,258.6,19.3z M213.4,12.1c0.7,0.6,1.3,1.5,1.7,2.6c1.6-1.4,3-2.1,4.3-2.4c1.8-0.3,3.4,0.4,4.6,2
		c0.3,0.3,0.5,0.7,0.7,1.1c0.6,1.2,0.9,2.5,0.8,3.8c-0.2,1.4-0.8,2.5-2.1,3.4c-0.3,0.2-0.5,0.4-0.8,0.5c-1.9,1-3.3,1.8-4.1,2.7
		c-0.8,1-1.1,2.2-0.9,4.3c0.2,1.9-0.3,3.3-1.4,4.3c-1,0.9-2.6,1.4-4.5,1.6c-0.4,0-0.9,0-1.3,0c-0.9-0.1-1.8-0.5-2.4-1.1
		c-0.7-0.6-1.1-1.4-1.2-2.4c0-0.4,0-0.8,0-1.2c0.3-2,0.4-4.2,0.4-6.3c-0.1-2.1-0.4-4.4-1.1-6.6c-0.1-0.2-0.1-0.3-0.1-0.4
		c-0.4-1.6-0.4-2.9,0-4.1c0.5-1.2,1.5-2,3.1-2.5l0,0c0.1,0,0.1,0,0.2-0.1C210.9,11.1,212.3,11.3,213.4,12.1z M229.4,16.5
		c-0.8-2.6,0-4.5,1.3-5.5c0.7-0.6,1.6-0.9,2.6-1.1l0,0c0.9-0.1,1.9,0,2.8,0.2l0,0c1.4,0.4,2.6,1.3,3.3,2.5c0.7-0.6,1.3-1.1,2-1.4
		c1.6-0.9,3.2-1.1,4.5-0.8c1.4,0.2,2.7,0.9,3.6,1.8c0.8,0.7,1.4,1.4,1.8,2.1c1.3,2.3,2.1,4.9,2.7,7.4s0.8,5.1,1,7.7
		c0.1,1.6-1.6,3.1-3.6,3.9c-0.6,0.2-1.3,0.4-2,0.5s-1.4,0-2-0.1c-1.5-0.4-2.6-1.4-2.7-3.3c-0.3-4.8-1.3-7.9-2.3-9.2
		c-0.3-0.3-0.5-0.5-0.6-0.5s-0.1,0.1-0.2,0.2c-0.6,0.7-1,2.4-1.1,5.4c0,1.1,0,2.1,0.1,3c0.2,3.9,0.4,5.9-4.8,6.2
		c-2.1,0.1-3.5-0.5-4.5-1.7c-0.9-1.2-1.2-2.7-1-4.9c0.2-2.3,0.3-4.4,0.3-6.4C230.3,20.4,230,18.5,229.4,16.5z M283.3,19.7
		c-0.2,0-0.5,0-0.8,0.1l-0.4,0.2c-1.6,0.7-3,1.3-4.2,1.2c-1.8-0.1-3-1.2-2.9-4.7c0.1-1.8,1.1-3.3,3-4.4c1.7-1,3.9-1.5,6.8-1.5
		c2.8,0,5.1,0.4,7.8,2.9c2.5,2.4,5.1,6.8,8.4,14.9c0.6,1.4,0.7,2.4,0.7,3.3c-0.1,1.1-0.6,1.9-1.4,2.4c-0.7,0.5-1.6,0.7-2.6,0.8
		c-1.5,0.1-3.2-0.3-4.7-0.9c-1,0.6-2,1.1-3,1.6c-3.5,1.6-6.6,2-9,1.8c-2.6-0.3-4.4-1.4-5.3-2.9c-0.1-0.2-0.2-0.4-0.3-0.5
		c-1-2.1-0.7-5.1,0.8-7.8c1.4-2.4,3.6-4.8,6.7-6.3C283.2,19.8,283.3,19.7,283.3,19.7z M287.7,26.4c-1.3,0.5-1.9,1.1-2.1,1.6
		c0,0.1-0.1,0.2,0,0.2l0,0c0.1,0.1,0.4,0.1,0.9,0c1.4-0.3,2.1-0.6,2.4-1c0.1-0.2,0-0.4-0.2-0.8l0,0c-0.1-0.2-0.2-0.2-0.2-0.2
		C288.3,26.3,288.1,26.3,287.7,26.4z M62.1,11.6c3.1-4.2,8.3-7.9,15.7-10c2.6-0.8,4.6-0.1,6.3,1.3c1.6,1.3,2.8,3.2,3.6,5.1
		c0.9,1.8,1.3,3.3,1,4.5c-0.4,1.3-1.5,2-3.6,2.6c-2.4,0.6-4.8,1.4-6.9,2.1c-2.1,0.8-3.8,1.6-4.9,2.5c-0.4,0.3-0.6,0.7-0.7,1.1
		c-0.1,0.5,0.1,1.2,0.5,1.8c0.5,0.7,1.1,1.4,2,1.8c1.5,1.1,3.5,1.7,5.4,1.5c1.6-0.3,2.8-0.3,3.5,0.7l0,0c0.7,0.8,0.9,2.3,0.6,4.9
		c-0.1,0.5-0.1,0.9-0.3,1.4c-0.5,1.7-1.4,2.7-2.8,3.4c-1.3,0.6-2.9,0.8-4.7,0.6c-1.1-0.1-2.2-0.3-3.4-0.7c-5.6-1.6-9.6-4.3-11.9-7.6
		c-1.8-2.5-2.7-5.4-2.6-8.3C59.2,17.3,60.2,14.3,62.1,11.6z M103.4,24.6c-1.3,0.5-1.9,1.1-2.1,1.6c0,0.1,0,0.2,0,0.2l0,0
		c0.1,0.1,0.4,0.1,0.9,0c1.4-0.3,2.1-0.6,2.4-1c0.1-0.2,0-0.4-0.2-0.8l0,0c-0.1-0.2-0.2-0.2-0.2-0.2C104,24.4,103.7,24.4,103.4,24.6
		z M165.8,6L165.8,6L165.8,6z">
  </path>
  <path class="st1" d="M271.8,47.6h4.4h0.9l0.3,0.8l9.4,21.7l0.8,1.8h-2h-5h-0.9l-0.3-0.8l-1.7-4h-7.5l-1.7,4l-0.3,0.8h-0.9h-4.9h-2
		l0.8-1.8l9.4-21.7l0.4-0.8H271.8z M238.1,47.8h4.8h1.3V49v16h9.6h1.4v1.3v4.3V72h-1.4h-15.7h-1.3v-1.3V49v-1.3
		C236.8,47.8,238.1,47.8,238.1,47.8z M211.8,47.8h4.8h1.4V49v16h9.6h1.3v1.3v4.3V72h-1.3h-15.7h-1.3v-1.3V49v-1.3
		C210.6,47.8,211.8,47.8,211.8,47.8z M194.5,47.8h4.8h1.4V49v21.6V72h-1.4h-4.8h-1.3v-1.3V49v-1.3C193.2,47.8,194.5,47.8,194.5,47.8
		z M170.9,54.8h-5.3h-1.3v-1.3v-4.4v-1.3h1.3h18.1h1.4v1.3v4.4v1.3h-1.4h-5.3v15.9V72h-1.3h-4.8H171v-1.3L170.9,54.8L170.9,54.8z
		 M114.8,65.3c0.4,0,0.8,0,1.2-0.1c0.4-0.1,0.7-0.2,1-0.3c0.3-0.1,0.6-0.3,0.9-0.5c0.3-0.2,0.5-0.4,0.7-0.7c0.2-0.3,0.4-0.5,0.6-0.8
		c0.2-0.3,0.3-0.6,0.5-1c0.1-0.3,0.2-0.7,0.3-1c0.1-0.3,0.1-0.7,0.1-1.1v-0.1c0-0.8-0.1-1.5-0.4-2.1c-0.1-0.3-0.3-0.7-0.5-1
		c-0.2-0.3-0.4-0.6-0.6-0.8c-0.2-0.3-0.5-0.5-0.8-0.7c-0.3-0.2-0.6-0.4-0.9-0.5c-0.3-0.1-0.7-0.3-1-0.3c-0.3-0.1-0.7-0.1-1.2-0.1
		l0,0c-0.8,0-1.5,0.1-2.2,0.4c-0.3,0.1-0.6,0.3-0.9,0.5l0,0c-0.3,0.2-0.5,0.4-0.7,0.7s-0.4,0.5-0.6,0.8c-0.2,0.3-0.3,0.6-0.5,1
		c-0.1,0.3-0.2,0.7-0.3,1c-0.1,0.4-0.1,0.7-0.1,1.1v0.1c0,0.8,0.1,1.5,0.4,2.1c0.1,0.3,0.3,0.7,0.5,1s0.4,0.6,0.6,0.8
		c0.2,0.3,0.5,0.5,0.8,0.7c0.3,0.2,0.6,0.4,0.9,0.5c0.3,0.1,0.7,0.3,1,0.3C114,65.3,114.4,65.3,114.8,65.3z M114.7,72.3
		c-1,0-1.9-0.1-2.7-0.2c-0.9-0.2-1.7-0.4-2.5-0.8l0,0c-0.8-0.3-1.5-0.7-2.2-1.2s-1.3-1-1.9-1.5c-0.6-0.6-1.1-1.2-1.6-1.8
		c-0.5-0.7-0.8-1.4-1.2-2.1c-0.3-0.8-0.6-1.6-0.7-2.3c-0.2-0.8-0.2-1.7-0.2-2.5v-0.1c0-1.8,0.3-3.3,1-4.9c0.3-0.8,0.7-1.5,1.2-2.1
		c0.5-0.7,1-1.3,1.6-1.8c0.6-0.6,1.2-1.1,1.9-1.6c0.7-0.5,1.4-0.9,2.2-1.2s1.7-0.6,2.5-0.8c0.9-0.2,1.8-0.2,2.7-0.2l0,0
		c0.9,0,1.8,0.1,2.7,0.3c0.9,0.2,1.7,0.4,2.5,0.8l0,0c0.8,0.3,1.5,0.7,2.2,1.2c0.7,0.5,1.3,1,1.9,1.5c0.6,0.6,1.1,1.2,1.6,1.8
		c0.5,0.7,0.8,1.4,1.2,2.1c0.3,0.8,0.6,1.6,0.7,2.3c0.2,0.8,0.2,1.7,0.2,2.5v0.1c0,0.9-0.1,1.7-0.2,2.5c-0.2,0.8-0.4,1.6-0.8,2.3
		c-0.3,0.8-0.7,1.5-1.2,2.1s-1,1.3-1.6,1.8c-0.6,0.6-1.2,1.1-1.9,1.6c-0.7,0.5-1.4,0.9-2.2,1.2c-0.8,0.3-1.7,0.6-2.5,0.8
		C116.5,72.3,115.7,72.3,114.7,72.3L114.7,72.3z M137.5,47.8h10c1.5,0,2.9,0.2,4.1,0.6c1.3,0.4,2.4,1.1,3.2,1.9l0,0
		c0.8,0.8,1.3,1.7,1.7,2.6c0.4,1,0.6,2,0.6,3.2l0,0v0.1l0,0c0,2-0.5,3.7-1.6,5.1c-0.5,0.7-1.1,1.3-1.8,1.7c-0.2,0.2-0.5,0.3-0.7,0.5
		l4.4,6.4l1.4,2h-2.6h-5.6H150l-0.4-0.6l-4.2-6.3h-1.8v5.5V72h-1.4h-4.8h-1.1v-1.3V49v-1.3C136.3,47.8,137.5,47.8,137.5,47.8z
		 M147.3,58.2c0.5,0,0.9-0.1,1.2-0.2c0.3-0.1,0.5-0.2,0.7-0.4c0.2-0.2,0.3-0.3,0.4-0.5c0.1-0.2,0.1-0.5,0.1-0.8v-0.1
		c0-0.3,0-0.6-0.1-0.9c-0.1-0.2-0.2-0.3-0.3-0.5c-0.2-0.2-0.4-0.3-0.7-0.4c-0.3-0.1-0.8-0.1-1.2-0.1H144V58h3.4V58.2z M80.7,54.8
		h-5.3H74v-1.3v-4.4v-1.3h1.4h18.1h1.4v1.3v4.4v1.3h-1.4h-5.3v15.9V72h-1.3H82h-1.4v-1.3C80.7,70.7,80.7,54.8,80.7,54.8z M275,60.3
		l-0.9-2.2l-0.9,2.2H275z">
  </path>
  <path class="st2" d="M99.6,25.5c0.4-0.9,1.4-1.8,3.1-2.5c0.7-0.3,1.2-0.4,1.7-0.3c0.6,0.1,1.1,0.4,1.5,1.1l0,0
		c0.7,1.1,0.8,2,0.1,2.9c-0.6,0.7-1.7,1.2-3.5,1.6c-1,0.2-1.9,0.1-2.4-0.4c-0.4-0.3-0.6-0.6-0.7-1.1C99.4,26.4,99.4,26,99.6,25.5
		 M97.3,16.7c1.1-0.7,2.2-0.7,3-0.4c0.4,0.2,0.7,0.4,0.9,0.7l0,0c0.2,0.3,0.3,0.7,0.3,1.2c-0.1,0.7-0.6,1.4-1.8,1.9
		c-4,1.9-6.5,5.6-6.9,8.9c-0.1,1.2,0,2.2,0.4,3.1c0.4,0.9,1.1,1.6,2.1,1.9c2.4,1,6.5,0.3,12.5-3.3l0.6-0.3l0.5,0.4
		c0.9,0.7,2.1,1.3,3.4,1.5c1.1,0.2,2.3,0.1,3.5-0.3c0.4-0.2,0.1-1-0.3-2c-0.2-0.4-0.3-0.9-0.5-1.4c-5.8-18-10.9-17.9-14.5-17.8h-0.3
		c-2.5,0.1-4.1,0.5-5.2,1.2c-1.1,0.7-1.6,1.8-1.6,2.9c-0.1,2.1,0.3,2.9,0.9,3.1C94.8,18.3,96,17.6,97.3,16.7z M123.6,21.7
		c0.2,3.3,0.2,6.5,0,9.7c-0.1,1.6,0,2.7,0.5,3.4s1.4,1,3,1c1.1,0,2-0.4,2.7-1c0.6-0.6,1-1.4,1-2.3c0-1.7,0-3.3,0-5
		c-0.1-4.4-0.1-8.9,0.7-13.4c0.4-1.9,0.2-3.2-0.5-4.1c-0.7-0.9-2.1-1.4-3.9-1.8c-1.8-0.3-3.2-0.4-3.9,0.1c-0.7,0.4-0.9,1.5-0.6,3.3
		C123,15,123.3,18.4,123.6,21.7z M139.6,8.6c0,0.4,0,0.8,0,1.2c0,0.5,0.3,0.9,0.6,1.2c0.4,0.4,1,0.6,1.6,0.6c0.7,0.1,1.5,0,2.2-0.3
		c1.2-0.4,2.4-1.4,3.1-2.7c0.3-0.5,0.5-1.1,0.5-1.7c0-0.4-0.1-0.8-0.2-1.1c-0.2-0.3-0.5-0.6-0.9-0.8c-0.5-0.3-1.2-0.4-2.2-0.5
		c-0.4,0-0.7,0-1,0c-1.4,0.1-2.3,0.6-2.8,1.3C139.9,6.6,139.7,7.6,139.6,8.6z M140.4,17c-0.4,0.5-0.5,1.2-0.3,1.9
		c0.4,2.2,0.6,4.1,0.7,5.9c0.1,1.8,0,3.6-0.1,5.5l0,0c0,0.1,0,0.2,0,0.3c0,1.1,0.4,1.8,0.9,2.2c0.5,0.4,1.3,0.6,2.1,0.6
		c0.1,0,0.2,0,0.4,0l0,0l0,0l0,0c1.3,0,2.2-0.4,2.8-1.1c0.6-0.6,0.8-1.5,0.8-2.3l0,0l0,0c-0.1-1.9-0.1-3.7-0.1-5.5
		c0-1.8,0.1-3.6,0.3-5.5c0.1-1.3-0.2-1.9-0.9-2.3c-0.8-0.5-2-0.6-3.2-0.6C142,16.2,140.9,16.5,140.4,17z M157.5,21.5
		c-1.5,0.8-2.4,1.8-2.9,2.6c-0.2,0.4-0.3,0.8-0.2,1.2c0.1,0.3,0.2,0.6,0.5,0.8c0.5,0.4,1.5,0.7,2.8,0.8h0.9v0.9c0,0.7,0,1.4,0,2
		c0,1.5,0,2.8-0.2,4.2c-0.1,0.8,0,1.4,0.2,1.8c0.1,0.2,0.2,0.4,0.4,0.5c0.2,0.1,0.4,0.2,0.7,0.2c1,0.1,2.3-0.3,3.8-1
		c1.1-0.5,1.8-1.2,2.1-2.2s0.2-2.6-0.3-4.4l0,0c-0.3-0.9-0.3-1.6,0.3-2.1c0.5-0.5,1.4-0.7,3-0.6c0.7,0,1.1-0.2,1.3-0.5
		c0.4-0.5,0.6-1.3,0.8-2.1c0.2-0.7,0.2-1.2,0.1-1.6c-0.1-0.2-0.2-0.4-0.3-0.6c-0.2-0.2-0.4-0.3-0.7-0.3c-1-0.3-2.5-0.1-4,0.3
		l-1.1,0.3v-1.1c0-1.4,0-2.9,0.5-4.2c0.6-1.5,1.7-2.5,3.5-2.4c0.5,0,0.9,0,1.3-0.1c0.5-0.1,0.9-0.3,1.2-0.6s0.4-0.8,0.4-1.4
		c0-0.4-0.1-0.9-0.2-1.4c-0.2-0.9-0.8-1.6-1.6-1.9c-1-0.5-2.3-0.6-3.7-0.4l0,0c-2.8,0.2-4.9,0.7-6.2,2.3c-1.4,1.8-2.1,4.9-1.9,10.5
		v0.6L157.5,21.5z M187,20.2c0.8-0.7,1.9-1.1,3-1.1l0,0c0.1,0,0.3,0,0.4,0l0,0c0.7,0.1,1.3,0.3,1.8,0.8l0,0c0.5,0.5,0.8,1.2,0.8,2.1
		c0,0.2,0,0.3,0,0.5c-0.2,1.2-0.7,2-1.4,2.6c-0.8,0.7-1.9,1-2.9,1c-0.1,0-0.1,0-0.2,0l0,0c-1,0-1.8-0.5-2.2-1.1l0,0
		c-0.5-0.6-0.7-1.3-0.7-2c0-0.1,0-0.1,0-0.2l0,0C185.8,21.9,186.2,20.9,187,20.2z M191.6,10.7c-3.8-0.1-7.1,1.2-9.5,3.3
		c-2.5,2.2-3.8,5.5-4,9.1c0,0.2,0,0.3,0,0.5c0,2.2,0.7,4.6,2.2,6.2c1.5,1.8,3.6,2.9,6.6,3c0.2,0,0.4,0,0.5,0c3,0,5.7-0.6,7.8-2.1
		s3.5-4.3,4.1-8.7l0,0c0.1-0.7,0.1-1.3,0.1-1.8c0.1-2.9-0.7-5.3-2-6.8s-3-2.4-5-2.6C192.2,10.7,191.9,10.7,191.6,10.7z M260.6,5.6
		c-0.7,0.9-0.9,2.2-0.9,3.7c0,0.5,0.2,0.9,0.5,1.2c0.4,0.3,0.9,0.5,1.5,0.6c0.7,0.1,1.4,0.1,2.1-0.1c1.3-0.4,2.7-1.3,3.4-2.7
		c0.3-0.6,0.5-1.1,0.5-1.7c0-0.4,0-0.7-0.2-1S267,5,266.6,4.8c-0.5-0.3-1.2-0.4-2.1-0.5C262.4,4.4,261.2,4.7,260.6,5.6z M260.3,18.1
		c0,0.3,0,0.6,0.1,1c0.4,2.2,0.7,3.9,0.8,5.6c0.1,1.7,0.1,3.3,0,5.3l0,0c0,0.1,0,0.2,0,0.2c0,1.2,0.4,1.8,1,2.3s1.5,0.7,2.4,0.7
		c0.1,0,0.2,0,0.3,0l0,0c1.2,0,1.8-0.5,2.2-1.2c0.4-0.8,0.6-1.8,0.6-2.7c0-1.4,0-2.5,0-3.6c0-1.9,0-3.7,0.2-6.2c0-0.1,0-0.2,0-0.2
		c0-1.3-0.4-2-1-2.6l0,0c-0.7-0.6-1.7-0.8-2.8-0.9c-0.1,0-0.2,0-0.3,0l0,0c-0.6,0-1.1,0-1.5,0.1c-0.8,0.1-1.3,0.4-1.6,0.8
		C260.4,17.1,260.3,17.6,260.3,18.1L260.3,18.1z M213.7,16.6c-0.3-1.6-0.8-2.5-1.4-3.1c-0.6-0.5-1.4-0.6-2.5-0.3c-0.1,0-0.1,0-0.2,0
		l0,0c-1,0.3-1.7,0.8-2,1.5c-0.3,0.8-0.3,1.8,0,2.9l0,0c0,0.2,0.1,0.3,0.1,0.3c0.8,2.4,1.1,4.8,1.2,7c0.1,2.2-0.1,4.5-0.4,6.6
		c0,0.3,0,0.5,0,0.8c0.1,0.6,0.3,1,0.6,1.3c0.4,0.3,0.8,0.5,1.4,0.6c0.3,0,0.6,0,0.9,0c1.6-0.2,2.8-0.5,3.5-1.1
		c0.6-0.6,0.9-1.5,0.8-2.7c-0.2-2.6,0.2-4.3,1.3-5.5c1.1-1.3,2.6-2.1,4.7-3.2c0.2-0.1,0.4-0.2,0.6-0.4c0.8-0.6,1.2-1.4,1.3-2.2
		s-0.1-1.8-0.6-2.7c-0.1-0.3-0.3-0.6-0.5-0.8c-0.9-1.2-1.8-1.6-2.9-1.4c-1.3,0.2-2.8,1.3-4.5,3l-1.2,1.3L213.7,16.6z M231.8,12.3
		c-0.8,0.7-1.2,1.8-0.7,3.6c0.6,2.1,0.9,4.2,1,6.3c0.1,2,0,4.2-0.3,6.6c-0.2,1.6,0,2.8,0.6,3.6c0.6,0.7,1.5,1.1,3,1
		c3.4-0.2,3.3-1.7,3.1-4.3c-0.1-1-0.1-1.9-0.1-3.2c0.1-3.3,0.7-5.5,1.5-6.4c0.6-0.7,1.2-1,2-0.9c0.6,0.1,1.2,0.5,1.8,1.3
		c1.2,1.6,2.4,5.1,2.7,10.2c0.1,1,0.6,1.6,1.3,1.8c0.4,0.1,0.9,0.1,1.4,0.1c0.5-0.1,1-0.2,1.5-0.4c1.4-0.5,2.5-1.4,2.5-2.1
		c-0.1-2.5-0.4-5-0.9-7.4c-0.5-2.4-1.3-4.7-2.5-6.9c-0.3-0.6-0.8-1.2-1.4-1.7c-0.8-0.7-1.7-1.2-2.8-1.4c-1-0.2-2.2,0-3.4,0.6
		c-1.5,0.8-2.8,1.9-3.8,2.9c-0.4-1.8-0.6-3.3-2.7-4l0,0c-0.7-0.2-1.4-0.3-2-0.2l0,0C232.9,11.8,232.3,12,231.8,12.3z M283.9,27.3
		c0.4-0.9,1.4-1.8,3.1-2.5c0.7-0.3,1.2-0.4,1.7-0.3c0.6,0.1,1.1,0.4,1.5,1.1l0,0c0.7,1.1,0.8,2,0.1,2.9c-0.6,0.7-1.7,1.2-3.5,1.6
		c-1,0.2-1.9,0.1-2.4-0.4c-0.4-0.3-0.6-0.6-0.7-1.1C283.7,28.2,283.7,27.8,283.9,27.3z M281.9,18.2c0.8-0.4,1.9-0.3,2.6,0.1
		c0.3,0.2,0.6,0.4,0.7,0.6c0.2,0.3,0.3,0.7,0.2,1.2c-0.1,0.5-0.6,1.1-1.6,1.6c-2.7,1.4-4.7,3.4-5.9,5.5c-1.2,2.2-1.6,4.5-0.8,6.2
		c0.1,0.1,0.1,0.2,0.2,0.4c0.7,1.1,2.1,1.8,4,2.1c2.1,0.2,4.8-0.2,8-1.7c1-0.5,2.1-1,3.2-1.7l0.4-0.2l0.4,0.2c1.5,0.6,3.2,1,4.4,0.9
		c0.7,0,1.3-0.2,1.7-0.4c0.3-0.2,0.6-0.6,0.6-1.1c0.1-0.6-0.1-1.5-0.5-2.5c-3.2-7.9-5.7-12.1-8-14.3c-2.2-2.1-4.2-2.4-6.5-2.4
		c-2.5,0-4.5,0.5-5.9,1.3c-1.3,0.8-2.1,1.8-2.1,2.9c-0.1,2.1,0.4,2.8,1.1,2.8c0.9,0,2.2-0.5,3.5-1.1L281.9,18.2z M78.3,3.3
		c-7,2-11.8,5.5-14.7,9.3c-1.8,2.4-2.7,5.1-2.8,7.6c-0.1,2.5,0.7,5,2.3,7.2c2.2,3,5.7,5.5,10.9,6.9c1.1,0.3,2.2,0.5,3.1,0.6
		c1.5,0.2,2.8,0,3.7-0.4c0.9-0.4,1.5-1.2,1.8-2.2c0.1-0.3,0.2-0.7,0.2-1.1c0.2-2,0.2-3.1-0.2-3.5l0,0c-0.2-0.3-0.9-0.2-1.9-0.1l0,0
		c-2.4,0.3-4.8-0.5-6.7-1.8c-1-0.7-1.9-1.6-2.5-2.4c-0.6-1-0.9-1.9-0.8-2.9c0.1-0.8,0.5-1.6,1.3-2.1c1.3-1.1,3.3-1.9,5.5-2.8
		c2.3-0.8,4.7-1.6,7.1-2.1c1.5-0.4,2.2-0.8,2.4-1.4c0.2-0.7-0.2-1.8-0.9-3.2c-0.8-1.7-1.8-3.4-3.2-4.5C81.7,3.2,80.3,2.7,78.3,3.3z">
  </path>
  <path class="st3" d="M276.7,61.6l-2.9-7l-2.9,7H276.7z M271.7,48.9h4.4l9.4,21.7h-5l-2-4.9h-9.3l-2,4.9h-4.9L271.7,48.9z M237.9,49
		h4.8v17.2h10.8v4.3h-15.7V49z M211.6,49h4.8v17.2h10.9v4.3h-15.7L211.6,49L211.6,49z M194.4,49h4.8v21.6h-4.8V49z M172,53.4h-6.6
		V49h18.1v4.4H177v17.2h-4.8L172,53.4L172,53.4z M147.1,59.5c1.2,0,2.1-0.3,2.8-0.9c0.6-0.6,1-1.3,1-2.2l0,0c0-1.1-0.3-1.8-1-2.3
		c-0.7-0.5-1.6-0.8-2.8-0.8h-4.7v6.2H147.1z M137.4,49h10c2.8,0,4.9,0.8,6.4,2.1c1.3,1.3,1.9,2.9,1.9,5v0.1c0,1.8-0.4,3.2-1.3,4.3
		c-0.9,1.1-2,1.9-3.4,2.4l5.3,7.7h-5.6l-4.7-6.9h-0.1h-3.7v6.9h-4.8L137.4,49L137.4,49z M114.6,66.6c1,0,1.9-0.2,2.7-0.5
		c0.8-0.3,1.5-0.9,2.1-1.5c0.6-0.6,1-1.4,1.4-2.1c0.3-0.8,0.5-1.7,0.5-2.6v-0.1c0-1-0.2-1.8-0.5-2.6c-0.3-0.8-0.8-1.6-1.4-2.1
		c-0.6-0.6-1.3-1.1-2.1-1.5s-1.7-0.6-2.7-0.6c-1,0-1.9,0.2-2.7,0.5c-0.8,0.4-1.5,0.9-2.1,1.5s-1,1.4-1.4,2.1
		c-0.3,0.8-0.5,1.7-0.5,2.6v0.1c0,1,0.2,1.8,0.5,2.6c0.3,0.8,0.8,1.6,1.4,2.1c0.6,0.6,1.3,1.1,2.1,1.5
		C112.8,66.5,113.7,66.6,114.6,66.6z M114.6,71c-1.7,0-3.3-0.3-4.6-0.9c-1.4-0.6-2.7-1.4-3.6-2.3c-1-1-1.9-2.1-2.4-3.5
		c-0.6-1.4-0.9-2.8-0.9-4.4v-0.1c0-1.6,0.3-3,0.9-4.4c0.6-1.4,1.4-2.5,2.5-3.5c1-1,2.3-1.8,3.6-2.4c1.4-0.6,3-0.9,4.6-0.9
		s3.3,0.3,4.6,0.9c1.4,0.6,2.7,1.4,3.6,2.3c1,1,1.9,2.1,2.4,3.5c0.6,1.4,0.9,2.8,0.9,4.4v0.1c0,1.6-0.3,3-0.9,4.4
		c-0.6,1.4-1.4,2.5-2.5,3.5c-1,1-2.3,1.8-3.6,2.4C117.8,70.7,116.2,71,114.6,71z M81.8,53.4h-6.7V49h18.1v4.4h-6.6v17.2h-4.8V53.4z">
  </path>
  <path class="st1" d="M11.9,1.6c3-0.9,5.9-1,8.9,0.3C23.7,3.1,26,5.3,28,7.7c2.2,2.6,4,5.5,6,8.3c1.2,1.7,2.3,3.2,3.5,4.8
		c3.1,3.6,6.1,7.3,8.8,11.2c2.1,2.9,3.8,6.1,4.9,9.5c1.5,4.8,1.4,9.8-0.2,14.5c-2.7,8.1-9.3,14.1-17.4,16.5
		c-8.2,2.4-17.2,1-23.9-4.3c-3.9-3.1-6.9-7.2-8.4-12c-1-3.4-1.2-6.9-1.2-10.4c0.1-4.6,0.6-9.2,1-13.8c0.2-2,0.3-4.1,0.3-6.2
		c0.1-3.5,0-7,0.4-10.4C2.3,12.2,3,9.1,4.7,6.5C6.6,4,9.1,2.5,11.9,1.6">
  </path>
  <path class="st3" d="M12.1,2.2c12.4-3.7,17.4,9.6,25,18.8c7.2,8.6,11.7,14.3,13.6,20.5c3.9,12.8-3.8,26.4-17.3,30.4
		C20,75.9,5.9,68.8,2,56c-1.9-6.1-1.3-13-0.2-24C3,20-0.3,5.9,12.1,2.2">
  </path>
  <path class="st4" d="M13.6,11.4c9.9-3.4,14.3,7.2,20.7,14.2c6.1,6.6,10,11.1,11.6,16c3.5,10.1-2.2,21.3-12.8,25S10.9,65,7.3,54.9
		c-1.7-4.9-1.5-10.5-1-19.3C6.9,26.1,3.8,14.8,13.6,11.4">
  </path>
  <path class="st5" d="M15.2,20.5c7.3-3.1,11.2,4.7,16.5,9.6c4.9,4.7,8.1,7.9,9.8,11.5c3.3,7.5-0.5,16.3-8.3,19.7
		c-7.9,3.4-17,0-20.2-7.5c-1.6-3.6-1.7-7.9-1.9-14.5C10.9,32,7.9,23.6,15.2,20.5">
  </path>
  <path class="st0" d="M27.1,34.4c5.3,0.8,9.1,6.1,8.2,12.1s-5.9,10.1-11.2,9.4c-5.3-0.8-9.1-6.1-8.2-12.1
		C16.8,37.8,21.8,33.7,27.1,34.4">
  </path>
  <path class="st0" d="M293.9,51.1c0-1.2-0.9-1.7-2.1-1.7h-2.4v4.9h1.4v-1.5h0.6l1,1.5h1.6l-1.2-1.7
		C293.5,52.3,293.9,51.9,293.9,51.1z M291.8,51.8h-0.9v-1.2h0.9c0.5,0,0.8,0.2,0.8,0.6C292.5,51.6,292.2,51.8,291.8,51.8z
		 M291.5,47.4c-2.6,0-4.6,2.1-4.6,4.6l0,0c0,2.5,2,4.6,4.6,4.6c2.6,0,4.6-2.1,4.6-4.6l0,0C296.2,49.4,294.1,47.4,291.5,47.4z
		 M295.6,51.9c0,2.1-1.8,4-4,4c-2.3,0-3.9-1.8-3.9-4l0,0c0-2.1,1.8-4,3.9-4C293.8,48,295.6,49.7,295.6,51.9L295.6,51.9z">
  </path>
 </g>
</svg>