<svg xmlns="http://www.w3.org/2000/svg" viewBox="-0.0009766221046447754 -0.0007324220496229827 63.00217819213867 55.001434326171875"><g xmlns="http://www.w3.org/2000/svg" id="Logo w/ Halo">
<path id="Vector" d="M59.7318 33.9201C59.9475 33.5409 60.0672 33.0923 60.0672 32.5979V29.4882C60.0672 28.0451 58.9942 26.9993 57.5161 26.9993H56.0353C55.7264 26.9993 55.448 27.0479 55.1989 27.1368C54.6185 26.934 53.8879 26.7895 52.9763 26.7895C52.922 26.7895 52.8663 26.7909 52.8134 26.7909C53.0166 25.827 53.0125 24.759 52.4655 23.8312C52.1134 23.234 51.1823 21.6965 49.3383 21.6965L47.2465 21.7201C46.7204 21.7201 46.1192 21.5729 45.7169 21.7895C45.3787 15.4382 44.2667 10.8826 42.3642 6.97566C40.2029 2.54232 37.0603 -0.000732422 33.7327 -0.000732422C30.6555 0.0089898 28.7099 1.96732 28.078 4.22705C27.3571 3.77843 26.5485 3.50066 25.6327 3.50066C24.4998 3.50204 21.6092 4.06038 18.8549 9.01038C16.5739 13.109 15.6943 17.9548 14.7173 26.152L14.6964 26.3673L14.5684 27.252L13.6804 24.8743C13.5677 24.4965 13.288 23.8007 12.6491 23.1812C11.7403 22.302 10.4168 22.2076 9.88932 22.2076H5.90894C4.53807 22.2076 3.42329 23.3132 3.42329 24.6715C3.42329 24.7409 3.4205 25.1409 3.41772 25.5604C3.41494 26.0312 3.41215 26.5229 3.41215 26.6145C3.41215 27.3743 3.7253 28.0354 4.24024 28.4868C3.84777 29.5076 3.25767 31.0465 2.36417 33.3895C2.21526 33.7784 2.07051 34.159 1.94387 34.4909C1.4498 34.5868 1.00444 34.8298 0.657895 35.1965C0.223672 35.6576 -0.0143161 36.2784 -0.000398695 36.9145V38.8507C-0.00179044 39.1673 0.0691884 39.9743 0.73305 40.6395C1.19789 41.1048 1.82418 41.3604 2.49778 41.3604H8.16774C8.77871 41.3604 9.31453 41.1826 9.72927 40.8715C10.0577 41.1187 10.4725 41.2868 10.9693 41.3409C9.86705 42.3937 9.22268 43.7562 9.1517 45.3534C9.07794 47.0534 9.71535 48.659 10.9985 49.9965C12.6547 51.7229 15.4062 53.0423 19.1764 53.9173C22.1868 54.6159 25.7747 55.0007 29.2819 55.0007H29.2846H29.4113C33.67 54.9882 39.8354 54.5173 45.028 52.352C49.3591 50.5451 51.8114 47.9951 51.9339 45.1701C51.9714 44.302 51.8573 42.7298 50.7996 41.3229H50.833C51.2115 41.3229 51.565 41.2451 51.8782 41.1034C52.2066 41.2229 52.5615 41.3201 52.9359 41.3784C53.3785 41.4479 53.867 41.484 54.3485 41.484C55.2267 41.484 56.4904 41.3632 57.5259 40.7895C58.3317 40.3423 60.0087 39.4132 60.2968 37.0354C60.436 35.8812 60.2286 34.809 59.7318 33.9201Z" fill="#D7181F"></path>
<path id="Vector_2" d="M43.0465 26.1131C43.0452 26.2743 43.0479 26.009 43.0465 26.1131V26.1131Z" fill="white"></path>
<path id="Vector_3" d="M58.2097 32.4757V29.3618C58.2097 29.0785 58.0539 29.0271 57.8159 29.0271H56.3337C56.168 29.0271 56.1444 29.1257 56.1444 29.3215V29.8118C56.1444 29.9674 56.0428 29.9382 55.8577 29.7549C55.6392 29.5368 55.0393 28.8465 53.3748 28.8465C51.5837 28.8465 50.9462 29.4424 50.448 30.0007C49.9497 30.5576 49.2358 31.8854 49.8913 33.2368C50.5468 34.5882 52.5217 34.866 53.2217 35.0132C54.0512 35.1868 55.2537 35.6229 54.8918 36.2882C54.5314 36.9535 53.3957 36.7687 52.7402 36.5604C52.0847 36.3521 51.7437 35.7604 51.7006 35.609C51.6491 35.4271 51.457 35.2688 51.2051 35.2688H49.5253C49.226 35.2688 49.1565 35.4271 49.1565 35.6396V38.7049C49.1565 38.909 49.1968 39.0562 49.4265 39.0562H51.1216C51.3457 39.0562 51.3832 38.9576 51.3832 38.8021C51.3832 38.6465 51.3749 38.4674 51.3749 38.3035C51.3749 38.1396 51.4681 38.0785 51.6212 38.2299C51.7729 38.3813 52.633 38.884 53.5905 39.0326C54.5495 39.1826 55.8104 39.2049 56.6412 38.7437C57.4707 38.284 58.1346 37.7368 58.2765 36.6243C58.431 35.4076 57.9926 34.334 56.5508 33.834C55.1089 33.3354 53.7269 33.0479 53.2357 32.7688C52.6748 32.4507 52.5732 31.5521 53.3637 31.334C54.0735 31.1368 54.6831 31.3521 55.1117 31.5993C55.4708 31.8063 55.6531 32.2715 55.6865 32.4674C55.7199 32.6632 55.7436 32.8757 56.0386 32.8757H57.8061C58.0956 32.8757 58.2097 32.7618 58.2097 32.4757ZM50.2156 27.7576C50.2156 27.7576 52.093 23.3813 49.2984 23.3813H46.8823C46.4203 23.3813 46.4467 23.834 46.4467 23.834C46.4467 23.834 46.4426 25.6993 46.4426 25.9465C46.4426 26.1715 46.3771 26.4438 46.9102 26.4438H48.7584C50.068 26.4438 50.2156 27.7576 50.2156 27.7576ZM48.8419 28.959H43.9513C43.673 28.959 43.6452 29.0674 43.6452 29.3285V31.2576C43.6452 31.4674 43.7106 31.5632 43.9625 31.5632H44.3341C44.4983 31.5632 44.6945 31.5743 44.5957 31.8354C44.4969 32.0965 43.2624 36.009 43.197 36.216C43.1316 36.4229 42.6445 36.4007 42.5568 36.1826C42.4691 35.9646 41.4532 32.009 41.3989 31.8118C41.3446 31.616 41.3655 31.6049 41.552 31.6049C41.7385 31.6049 42.0641 31.6493 42.0641 31.3646V29.2729C42.0641 29.034 42.0391 28.9576 41.758 28.9576H37.3754C37.0121 28.9576 37.0483 29.1521 37.0483 29.3701V31.2882C37.0483 31.534 37.136 31.6035 37.3545 31.6035H37.7915C37.9585 31.6035 38.0977 31.5715 38.1951 31.866C38.2939 32.159 40.2256 37.7396 40.4441 38.4368C40.6627 39.134 41.3571 39.0687 41.7816 39.0687C42.1546 39.0687 42.3425 39.0632 42.2771 39.2896C42.2117 39.516 41.9166 40.5951 41.545 40.8785C41.1734 41.1618 40.5624 41.2049 40.1477 41.0299C39.733 40.8549 39.2667 40.4299 39.1791 40.3604C39.0914 40.2896 38.9717 40.3007 38.8617 40.4424C38.7532 40.584 37.9474 41.5965 37.7149 41.9243C37.4825 42.2521 37.5396 42.2729 37.7483 42.4701C37.9557 42.666 39.0608 43.7549 41.1901 43.7549C43.4614 43.7549 44.2923 41.8924 44.6848 40.8618C45.0773 39.8312 47.8232 32.291 47.9206 31.9424C48.0194 31.5938 48.128 31.5826 48.3144 31.5826H48.8823C49.1022 31.5826 49.1551 31.4854 49.1551 31.2451V29.2729C49.1592 29.034 49.0896 28.959 48.8419 28.959ZM43.3501 26.1257C43.3292 18.5535 42.2131 12.8035 40.1213 8.50625C38.3691 4.90764 35.9767 2.84375 33.5592 2.84375C30.7994 2.85208 29.9602 5.10347 29.9017 6.29514C29.8544 7.32847 30.4375 8.47847 31.0026 9.59236C31.4396 10.4535 31.8515 11.266 31.8265 11.7882C31.8209 11.9396 31.7096 12.3549 31.409 12.3563C31.125 12.3563 30.3916 11.1701 29.9059 10.384C28.7758 8.55764 27.3687 6.28403 25.597 6.28403C25.0236 6.28403 22.9847 6.59653 20.7997 10.5938C18.9696 13.941 17.8854 18.6604 17.1478 26.1076C17.1589 26.2243 17.2355 26.4451 17.44 26.4451H19.6613C19.9257 26.4451 20.0231 26.2563 20.0356 26.1535C20.5436 21.8604 20.822 19.1743 21.4093 16.8285C22.808 11.234 24.8093 9.69097 25.3563 9.68958C26.034 9.68958 26.6965 10.7854 27.398 11.9451C27.4982 12.1104 27.5998 12.2785 27.7027 12.4465C28.6143 13.9257 29.7305 15.5063 31.473 15.5063C33.2544 15.5021 34.5835 13.7021 34.6628 12.0896C34.7394 10.341 33.9781 9.04097 33.4214 8.09097C33.1027 7.54792 32.8285 7.07847 32.8438 6.74931C32.8675 6.22847 33.2294 6.11875 33.5286 6.11875C34.5515 6.11875 36.2689 7.17986 37.7428 10.1715C40.0475 14.8493 40.5374 21.1924 40.5416 26.1368C40.5555 26.2438 40.6529 26.4465 40.9173 26.4465H43.03C43.2583 26.4451 43.339 26.241 43.3501 26.1257ZM16.5799 38.8118V36.8507C16.5799 36.7035 16.438 36.4854 16.1944 36.4854C16.1054 36.4854 15.6864 36.4826 15.6099 36.4826C15.1952 36.4826 15.0963 36.1021 15.0963 36.1021L11.1062 25.4049C11.1062 25.4049 11.0116 24.9646 10.6289 24.5951C10.2461 24.2243 9.37072 24.2285 9.37072 24.2285H5.89832C5.70904 24.2285 5.57126 24.3924 5.57126 24.5382C5.57126 24.684 5.56013 26.3104 5.56013 26.4854C5.56013 26.6604 5.65059 26.834 5.9693 26.834H6.82661C7.10775 26.834 7.10079 27.0396 6.9811 27.2576C6.86141 27.4757 3.56159 36.1701 3.51844 36.2576C3.39319 36.5215 3.21922 36.484 3.21922 36.484H2.56788C2.2784 36.484 2.2951 36.7674 2.2951 36.7674V38.7451C2.2951 38.7451 2.29371 39.0938 2.63329 39.0938H7.54893C7.86624 39.0938 7.8732 39.0104 7.8732 38.7882V36.7451C7.8732 36.516 7.74516 36.484 7.53779 36.484H6.6596C6.39796 36.484 6.32419 36.3146 6.37151 36.1562C6.391 36.0924 6.67491 35.2868 6.76259 35.0576C6.85027 34.8285 6.89342 34.8174 7.14532 34.8174L10.9865 34.8104C11.3901 34.8104 11.4124 34.9299 11.4667 35.0715C11.521 35.2132 11.7311 35.8007 11.7826 35.9438C11.9287 36.3604 11.7937 36.484 11.6184 36.484H10.7555C10.6247 36.484 10.4396 36.5521 10.4396 36.7882V38.8535C10.4396 39.0174 10.5175 39.0938 10.7889 39.0938H16.335C16.5076 39.0924 16.5799 38.9188 16.5799 38.8118ZM10.3213 32.5757L8.09588 32.5826C7.76882 32.5826 7.8064 32.3882 7.86068 32.2576C7.91496 32.1271 8.86691 29.2632 8.93371 29.0785C8.99912 28.8938 9.18422 28.7729 9.29278 29.0354C9.40134 29.2965 10.4173 32.0854 10.4841 32.2382C10.5495 32.3896 10.5398 32.5757 10.3213 32.5757ZM25.3897 24.5382V26.6313C25.3897 26.7771 25.4648 26.8438 25.6652 26.8438H26.0619C26.3402 26.8438 26.3569 26.9257 26.3569 27.2201V36.0799C26.3569 36.4729 26.3235 36.4826 26.0452 36.4826H25.4718C25.1684 36.4826 25.128 36.5854 25.128 36.8479V38.7437C25.128 39.0201 25.2421 39.0924 25.5219 39.0924H28.9122C29.2086 39.0924 29.2392 38.9729 29.2392 38.7771V38.1715C29.2392 37.9757 29.48 38.0896 29.608 38.2313C29.7361 38.3729 30.2274 39.0049 31.8877 39.1507C33.2461 39.2688 34.7491 38.9076 35.6329 37.7632C36.3107 36.8854 36.834 36.041 36.834 33.7965C36.834 31.5521 35.786 30.1354 34.7269 29.4924C33.6678 28.8493 32.2565 28.7188 31.3561 28.959C30.5475 29.1757 29.8293 29.7493 29.7263 29.8729C29.6261 29.9951 29.4313 30.091 29.4313 29.884V24.5771C29.4313 24.3049 29.3116 24.2285 29.1418 24.2285H25.6666C25.4092 24.2285 25.3897 24.3257 25.3897 24.5382ZM29.5607 34.0674C29.5607 32.716 30.162 31.6063 31.5648 31.6063C32.9677 31.6063 33.5689 32.7493 33.5689 34.1451C33.5689 35.5424 32.6949 36.434 31.505 36.434C30.315 36.434 29.5607 35.4188 29.5607 34.0674ZM18.0858 36.241C18.0858 36.241 18.1095 36.4826 17.948 36.4826H17.3913C17.1464 36.4826 17.1492 36.6132 17.1492 36.7201V38.8701C17.1492 38.8701 17.1199 39.0938 17.4317 39.0938H22.2026C22.3557 39.0938 22.4976 39.0062 22.4976 38.7785V36.7396C22.4976 36.5215 22.4865 36.4562 22.2137 36.4562H21.7767C21.5693 36.4562 21.4385 36.4674 21.4385 36.2604V34.5938C21.4385 33.8535 21.6946 33.4007 22.0829 33.0132C22.4712 32.6257 23.2172 32.1924 23.9687 32.1285C24.6785 32.0688 24.9972 32.1451 25.3103 32.1743C25.5066 32.1924 25.6165 32.1007 25.6165 31.9451V29.1771C25.6165 29.0132 25.5734 28.8535 25.2338 28.8174C24.8942 28.7813 23.5345 28.9604 22.4976 29.6674C21.6 30.2813 21.2089 31.3021 21.1323 31.4104C21.0558 31.5201 20.925 31.5632 20.925 31.3771V29.3174C20.925 29.1104 20.854 28.959 20.609 28.959H17.4303C17.2341 28.959 17.1464 28.9646 17.1464 29.2257V31.3438C17.1464 31.5618 17.3649 31.5618 17.3649 31.5618C17.3649 31.5618 17.6168 31.5729 17.813 31.5729C18.0093 31.5729 18.0858 31.6271 18.0858 31.8563V36.241ZM11.4291 45.8632C11.3818 46.9618 11.7951 47.9771 12.6608 48.8785C13.9843 50.2576 16.4074 51.3868 19.6668 52.1438C22.4795 52.7965 25.8462 53.1563 29.1446 53.1563H29.2657C33.2697 53.1438 39.0496 52.7104 43.8442 50.709C47.2581 49.2854 49.0966 47.5257 49.3471 45.4965C49.5267 44.0437 49.1411 42.7549 47.3597 41.9076C47.3597 41.9076 47.2122 41.8924 47.1301 42.0382C46.7794 42.6549 46.4356 43.2132 45.9346 43.8632C45.7481 44.1049 45.968 44.2771 45.968 44.2771C46.6068 44.7715 46.6847 45.441 46.1531 46.0771C45.6813 46.6396 45.0049 47.4257 42.188 48.541C39.8652 49.4604 35.7679 50.5618 29.4466 50.5785H29.3227C21.966 50.5785 16.4241 48.8104 14.7526 47.0646C14.4033 46.6993 14.2335 46.3451 14.2474 46.0118C14.2919 44.966 15.7477 44.3854 18.3475 44.3757H18.3934C19.0948 44.3757 19.799 44.4229 20.4963 44.5063C21.0182 44.5701 21.5206 44.6493 22.0036 44.741C23.1183 44.9535 24.2011 45.2451 25.2185 45.5729V45.5701C26.6868 46.0507 27.8308 46.5618 28.599 46.8854C29.0402 47.0715 29.3311 47.1937 29.4925 47.2424C29.7472 47.3187 29.9894 47.3507 30.2107 47.3368L30.2232 47.3354C30.8425 47.2938 31.3241 46.8799 31.4465 46.2799C31.5551 45.759 31.395 45.1938 30.7938 44.9146C29.2086 44.1799 26.382 42.9993 23.046 42.2382C22.1107 42.0187 21.1769 41.8438 20.2653 41.7326C20.2611 41.7326 20.2555 41.7313 20.2514 41.7313C19.5499 41.6465 18.861 41.5993 18.1985 41.5993H18.161C14.1235 41.6118 11.5446 43.2451 11.4291 45.8632Z" fill="white"></path>
<g id="Registered TM">
<path id="Vector_4" d="M61.8628 28.6868C61.2323 28.6868 60.7188 29.1979 60.7188 29.8312C60.7188 30.4562 61.2295 30.9632 61.8572 30.9632C62.4877 30.9632 63.0012 30.452 63.0012 29.8187C62.9998 29.1951 62.489 28.6868 61.8628 28.6868ZM61.8558 30.7312C61.352 30.7312 60.9567 30.3354 60.9567 29.8257C60.9567 29.3173 61.3534 28.9201 61.8614 28.9201C62.3652 28.9201 62.7604 29.3159 62.7604 29.8257C62.7618 30.3326 62.3638 30.7312 61.8558 30.7312Z" fill="black"></path>
<path id="Vector_5" d="M61.3953 29.2131H61.9074C62.0633 29.2131 62.183 29.2576 62.2637 29.3381C62.3263 29.4006 62.3597 29.4881 62.3597 29.5895V29.5951C62.3597 29.7798 62.2581 29.8965 62.1106 29.9506L62.3918 30.3631H62.0953L61.8504 29.9923H61.8448H61.65V30.3631H61.3953V29.2131ZM61.9046 29.7756C62.0327 29.7756 62.1023 29.7062 62.1023 29.6117V29.6062C62.1023 29.4965 62.0243 29.4381 61.8991 29.4381H61.65V29.7756H61.9046Z" fill="black"></path>
</g>
</g></svg>