<svg version="1.1" id="Layer_1" xmlns="http://www.w3.org/2000/svg" xmlns:xlink="http://www.w3.org/1999/xlink" x="0px" y="0px" viewBox="0 0 183.6 134.9" style="enable-background:new 0 0 183.6 134.9;" xml:space="preserve">
 <style type="text/css">
  .st0{fill:#EE2E24;}
	.st1{fill:#FFFFFF;}
	.st2{fill:#15487C;}
 </style>
 <g>
  <path class="st0" d="M91.9,0C41.2,0,0,30.2,0,67.4c0,37.2,41.1,67.5,91.7,67.5c50.6,0,91.8-30.2,91.9-67.4
		C183.6,30.4,142.5,0.1,91.9,0">
  </path>
  <path class="st1" d="M4.4,67.4c0,34.8,39.2,63.1,87.4,63.1c48.2,0.1,87.5-28.2,87.5-62.9c0-34.8-39.2-63.1-87.4-63.1
		C43.6,4.4,4.4,32.6,4.4,67.4">
  </path>
  <path class="st2" d="M7.3,67.4c0-33.1,38-60.1,84.6-60c46.6,0.1,84.5,27,84.5,60.2c0,33.1-38,60.1-84.6,60
		C45.1,127.5,7.2,100.5,7.3,67.4">
  </path>
  <path class="st1" d="M68.1,19.9c-0.3-0.1-0.7-0.2-1.1-0.1c-0.3,0.1-0.6,0.3-0.5,0.6c0.1,0.3,0.5,0.3,0.8,0.3l0.4,0
		c0.9,0,1.6,0.2,1.8,1.1c0.1,0.5,0.1,1.1-0.3,1.6c-0.4,0.5-1,0.8-1.5,0.9c-0.7,0.2-1.5,0.1-2.2-0.1l0.4-1.3c0.4,0.2,1,0.4,1.5,0.2
		c0.4-0.1,0.7-0.3,0.6-0.7c-0.1-0.4-0.7-0.4-1.1-0.4c-1,0-1.7-0.1-1.9-1.1c-0.3-1.1,0.4-2,1.6-2.3c0.6-0.1,1.4-0.1,1.9,0L68.1,19.9z
		">
  </path>
  <polygon class="st1" points="73.4,23 71.9,23.2 70.9,17.9 72.5,17.6 	">
  </polygon>
  <polygon class="st1" points="74.9,17.1 76.5,16.9 79.7,19.9 79.7,19.9 79.3,16.6 80.9,16.4 81.5,21.8 80,22 76.8,19 76.7,19 
		77.1,22.4 75.6,22.5 	">
  </polygon>
  <path class="st1" d="M87.8,17.8c-0.3-0.4-0.9-0.6-1.4-0.5c-0.9,0-1.6,0.7-1.5,1.6c0,0.9,0.7,1.4,1.7,1.4c0.5,0,1-0.3,1.3-0.6
		l0.1,1.7c-0.5,0.2-0.9,0.3-1.4,0.3c-0.8,0.1-1.6-0.2-2.3-0.7c-0.7-0.5-1-1.2-1.1-2c0-0.7,0.2-1.5,0.8-2c0.6-0.6,1.4-1,2.2-1
		c0.5,0,1,0,1.4,0.2L87.8,17.8z">
  </path>
  <polygon class="st1" points="91.7,17.1 91.7,18 93.5,18 93.5,19.2 91.7,19.2 91.7,20.2 93.6,20.2 93.6,21.4 90.2,21.4 90.2,15.9 
		93.6,15.9 93.6,17.1 	">
  </polygon>
  <polygon class="st1" points="100.9,17.5 101,16.3 103.4,16.5 102.9,21.9 101.3,21.8 101.7,17.6 	">
  </polygon>
  <path class="st1" d="M107.3,18.8c-0.1,0.5,0.3,1,0.8,1c0.5,0.1,1-0.2,1.1-0.7c0.1-0.5-0.3-1-0.9-1C107.9,18,107.4,18.3,107.3,18.8
		 M106.3,22.3l2-1.6l0,0c-0.3,0.1-0.5,0.1-0.9,0c-1.2-0.2-1.8-1.2-1.6-2.2c0.2-1.3,1.5-1.9,2.8-1.7c0.6,0.1,1.2,0.3,1.6,0.7
		c0.4,0.4,0.7,1,0.6,1.6c-0.1,0.8-0.7,1.5-1.3,2l-1.5,1.3L106.3,22.3z">
  </path>
  <path class="st1" d="M114.8,19.6l-0.2,0.6l0.5,0.1c1.2,0.2,1.9,1.3,1.7,2.4c-0.1,0.5-0.5,1-1.1,1.3c-0.5,0.2-1.2,0.2-1.8,0.1
		c-0.7-0.1-1.3-0.4-1.8-0.9l0.5-1.3c0.4,0.5,0.9,0.8,1.5,1c0.5,0.1,1-0.1,1.1-0.6c0.1-0.6-0.5-1.1-1.1-1.2c-0.4-0.1-0.8-0.1-1.2,0
		l1.1-2.8l3,0.7l-0.3,1.2L114.8,19.6z">
  </path>
  <path class="st1" d="M122,24c0.1-0.5-0.2-1-0.7-1.1c-0.5-0.2-1.1,0.1-1.2,0.6c-0.1,0.5,0.2,1,0.7,1.2C121.4,24.7,121.9,24.5,122,24
		 M123.6,20.6l-2.1,1.3l0,0c0.3,0,0.5,0,0.8,0.1c1.1,0.3,1.6,1.4,1.3,2.4c-0.4,1.3-1.7,1.6-3,1.2c-0.6-0.2-1.2-0.5-1.5-0.9
		c-0.4-0.5-0.5-1.1-0.4-1.7c0.2-0.8,0.9-1.4,1.5-1.8l1.7-1.1L123.6,20.6z">
  </path>
  <path class="st1" d="M87.1,112.5c0,2.7-0.1,3.1-0.3,3.3c-0.4,0.3-1.4,0.7-2.2,0.1c-0.8-0.5-1.1-1.7-1.1-3.8c0-1.2,0.1-2.7,0.4-4.4
		c-1.2-0.1-2.9-0.1-3.8,0c-0.2,0.8-0.6,3.2-0.6,5.5c0,1.8,0.2,3.6,1,4.7c0.6,0.9,1.5,1.3,2.8,1.2c0,0,1.5,0.1,2.7-0.7l1-0.5
		c0,0,0,1,0.1,1.1c0.6,0.1,3.3,0,3.3,0c0,0,0.3-10.4,0.3-11.3c-0.9-0.1-2.8-0.1-3.7,0C87.1,109.8,87.1,111.4,87.1,112.5">
  </path>
  <path class="st1" d="M77.4,116.8c0.5-2.3-1.3-3.7-3.9-4.9c-0.8-0.4-1.6-0.7-1.4-1.6c0.3-1.5,2.9-0.8,4-0.4c0.2-0.5,0.4-1.7,0.4-2.3
		c0-0.1-7.4-1.7-8.2,2c-0.5,2.4,1.5,3.5,3.4,4.3c1.4,0.6,2.2,1.3,1.9,2.3c-0.4,1.2-3.4,0.7-4.5,0.1c-0.3,0.5-0.6,1.6-0.6,2.3
		C71.2,120.1,76.7,120.1,77.4,116.8">
  </path>
  <path class="st1" d="M114.6,116.9c0.5-2.3-1.3-3.7-3.9-4.9c-0.8-0.4-1.6-0.7-1.4-1.6c0.3-1.5,2.9-0.8,4-0.4
		c0.2-0.5,0.4-1.6,0.4-2.3c0-0.1-7.4-1.7-8.2,2c-0.5,2.5,1.5,3.5,3.4,4.4c1.4,0.6,2.2,1.3,1.9,2.3c-0.4,1.2-3.4,0.8-4.5,0.1
		c-0.3,0.5-0.6,1.7-0.6,2.3C108.4,120.1,113.9,120.1,114.6,116.9">
  </path>
  <path class="st1" d="M97.3,117c-0.1-0.1-0.1-2.1,0.1-2.3c0.7-0.6,3.1-0.8,3.1,0.9C100.5,117.2,97.5,117.2,97.3,117 M97.2,112.3
		c-0.1-0.1-0.1-2.3,0.1-2.3c0.6-0.2,2.6-0.3,2.5,0.9C99.8,112.1,97.3,112.4,97.2,112.3 M104.1,115.2c-0.1-2.1-2.5-2.4-2.4-2.5
		c0-0.1,2-1.1,1.4-3.2c-1-3.4-8.9-1.5-9.2-1.4c0,0.6-0.1,11.2-0.1,11.2c0,0,3.9,0.5,6.8-0.1C102.1,118.9,104.2,117.7,104.1,115.2">
  </path>
  <path class="st1" d="M86.1,39.2C86.2,39.3,86.2,39.3,86.1,39.2c0,0.1,0.1,0.1,0.1,0.2C86.2,39.3,86.2,39.3,86.1,39.2 M132.8,66.5
		c0,0.3,0,0.5,0,0.7c0,0.4,0,0.9,0.1,1.3c-0.1-0.1-0.1-0.3-0.2-0.4c-1.1-2.1-3.4-3.9-5.9-4.2c2.6-0.6,5-1.7,7.2-3.3
		c0.5,0.3,0.9,0.6,1.4,0.9C133.9,62.9,133,64.5,132.8,66.5 M132.1,58.8C132.1,58.8,132.2,58.8,132.1,58.8
		C132.2,58.8,132.2,58.8,132.1,58.8L132.1,58.8z M118.8,70.9c0.1,2,0.9,4.2,3.1,5.6c-0.4,0-0.8-0.1-1.3,0c-2.6,0.1-5.1,1.2-7.4,3
		c-0.4-2.2-1.6-4-3.3-5.1c-2.3-1.4-4.7-1.9-7.2-1.5c0.5-1.9,1-3.7,1.4-4.8c0.3-0.8,0.4-1.5,0.4-2.1c0-1-0.3-1.7-0.6-2.3
		c3.7-0.4,6.4-2.2,8.2-4.5c2.3,3.3,6.3,5.3,11,5.3c0.1,0,0.2,0,0.3,0c-1.2,0.4-2.1,1.1-2.7,1.6c-1.2,1.1-1.8,3.3-1.8,4.8
		C118.8,70.8,118.8,70.8,118.8,70.9 M88.9,65.9c-0.3,1.4-0.6,2.9-0.8,4.6c-0.2-0.2-0.4-0.5-0.6-0.7c-1.6-1.5-3.6-2.3-5.8-2.3
		c-3.9,0-7.1,2.6-8,6.1c-0.7-3.8-1.3-6.6-1.3-6.6v0c-0.2-1.1-0.6-2.1-1.1-2.8c1.6-0.4,3.2-0.9,4.6-1.6c0,0,0.1-0.1,0.1-0.1
		c1.6-0.8,3.2-2.1,4.5-3.5c0.2,0.5,0.5,1,0.8,1.4c1.6,2.3,4.2,3.6,7.2,3.7c0.4,0,0.8,0,1.2,0C89.4,64.5,89.1,65.1,88.9,65.9
		 M56.3,65.7c-0.1,0.5-0.5,1.8-1,3.4c-0.4-1.3-1-3.3-1-3.3c-0.7-2.3-1.9-3.4-3.2-3.8c1.4-1,2.6-2.2,3.5-3.6c1,1.6,2.4,2.9,4.1,4
		C57.7,62.9,56.9,63.9,56.3,65.7 M154.1,66.8c2.9-0.9,3.5-3.6,3.5-5.4c0-0.1,0-0.3,0-0.4c0-0.5-0.2-1.7-1.5-2.4
		c0.6-3.5,1.3-9.5,1.4-13.7c0-0.9,0-1.7-0.1-2.4c-0.1-0.6-0.5-2.4-3-3c-1.4-0.3-6.5-0.2-9.3,1.1c-0.8-1.9-3.1-2.1-3.9-2.1
		c-1.7-0.1-3.8,0.1-4.6,0.2c-2.4,0.3-4,0.6-4.7,2.1c-0.2,0.5-0.4,1-0.5,1.5c-0.3-0.4-0.6-0.7-0.9-1c-2-1.8-4.6-2.7-7.4-2.6
		c-3.5,0.2-6.9,2-9.7,5.1c-0.7,0.8-1.3,1.6-1.8,2.5c-0.1-0.1-0.1-0.2-0.2-0.3c0,0,0,0,0,0c0,0-0.1-0.1-0.1-0.1c0,0,0.1,0.1,0.1,0.1
		c-1.6-2.3-2.1-3.5-1.8-4.7l0,0c0.3-1.5,0.5-3.4-0.7-4.8c-0.8-0.9-2-1.4-3.5-1.4c0,0-5.3,0-5.3,0c-4.2,0-6.1,4.6-6.7,8.1
		c-0.8-0.7-1.9-1-3.1-1l-0.9,0.1c-1,0.1-2.2,0.1-2.7-0.1c0,0,0,0,0,0c0-0.1,0-0.2,0-0.3c0-0.2,0.1-0.5,0.1-0.9
		c0-0.5-0.1-1.1-0.4-1.6c-0.3-0.7-1.1-1.6-2.6-1.9c-0.5-0.1-2-0.3-3.7-0.3c-1.9,0-3.5,0.2-3.8,0.3c-0.7,0.1-2.1,0.5-2.9,1.5
		c-0.5,0.6-0.7,1.3-0.7,1.9c-1.9-1.4-4.1-2.1-6.5-2c-3,0.1-5.9,1.5-8.4,3.8c-0.1-5.3-0.3-9.4-0.5-11.6l0-0.4
		c-0.1-0.9-0.2-2.2-1.1-3.3c-1.4-1.7-3.6-1.7-4.3-1.7l-6.7,0.7c0.1,0,0.2,0,0.3,0c-1.2-0.1-3,0.3-4.1,1.7c-1.2,1.5-0.9,3.5-0.7,4.8
		l0.3,1.3c2.2,10.6,1.5,12.5,1.1,14c-0.3,0.9-1.3,1.1-1.7,1.1c-1.1,0.1-3.5-1.1-5.1-2.2c-0.7-0.5-1.8-1.1-3.4-0.8
		c-1.9,0.2-2.6,1.9-2.8,2.4l0,0.1c-0.1,0.2-1,2.2-2.6,5.8c-0.2,0.4-0.5,1.1-0.5,2c0,0.4,0.1,0.8,0.3,1.3c0.5,1.4,2.1,2.6,2.2,2.6
		c0.6,0.5,5.1,3.7,11,4.3c-0.3,0.6-0.6,1.3-0.7,2.2c0,0-5.6,27.8-5.6,27.8c-0.3,1.4-0.7,3.4,0.7,5c0.9,1,2.3,1.5,4.1,1.5l6.1,0
		c3.3,0,4.5-1.8,5.3-4.6c0.1-0.2,0.1-0.4,0.2-0.6c0,0,0.1,0.2,0.1,0.2c1.1,2.7,4.2,2.7,5.5,2.7l1,0c1.3,0,4.4,0,5.5-2.8
		c0,0,0-0.1,0.1-0.2c0,0,0.1,0.4,0.1,0.4c0.8,3.3,2.4,4.7,5.4,4.7l6,0c1.6,0,2.9-0.4,3.8-1.2c0.9,0.8,2.2,1.2,3.8,1.2l3.4,0
		c2.3,0,3.8-0.8,4.5-2.5c0.6,1.3,1.9,2.4,4.5,2.4l0.2,0c0,0,1.7,0.1,1.7,0.1l1.1,0c1.1,0,2.1-0.5,3-1.3c0.3-0.3,0.5-0.5,0.7-0.8
		c2.6,1.9,5.9,3.8,9.3,3.8c2.9,0,4-1.5,4.6-2.7c0,0,0.1-0.2,0.1-0.3c2,1.1,4.4,1.7,7,1.7c4,0,7-1.3,9-2.4c1.5,1.1,3.8,2.2,7.1,2.1
		c5.8,0,9.5-3,11.1-6.5c2.2,0.1,4.5-0.6,5.7-1.5c2-1.5,1.9-3.1,1.6-4.8l0,0c-0.6-4-3.8-3.8-4.9-3.7l-0.6,0c-1.5,0-2.9-0.1-3.8-1.1
		c-1.1-1.7-1.8-3.2-1.8-4.4c0-0.2,0-0.4,0.1-0.6c0.1-0.6,0.2-1.3,0.2-2c0-0.6-0.1-1.1-0.3-1.6C151.3,74.7,153.2,70,154.1,66.8
		 M76,37.4C76,37.4,76.1,37.4,76,37.4C76.1,37.4,76,37.4,76,37.4">
  </path>
  <path class="st1" d="M147.2,78l0.5,0c0.2,0,0.3-0.1,0.3-0.3c0-0.2-0.3-0.2-0.5-0.3l-0.3,0L147.2,78z M146.7,77l0.9,0
		c0.7,0,1,0.2,1,0.7c0,0.5-0.3,0.6-0.6,0.6l0.5,1l-0.6,0l-0.5-0.9l-0.2,0l0,0.9l-0.6,0L146.7,77z M147.6,79.8c0.9,0,1.5-0.7,1.5-1.6
		c0-0.9-0.7-1.6-1.5-1.6c-0.9,0-1.6,0.7-1.6,1.6C146,79.1,146.7,79.8,147.6,79.8 M147.6,75.8c1.3,0,2.3,1.1,2.3,2.3
		c0,1.3-1,2.3-2.3,2.3c-1.3,0-2.3-1-2.3-2.3C145.3,76.9,146.3,75.8,147.6,75.8">
  </path>
  <path class="st0" d="M69.4,67.7c-0.3-2-1.4-3.1-2.8-3.1l-5.5,0c-1.1,0-1.7,0.7-2.2,2.2c-0.4,1.4-3.6,12.3-3.7,12.4l-0.1,0.4
		l-3.8-12.8c-0.5-1.5-1.1-2.2-2.2-2.2l-5.4,0c-1.4,0-2.4,1.2-2.8,3.1l-5.6,28c-0.3,1.2-0.4,2.2,0.1,2.7c0.3,0.4,0.9,0.6,1.9,0.6
		l6.2,0c1.2,0,1.8-0.1,2.6-2.6c0.6-2,1.1-4.3,1.5-6.1l0.7-2.9c0,0,3.6,8.4,3.6,8.4c0.3,0.7,1,1,2.8,1l1,0c1.8,0,2.5-0.3,2.8-1
		l3.6-8.4l2.2,9c0.6,2.4,1.3,2.6,2.6,2.6l6.1,0c0.9,0,1.5-0.2,1.9-0.6c0.5-0.5,0.3-1.5,0.1-2.7L69.4,67.7z M81.6,80.9
		c2.9,0,5.3-2.4,5.4-5.2c0-1.4-0.6-2.7-1.6-3.7c-1-1-2.3-1.5-3.7-1.5c-2.9,0-5.3,2.4-5.3,5.2c0,1.4,0.6,2.7,1.6,3.7
		C78.8,80.4,80.2,80.9,81.6,80.9 M84.7,83L79,83c-0.7,0-1.3,0.1-1.7,0.5c-0.4,0.4-0.6,1.2-0.5,2.5c0.1,2.3,0.5,5.3,0.7,7.7l0.3,2.9
		c0.2,2.1,1.2,2.3,2.5,2.3l3.5,0c1.3,0,2-0.1,2.3-2.3c0.2-2.1,0.6-7.1,0.8-10.7c0.1-1.3-0.1-2-0.5-2.4C86.1,83,85.5,83,84.7,83
		 M137.8,87.5c-0.3-0.5-0.7-1-0.8-1.6l-0.3,0c0.1,1.8-0.8,4.6-1.7,5.6l-0.1,0.1l0.2,0.1c0.9,0.4,1.8,0.4,2.5,0.1
		c0.6-0.2,1-0.7,1.2-1.3C139.1,89.4,138.4,88.4,137.8,87.5 M118.5,87.7c1.8,0,3.6-1.4,3.9-2.5c0.1-0.5-0.1-1-0.6-1.2
		c-0.6-0.3-1.2-0.2-1.8,0.2c-1,0.7-1.8,2.3-1.6,3.4l0,0.1L118.5,87.7z M152.3,89.3c0.1,0.4,0.1,0.7,0.1,1c0,0.6-0.2,0.9-0.7,1.3
		c-0.9,0.7-3.8,1.5-5.6,0.4l-0.2-0.1l0,0.2c-0.5,3.3-3.5,6.9-9.1,6.9c-3.6,0-5.6-1.5-6.6-2.8l-0.1-0.1l-0.2,0.1
		c-1.6,1-4.6,2.9-9.2,2.9c-3.6,0-6.6-1.4-8.4-3.9l-0.2-0.3c-2.3-3.5-1.9-8.3,1.1-11.6c2.2-2.5,4.9-4,7.5-4.1
		c1.9-0.1,3.8,0.5,5.1,1.8c1.6,1.5,1.5,3.2,1.2,4.5c-0.7,2.8-3.5,5.4-6.5,6.1l-0.1,0l0,0.1c0,0.4,0.2,0.7,0.6,1
		c1.1,0.6,3.5,0.4,5.6-0.9c2.8-1.7,4-5.9,4.1-8.3c0.1-2.5,1.3-7.9,4-8l5.2,0c0.6,0,1,0.1,1.3,0.4c0.3,0.4,0.3,1.2,0.1,2.5
		c-0.5,2.6,0.9,5.4,2.2,7.3c1.9,2.4,4.8,2.3,6.2,2.3l0.7,0C151.6,87.9,152.1,87.9,152.3,89.3 M103.4,83.6c0-0.2,0-0.3-0.1-0.5
		c-0.1-0.4-0.5-0.6-0.9-0.7c-0.6-0.1-1.2,0.1-1.7,0.5c-1.4,1.1-2,3.5-2.1,4.8l0,0.1l0.1,0c1.7,0,3-1.2,3.8-2.1
		C103,85.1,103.4,84.3,103.4,83.6 M109.8,94.6c1,0.1,1.8,0.3,2.2,1c0.3,0.5,0.1,0.9,0,1.1c-0.2,0.8-0.7,1.9-1.1,2.6l-0.1,0.2
		c-0.3,0.6-0.5,1.1-1.9,1.1c-4.3,0-9-4.4-11-6.3l-0.4-0.4l0,3.3c0,0.4-0.2,0.9-0.6,1.2c-0.3,0.3-0.6,0.4-0.9,0.4l-0.9,0l-1.9-0.1
		l-0.2,0c-0.9,0-1.8,0-2-1.5c-1.1-6.8-1.2-22,0.8-30.6c0.5-2,1.8-2.2,4.6-2.2l3.1,0c0.9,0,1.6,0.3,1.9,0.7c0.4,0.5,0.4,1.2,0,2.2
		c-0.7,1.9-2.1,7.2-2.3,10.2l0,0.3l0.2-0.2c3.1-2.4,6.2-2.7,9.1-0.8c1.3,0.9,2.1,2.5,2.2,4.5c0.1,3.7-2,7.5-5.8,10.3l-0.1,0.1l0,0.1
		C105.1,92.9,107.8,94.5,109.8,94.6 M125.4,74.7L125.4,74.7c0.9,0.2,1.3,1.2,1.1,2.1c0,0.2,0.1,0.5,0.3,0.6c0.4,0.2,1.2,0,1.8-0.8
		c1.7-2.2,2.1-5.3,1-7.3c-0.5-1-1.5-2.1-3.6-2.1c-1.6,0-2.6,0.6-3.2,1.2c-0.8,0.8-1.1,1.7-1.1,2.3C121.8,71.6,122.3,74,125.4,74.7
		 M103.9,51.7c0-0.8-0.5-1.6-1-2.4c-0.3-0.5-0.7-1-0.9-1.6l-0.3,0.1c0.1,1.9-0.8,4.7-1.8,5.6l-0.1,0.1l0.2,0.1
		c0.9,0.4,1.8,0.4,2.5,0.1c0.6-0.2,1-0.7,1.2-1.3C103.8,52.2,103.9,51.9,103.9,51.7 M63.7,50.1c1.8,0,3.7-1.4,3.9-2.5
		c0.1-0.5-0.1-1-0.6-1.2c-0.6-0.3-1.2-0.2-1.8,0.2c-1,0.7-1.8,2.4-1.7,3.5l0,0.1L63.7,50.1z M108.8,47.6c1.9,2.4,2.7,4.6,2.3,6.4
		c-0.5,3.4-3.6,7-9.3,7c-3.5,0-5.3-1.4-6.5-2.5l-0.1-0.1l-0.1,0.1c-1.4,1.7-4.1,2.8-6.6,2.7c-1.4,0-3.4-0.5-4.9-2.5
		c-1.6-2.2-0.6-5.1,0.1-6.6c0.4-0.9,0.8-1.9,0-2.3c-0.3-0.1-0.5-0.1-0.7,0c-0.5,0.2-0.9,1-1.1,1.5l-0.1,0.2c-1.7,4-4.2,7-7.2,8.6
		c0,0-0.1,0.1-0.1,0.1c-2.7,1.3-5.7,2-8.7,1.7c-4.6-0.4-8-2.6-9.5-6.1c-1.4-3.3-0.6-7.1,1.9-9.9c2.3-2.5,5-4,7.7-4.1
		c2-0.1,3.8,0.5,5.2,1.8c1.6,1.5,1.6,3.3,1.2,4.5c-0.8,2.8-3.6,5.4-6.6,6.2l-0.1,0v0.1c0,0.4,0.2,0.7,0.5,0.9
		c1.1,0.6,3.6,0.3,5.8-0.8c1.6-0.8,2.5-2.3,2.5-2.3c2.2-3.8,0.8-10.2,0.7-10.4c-0.1-0.2-0.2-0.8,0.1-1.1c0.2-0.3,0.8-0.4,1.1-0.4
		c0,0,1.5-0.3,3.2-0.2c1.8,0,3,0.2,3.2,0.2l0.1,0c0.2,0,0.4,0.1,0.5,0.3c0.1,0.2,0.1,0.6,0.1,0.9c-0.1,0.4-0.4,2.7,1.5,3.3
		c1.2,0.6,2.8,0.5,4.3,0.4l0.8-0.1c0.8,0,1.3,0.3,1.6,1c0.3,0.6,0,1.2-0.3,1.8c-0.3,0.6-3.2,5.9-1.9,7.5c0.3,0.4,0.9,0.6,1.8,0.4
		c2.8-0.6,4.4-7.5,4.4-10.2c0-2.7,1.4-7.5,4-7.5l5.3,0c0.7,0,1.1,0.1,1.3,0.4c0.3,0.4,0.4,1.2,0.1,2.5
		C106.1,43.1,107,45.1,108.8,47.6 M144.4,64.8l0-0.1l-0.2,0c-1.8,0.1-3.6,1-4,2c-0.2,0.4-0.1,0.8,0.2,1.2c0.4,0.5,1,0.6,1.7,0.4
		C143.2,67.8,144.4,66.4,144.4,64.8 M120.8,50c1.8,0,3.7-1.4,4-2.5c0.1-0.5-0.1-1-0.6-1.2c-0.6-0.3-1.2-0.2-1.8,0.2
		c-1,0.7-1.8,2.3-1.7,3.5l0,0.1L120.8,50z M154.6,61.1c0.1,3-1.4,3.1-2.3,3.2c-0.4,0-0.6,0.1-0.7,0.3l-0.1,0.5
		c-0.9,3.4-1.9,7.7-9.6,7.4c-2.2-0.1-4-0.7-5.1-1.9c-0.9-1-1.3-2.3-1.2-3.9c0.4-4.1,5.8-5.5,9.1-6l0,0l0,0c0,0,0.3-1.8,0.2-1.9
		l-0.1-0.1l-0.1,0c-0.7,0.3-7.1,2.7-10.4-1.7l-0.2-0.2l-0.1,0.1c-3.1,3-7.1,4.7-11.2,4.7c-4.3,0-7.7-1.9-9.3-5.2
		c-1.7-3.5-1-7.7,1.7-10.7c2.3-2.5,5-4,7.7-4.1c2-0.1,3.8,0.5,5.2,1.8c1.6,1.5,1.6,3.3,1.2,4.5c-0.8,2.8-3.6,5.5-6.6,6.2l-0.1,0v0.1
		c0,0.4,0.2,0.7,0.6,0.9c1.1,0.7,3.7,0.3,5.8-0.8c2.5-1.3,3.5-3.3,3.6-4.5l0.1-1c0.3-2.3,0.6-4.6,1.5-6.8c0.3-0.3,5.7-1,7.4-0.5
		c0.3,0.1,0.4,0.2,0.5,0.2c0.1,0.4-0.1,1.4-0.4,2.6c-0.6,2.8-1.4,7.1,0.1,9.1c0.4,0.4,0.9,0.6,1.4,0.6c0.5,0,1-0.2,1.3-0.7
		c0.5-0.4,0.6-3.2,0.9-6.7c0.1-1.6,0.2-3.2,0.3-3.4c0.3-0.4,5.9-1.5,7.9-0.9c0.4,0.1,0.6,0.3,0.6,0.5c0.5,4.7-1.2,15.8-1.7,17.7
		c0,0.1,0,0.1,0,0.2c0.1,0.1,0.3,0.1,0.8,0.1C154,60.8,154.6,60.8,154.6,61.1 M31.2,49.9c0.1-0.3,0.3-0.7,0.7-0.8
		c0.5-0.1,0.8,0,1.2,0.3c0.4,0.3,4.2,2.9,6.9,2.7c1.7-0.1,3.6-1,4.3-3.1c1.1-3.8-0.3-11.6-1-15.3l-0.2-1.2c-0.1-1-0.3-2.1,0.2-2.8
		c0.5-0.7,1.4-0.6,1.5-0.6c0,0,6.7-0.7,6.7-0.7c0.7,0,1.5,0.1,2,0.7c0.3,0.4,0.4,1,0.4,1.7l0,0.4c0.3,3.6,1.1,14.4,0.1,20.3
		c-1,5.8-3.9,8.9-9.7,10.2c-6,1.4-12-1.5-14.7-3.4c-0.5-0.3-1.1-1-1.3-1.4c-0.2-0.5,0.2-1.1,0.2-1.1c0-0.1,2.4-5.5,2.6-5.7
		L31.2,49.9z">
  </path>
 </g>
</svg>