<svg width="120" height="80" fill="none" xmlns="http://www.w3.org/2000/svg" xmlns:xlink="http://www.w3.org/1999/xlink">
 <g clip-path="url(#clip0)" fill-rule="evenodd" clip-rule="evenodd">
  <path d="M74.7 76.21c1.932-.673 3.827-1.502 5.594-2.507a50.798 50.798 0 003.765-2.203c9.945-6.413 17.49-14.6 22.999-20.575 1.597-1.733 2.977-3.228 4.229-4.488 2.12-2.134 5.127-4.495 5.157-4.518l2.64-2.072-2.64-2.069c-.03-.023-3.036-2.386-5.155-4.518a95.086 95.086 0 01-2.078-2.168l.214-.932 3.957-16.887-1.899-.916C99.517 6.605 85.53 3.211 73.685 3.15l-.04-.007C68.63 1.556 63.444.967 59.543 1.011 53.853.948 45.426 2.225 38.79 6a49.816 49.816 0 00-3.765 2.2c-9.95 6.413-17.497 14.601-23.008 20.579-1.594 1.73-2.97 3.223-4.221 4.48-2.12 2.132-5.126 4.495-5.156 4.518L0 39.846l2.64 2.07c.031.026 3.037 2.387 5.154 4.52a97.093 97.093 0 012.069 2.154l-.18.836-.88 3.748-3.08 13.14 1.903.916c11.09 5.335 23.927 8.642 35.178 9.145l2.472.13c5.065 1.633 10.324 2.232 14.264 2.187 4.112.046 9.653-.607 14.915-2.399l.244-.083z" fill="#FEFDFB">
  </path>
  <path d="M109.703 35.194c-5.803-5.84-14.444-16.801-26.977-24.879a48.883 48.883 0 00-3.652-2.132C73.15 4.812 65.184 3.43 59.47 3.498c-5.716-.068-13.685 1.314-19.604 4.685a49.312 49.312 0 00-3.653 2.132C23.688 18.393 15.04 29.355 9.242 35.194c-2.282 2.294-5.443 4.765-5.443 4.765s3.16 2.474 5.44 4.77c5.8 5.836 14.444 16.797 26.975 24.874a48.67 48.67 0 003.653 2.135c5.92 3.371 13.882 4.753 19.604 4.684 5.714.069 13.68-1.313 19.603-4.684a47.822 47.822 0 003.65-2.135C95.252 61.526 103.9 50.565 109.7 44.728c2.283-2.295 5.441-4.769 5.441-4.769s-3.153-2.471-5.438-4.765z" fill="#EF3F42">
  </path>
  <path d="M36.622 51.644c.847.145 1.686.241 3.35.241 8.202 0 10.311-19.136 10.039-22.124-.376-4.098-2.324-4.773-4.376-4.773h-2.698l-6.315 26.656zm-8.584-30.077h16.36c10.61 0 17.925 2.94 16.79 13.182-1.139 10.248-5.975 20.559-19.59 20.559h-19.12l.664-3.038 1.649-.288 6.44-27.089-3.863-.34.67-2.986z" fill="#FEFEFE">
  </path>
  <path d="M80.715 47.86c-1.623-1.119-3.64-1.629-5.616-1.753l-.781 3.372c1.712.234 2.44 1.126 3.09 2.43-.58.386-1.168.578-1.833.578-3.159 0-4.478-1.736-4.676-4-.318-3.664 3.096-24.344 9.801-24.344 3.161 0 4.472 1.736 4.67 4.002.225 2.554-1.38 13.4-4.655 19.715zm12.586 7.393c-.907.386-1.871.82-2.922.82-2.718 0-2.718-.983-3.98-2.766 6.767-3.76 10.947-11.413 10.947-20.215 0-7.983-6.215-12.37-16.571-12.37-11.544 0-21.105 10.628-21.404 21.172-.254 8.939 4.14 14.155 16.723 14.017.94-.01 1.934-.05 2.864-.195 1.548 3.76 2.766 5.37 7.864 5.37 1.996 0 3.978-.501 5.627-1.415l.896-3.886-.044-.532z" fill="#FEFEFE">
  </path>
  <path d="M108.206 25.67c-12.49-8.594-32.177-14.945-48.171-14.586-6.707.15-13.056 1.217-18.757 3.012 8.026-5.075 18.94-8.314 30.994-8.583 12.356-.276 26.843 3.366 38.552 8.995l-2.618 11.162z" fill="#FAAB53">
  </path>
  <path d="M10.735 54.252c12.49 8.591 32.175 14.944 48.172 14.584 6.705-.15 13.054-1.217 18.755-3.012-8.025 5.073-18.94 8.313-30.993 8.583-12.356.275-26.843-3.366-38.552-8.996l2.618-11.16z" fill="#007AC2">
  </path>
  <path d="M96.158 51.33c.34 0 .65-.024.65-.45 0-.348-.298-.409-.586-.409h-.55v.86h.486zm-.472 1.58h-.4v-2.78H96.3c.63 0 .94.245.94.788 0 .5-.303.71-.69.765l.752 1.227h-.447l-.705-1.208h-.463v1.208zm.488.613c1.047 0 1.874-.855 1.874-2.01 0-1.138-.827-2.003-1.874-2.003-1.054 0-1.883.865-1.883 2.003 0 1.155.829 2.01 1.883 2.01zm-2.35-2.01c0-1.383 1.078-2.4 2.35-2.4 1.263 0 2.34 1.017 2.34 2.4 0 1.397-1.077 2.409-2.34 2.409-1.272 0-2.35-1.012-2.35-2.41z" fill="#FEFEFE">
  </path>
 </g>
 <defs>
  <clipPath id="clip0">
   <path fill="#fff" d="M0 0h120v79.664H0z">
   </path>
  </clipPath>
 </defs>
</svg>