<svg version="1.1" id="Layer_1" xmlns="http://www.w3.org/2000/svg" xmlns:xlink="http://www.w3.org/1999/xlink" x="0px" y="0px" width="125px" height="67.9px" viewBox="0 0 125 67.9" style="enable-background:new 0 0 125 67.9;" xml:space="preserve">
 <style type="text/css">
  .st0{fill:#EF4337;}
	.st1{fill:#158DCD;}
	.st2{fill:#168DCD;}
 </style>
 <title>
  IHOP / Blue
 </title>
 <desc>
  Created with Sketch.
 </desc>
 <g id="Symbols">
  <g id="IHOP-_x2F_-Blue">
   <g id="IHOP-blue">
    <path id="Fill-7" class="st0" d="M86.5,67.9c-16.1,0-30.5-10-36.1-25.1c-0.2-0.6-0.3-1.3-0.2-1.9c0.2-1.2,1.1-2,2.2-2.1
				c1.3-0.1,2.3,0.5,2.8,1.6c0.3,0.7,0.5,1.4,0.8,2.1c5,10.8,13.4,17.5,25.1,19.5c15.7,2.7,31-6.3,36.6-21.3c0.4-1.2,1.1-1.9,2.4-2
				c1.1-0.1,2,0.4,2.5,1.4c0.4,0.8,0.4,1.6,0.1,2.4c-2.6,7.1-7,13-13,17.5C103,65.2,95,67.9,86.5,67.9">
    </path>
    <path id="Fill-1" class="st1" d="M111.9,19.4c0-3.7-3-6.6-6.6-6.6c-3.6,0-6.6,3-6.6,6.7c0,3.7,3,6.6,6.7,6.6
				C109,26.1,111.9,23.1,111.9,19.4 M98.7,35.7c0,3,0,6,0,9c0,3-2.4,5.4-5.4,5.3c-2.9,0-5.3-2.4-5.3-5.3c0-6.1,0-12.1,0-18.2
				c0-2.4,0-4.7,0-7.1c0-8.6,6.3-15.9,14.8-17.2c9.5-1.5,18.4,5.1,19.8,14.7c1.4,9.3-4.9,18.2-14.2,19.8c-3.1,0.5-6.1,0.3-9-0.8
				c-0.2-0.1-0.4-0.1-0.5-0.2C98.8,35.7,98.8,35.7,98.7,35.7">
    </path>
    <path id="Fill-3" class="st1" d="M67.7,26.1c3.6,0,6.6-3,6.6-6.6c0-3.7-3-6.7-6.7-6.7c-3.6,0-6.6,3.1-6.6,6.7
				C61.1,23.1,64.1,26.1,67.7,26.1 M67.8,2c9.6,0,17.4,7.8,17.4,17.4c0,9.6-7.8,17.4-17.4,17.4c-9.6,0-17.4-7.8-17.4-17.5
				C50.3,9.8,58.1,2,67.8,2">
    </path>
    <path id="Fill-5" class="st1" d="M36.2,23.6H25.9c0,0.3,0,0.5,0,0.8c0,2.6,0.1,5.2-0.1,7.8c-0.2,2.6-2.6,4.6-5.2,4.7
				c-2.6,0.1-5-1.9-5.4-4.4c0-0.3-0.1-0.6-0.1-0.9c0-8.1,0-16.1,0-24.2c0-2.2,1.4-4.2,3.5-5c2-0.8,4.4-0.2,5.9,1.4
				c1,1.1,1.4,2.4,1.4,3.8c0,2,0,4,0,6v0.8h10.4v-0.7c0-2.1,0-4.2,0-6.3c0-2.8,2.1-5.1,4.7-5.4c2.9-0.3,5.3,1.5,5.9,4.3
				C47,6.7,47,7.1,47,7.5c0,8,0,16,0,24c0,3-2.2,5.4-5.1,5.5c-3,0.1-5.6-2.3-5.6-5.4c0-2.4,0-4.8,0-7.2V23.6z">
    </path>
    <path id="Fill-10" class="st1" d="M0,19.5c0-4,0-8,0-11.9c0-2.8,2.1-5.2,4.7-5.5c2.9-0.3,5.4,1.6,5.9,4.5c0.1,0.3,0.1,0.6,0.1,1
				c0,8,0,16,0,24c0,2.9-2,5.1-5,5.4c-2.6,0.3-5.1-1.7-5.7-4.4C0,32.1,0,31.8,0,31.4C0,27.4,0,23.4,0,19.5">
    </path>
   </g>
   <path id="_xAE_" class="st2" d="M122,6c-1.7,0-3-1.4-3-3v0c0-1.6,1.3-3,3-3c1.7,0,3,1.4,3,3v0C125,4.6,123.7,6,122,6z M122,5.7
			c1.5,0,2.7-1.2,2.7-2.7v0c0-1.5-1.1-2.7-2.7-2.7c-1.5,0-2.7,1.2-2.7,2.7v0C119.3,4.5,120.5,5.7,122,5.7z M120.8,4.2V1.8
			c0-0.2,0.2-0.4,0.4-0.4h1.1c0.7,0,1.3,0.3,1.3,1c0,0.5-0.2,0.8-0.6,0.9l0.5,0.6c0.1,0.1,0.1,0.2,0.1,0.3c0,0.2-0.2,0.4-0.4,0.4
			c-0.1,0-0.2-0.1-0.3-0.2L122,3.5h-0.5v0.7c0,0.2-0.2,0.4-0.4,0.4C120.9,4.6,120.8,4.4,120.8,4.2z M121.5,2.9h0.7
			c0.3,0,0.5-0.2,0.5-0.4c0-0.3-0.2-0.4-0.5-0.4h-0.7V2.9z">
   </path>
  </g>
 </g>
</svg>