<svg version="1.1" id="Layer_1" xmlns="http://www.w3.org/2000/svg" xmlns:xlink="http://www.w3.org/1999/xlink" x="0px" y="0px" viewBox="0 0 306.5 61.1" style="enable-background:new 0 0 306.5 61.1;" xml:space="preserve">
 <style type="text/css">
  .st0{fill:#FBBB00;}
	.st1{fill:#008736;}
 </style>
 <g>
  <path class="st0" d="M38.8,54.5c7-1.4,11.3-6,11.3-13.5c0-9-5.8-11.6-16.3-16.6c-5-2.4-6.2-3-6.2-4.5c0-1,0.8-2,2.3-2l17.7,0.3V6.5
		c0,0-10.8-0.2-14.6-0.2c-1.9,0-4.7,0-6.3,0.2c-7.7,1-12.9,6.1-12.9,13.3c0,9.4,6.7,12.3,15.2,16.3c5.3,2.5,7.2,3.2,7.2,5.1
		c0,1.1-0.8,2.1-2.5,2.1l-18.8-0.1v-6.4L0,48.9l14.8,12.2v-6.4l16.8,0.1C33.7,54.9,36.9,54.8,38.8,54.5 M117.9,44.2h-7.3v-9.2h7.3
		c2.7,0,4,1.7,4,4.6C121.9,42.3,120.6,44.2,117.9,44.2 M120.8,21.3c0,2.5-1.1,4.4-3.6,4.4l-6.6,0V17h6.6
		C119.6,17,120.8,18.7,120.8,21.3 M120.3,55c9.6,0,16-5.2,16-14.8c0-5.1-2.5-8.6-6.7-10.9c3.6-2.4,5.4-5.7,5.4-9.6
		c0-7.5-5.3-13.3-15.5-13.3h-23V55H120.3z M72.3,56C59,56,52.7,48.8,52.7,41.1V6.4h14.2V40c0,2.2,1.8,3.9,5.4,3.9
		c3.6,0,5.4-1.8,5.4-3.9V6.4H92v34.7C92,48.8,84.9,56,72.3,56">
  </path>
  <path class="st1" d="M281.1,52c0.2,0,0.3,0.1,0.3,0.2c0,0.1-0.1,0.2-0.3,0.2h-0.4V52H281.1z M280,51.4v2.4h0.7V53h0l0.6,0.8h0.8
		l-0.7-0.8c0.4-0.1,0.7-0.4,0.7-0.7c0-0.5-0.3-0.8-1-0.8H280z M281,54.6c-1.1,0-2-0.9-2-1.9c0-1.1,0.9-2,2-2c1,0,1.9,0.9,1.9,2
		C283,53.7,282.1,54.6,281,54.6 M281,50c-1.5,0-2.7,1.2-2.7,2.6c0,1.4,1.2,2.6,2.7,2.6c1.5,0,2.7-1.2,2.7-2.6
		C283.7,51.2,282.5,50,281,50 M227.5,29.8h-10.7v-8.7c0-2.3,1.6-4,5.4-4c3.8,0,5.4,1.7,5.4,4L227.5,29.8z M216.8,55V40.9h10.7V55
		h14.2V20.3c0-8.8-7.3-15.3-19.5-15.3c-12.4,0-19.5,6.6-19.5,15.3V55H216.8z M180.7,55.8c11.9,0,17.5-7.2,17.5-15.1V6.4H184v33.9
		c0,1.5-0.8,3.1-4,3.1c-3.2,0-4-1.7-4-3.1V6.4h-14.2v33.9c0,1.5-0.8,3.1-4.1,3.1c-3.2,0-4-1.7-4-3.1V6.4h-14.2v34.3
		c0,7.9,5.2,15.1,17.9,15.1c4.8,0,8.6-1.5,11.4-3.8C171.7,54.3,175.6,55.8,180.7,55.8 M259.3,25.5c0,1.8,1.2,4,5.5,4s5.5-2.1,5.5-4
		v-7.7c0-6.9,3.5-11.7,11.8-11.7h9.8V0l14.8,12.2l-14.8,12.2v-6.1h-6.3c-0.8,0-1.2,0.4-1.2,1.1v7.5c0,6.8-4.4,11.9-12.3,14v14h-14.4
		v-14c-7.8-2.1-12.4-7.3-12.4-14V6.4h14.1L259.3,25.5L259.3,25.5z">
  </path>
 </g>
</svg>