<svg version="1.1" id="Layer_1" xmlns="http://www.w3.org/2000/svg" xmlns:xlink="http://www.w3.org/1999/xlink" x="0px" y="0px" viewBox="0 0 129.1 103.3" style="enable-background:new 0 0 129.1 103.3;" xml:space="preserve">
 <style type="text/css">
  .st0{fill-rule:evenodd;clip-rule:evenodd;fill:#ED1C24;}
 </style>
 <g>
  <g>
   <path d="M26.8,66.8c0,1.3,1.6,2.8,1.6,3.5c0,0.9-0.8,0.9-0.8,0.9s-8.8,0-11.7,0c-0.3,0-0.8-0.3-0.8-0.8c0-0.9,1.6-1.2,1.6-3.8
			c0-1.8,0-25.4,0-25.4c0-1.8-1.4-2.3-1.4-3.2c0-0.7,0.3-1.1,1-1.1c4.3,0,17,0,17,0c7.8,0,9.7,6.4,9.7,10.9c0,8-5.6,11.9-10.3,11.9
			c-2.5,0-5.1-1.3-5.1-2.7c0-0.1,0.1-0.4,0.4-0.6c0.8-0.4,5.1-1.7,5-8.5c-0.1-5.4-2-7.9-3.9-7.9c-1.6,0-2.2,0.9-2.2,3.3
			C26.9,45.7,26.8,63.7,26.8,66.8z">
   </path>
   <ellipse cx="48.4" cy="37.8" rx="4.9" ry="3.9">
   </ellipse>
   <path d="M79.3,64.9h-3.9c-1,0-1.6-1.1-1-1.9l10.9-16.6c0.1-0.2,0-0.5-0.3-0.5c-2.7,0.1-3.8,0.4-4.7,1.2c-1.8,1.4-2.2,4.4-3.4,4.4
			c-0.7,0-1-0.4-1-1.2c0-0.7,0-5,0-6s0.3-1.5,1.2-1.5s17.4,0,17.4,0c0.8,0,1.4,0.6,1.4,1.4c0,0.7-1.9,3.4-2.2,3.9
			c-0.5,0.8-9.2,14.2-9.2,14.2c6.2,0,8,4.2,12.9,4.2c2.2,0,2.2-0.6,3.4-0.6c0.5,0,0.8,0.3,0.8,0.8c0,0.9-3.2,4.7-7.7,4.7
			C88.6,71.3,85.9,64.9,79.3,64.9z">
   </path>
   <path d="M79.9,65.8c-1.1,0-1.2,0.6-3.4,0.6c-4.9,0-6.7-4.2-12.9-4.2c0,0,8.7-13.5,9.2-14.2c0.3-0.5,2.2-3.2,2.2-3.9
			c0-0.8-0.6-1.4-1.4-1.4c0,0-16.5,0-17.4,0S55,43.2,55,44.2s0,5.3,0,6c0,0.8,0.3,1.2,1,1.2c1.2,0,1.6-2.9,3.4-4.4
			c0.9-0.7,2-1.1,4.7-1.2c0.3,0,0.4,0.3,0.3,0.5L53.6,62.8c-0.4-0.4-0.7-1.1-0.7-2.2c0,0,0-15.3,0-16.3c0-1.1-0.4-1.7-1.2-1.7
			c-0.9,0-6.4,0-7,0s-1.4-0.1-1.4,0.7c0,0.9,1.4,1.3,1.4,3.5c0,1.6,0,10.3,0,13.4c0,2.6-1.6,2.2-1.6,3.6c0,0.7,0.8,1,0.8,1h9.7
			c0,0,0.2,0,0.4-0.1c0.1,0.1,0.3,0.1,0.5,0.1h3.9c6.6,0,9.3,6.4,14.6,6.4c4.5,0,7.7-3.8,7.7-4.7C80.8,66.1,80.4,65.8,79.9,65.8z">
   </path>
   <path d="M59.2,72.9c0-1.3,1.6-2.8,1.6-3.5c0-1-0.8-0.9-0.8-0.9s-8.8,0-11.7,0c-0.3,0-0.8,0.3-0.8,0.9c0,0.9,1.6,1.2,1.6,3.8
			c0,0,0,4.7,0,10c-0.8-0.5-1.9-1-3.3-1c-0.7,0-1.7,0.2-3,0.5c0-5.3,0-10,0-10c0-1.6,1.4-2.4,1.4-3.2c0-1.2-1.3-1.1-1.3-1.1
			s-7.8,0-10.4,0c-0.7,0-1.1,0.3-1.1,0.9c0,1.1,1.4,1.1,1.4,3.4c0,1.1,0,6.6,0,12.3c-1.7,0.3-3.4,0.5-5,0.5c-6.9,0-8.5-3.3-9.4-3.3
			c-1.7,0-1.8,9.3,6.3,9.3c2.3,0,5.2-0.8,8.1-1.8c0,4.8,0,8.7,0,8.7c0,1.3-1.6,2.8-1.6,3.5c0,1,0.8,0.9,0.8,0.9s8.8,0,11.7,0
			c0.3,0,0.8-0.3,0.8-0.9c0-0.9-1.6-1.2-1.6-3.8c0-0.8,0-6.3,0-11.9c1.1-0.3,2.1-0.5,3-0.5c2.5,0,3.2,1.6,3.3,2.6
			c0,4.9,0,9.3,0,10.3c0,2.3-1.4,2.3-1.4,3.4c0,0.6,0.5,0.9,1.1,0.9c2.6,0,10.4,0,10.4,0s1.3,0,1.3-1.1c0-0.7-1.4-1.5-1.4-3.2V72.9z
			">
   </path>
   <path d="M61.8,84.6c0-2.3-1.1-2.3-1.1-3.1c0-0.5,0.4-0.9,0.9-0.9c1.2,0,4.2,0,5.4,0s3,0,3,1.6s0,12.4,0,13.7s0.5,2.9,2.1,2.9
			s3-0.9,3-2.9c0-1.9,0-9,0-10.5c0-3.1-1.3-2.9-1.3-4c0-0.5,0.3-0.9,0.8-0.9c1.3,0,5.5,0,6.4,0c1.6,0,2.2,0.5,2.2,1
			c0,1,0,15.7,0,16.9c0,2.2,1.4,2.6,1.4,3.6c0,0.6-0.7,0.7-0.7,0.7s-5.1,0-6.5,0c-2,0-1.6-1.9-1.6-1.9s-2.5,2.5-7,2.5
			c-5.5,0-7.2-3.7-7.2-5.7C61.8,95.2,61.8,84.6,61.8,84.6z">
   </path>
   <path d="M114.9,58.4c0-3.9,0-10.4,0-10.4c0-3.9-4.3-5.7-9.3-5.7c-4.9,0-9.9,1.4-9.9,5.1c0,1.7,1.4,2.9,2.9,2.9
			c1.7,0,2.9-1.5,3.2-2.6c0.5-1.8,1.8-2.3,2.7-2.3c1.2,0,2.5,1,2.5,2.5c0,2.5-2.7,3.1-6.2,3.9c-5.1,1.2-7,3.5-7,7.2
			c0,3.4,3,6.3,7.5,6.3c3,0,4.9-1.3,5.7-2c0.2-0.2,0.5-0.2,0.7,0c0.6,0.7,2,1.9,4.5,1.9c3.6,0,4.9-2.2,4.9-3
			C117.1,60.9,114.9,62.8,114.9,58.4z M107.2,58.2c0,1.5-1.2,2.5-2.6,2.5c-1,0-2.5-0.9-2.5-2.5c0-2.9,3.7-4.7,4.2-4.9
			c0.6-0.2,0.9-0.4,0.9,0C107.2,53.9,107.2,56.7,107.2,58.2z">
   </path>
   <path d="M94.1,83.5c1.1,0,2.7,0,3.1,0c0.7,0,1-0.7,1-1.4c0-0.7-0.3-1.5-1-1.5c-0.3,0-2,0-3.1,0c0-2.1,0-4.2,0-4.8
			c0-1-0.9-1-1.6-0.5c-0.9,0.7-6.7,5.1-7.7,5.7c-0.9,0.7-1.2,2.5,1.3,2.5c0,2.8,0,12.1,0,13.4c0,3.8,1.9,6.3,5.5,6.3
			c2.8,0,4.4-1.1,5.5-2.9c0.7-1.2,0.6-2.2-0.1-2.2c-0.6,0-0.6,0.3-1.3,0.3c-1,0-1.5-0.9-1.5-1.9s0-10.6,0-11.9
			C94.1,84.5,94.1,84,94.1,83.5z">
   </path>
  </g>
  <g>
   <path d="M97.8,101.2c0-0.9,0.7-1.7,1.7-1.7c0.9,0,1.7,0.7,1.7,1.7c0,0.9-0.7,1.7-1.7,1.7C98.5,102.9,97.8,102.1,97.8,101.2z
			 M100.8,101.2c0-0.7-0.6-1.3-1.3-1.3c-0.7,0-1.3,0.6-1.3,1.3c0,0.7,0.6,1.3,1.3,1.3C100.2,102.6,100.8,102,100.8,101.2z
			 M98.8,100.4h0.8c0.4,0,0.6,0.2,0.6,0.5s-0.2,0.5-0.5,0.5l0.4,0.6h-0.4l-0.5-0.8h0.2c0.2,0,0.4,0,0.4-0.3c0-0.2-0.2-0.2-0.4-0.2
			h-0.3v1.3h-0.3C98.8,102,98.8,100.4,98.8,100.4z">
   </path>
  </g>
  <polygon class="st0" points="129.1,31.3 129.1,29.7 96.5,15.6 90.1,0 39,0 32.6,15.6 0,29.7 0,31.3 	">
  </polygon>
 </g>
</svg>