<svg version="1.1" id="Layer_1" xmlns:x="ns_extend;" xmlns:i="ns_ai;" xmlns:graph="ns_graphs;" xmlns="http://www.w3.org/2000/svg" xmlns:xlink="http://www.w3.org/1999/xlink" x="0px" y="0px" viewBox="0 0 132.1 192.8" style="enable-background:new 0 0 132.1 192.8;" xml:space="preserve">
 <style type="text/css">
  .st0{fill:#FFFFFF;}
	.st1{fill:#1D191A;}
 </style>
 <metadata>
  <sfw xmlns="ns_sfw;">
   <slices>
   </slices>
   <sliceSourceBounds bottomLeftOrigin="true" height="192.8" width="132.1" x="134.4" y="-296.6">
   </sliceSourceBounds>
  </sfw>
 </metadata>
 <g>
  <g>
   <path class="st0" d="M120.5,57.8c0-31.9-25.9-57.7-57.7-57.7C30.9,0.1,5.1,26,5.1,57.8c0,0,0,0,0,0.1v44.9c0,1,0.8,1.9,1.9,1.9
			h111.7c1,0,1.9-0.8,1.9-1.9L120.5,57.8L120.5,57.8z">
   </path>
   <path class="st1" d="M108.6,55.7c-2-4.9-18.8-1.2-42.2,11.4C43.5,79.3,30,93.5,32,97.8c2.1,4.5,25.7,1.3,44.5-9.1
			C102.2,74.5,111.1,61.7,108.6,55.7">
   </path>
   <path class="st0" d="M53.6,91.1c-4,0.1-7.7-1.5-10.4-4.1c5.3-5.3,13.4-11.2,23-16.5c0.9,1.8,1.4,3.8,1.4,6
			C67.7,84.4,61.5,90.9,53.6,91.1">
   </path>
   <path class="st1" d="M17.4,101.6c1.1,1.1,2,1.9,4.6,2.8c0.1,0,0.6,0.2,0.6,0.2H6.9c-1,0-1.9-0.8-1.9-1.9V57.8c0,0,0,0,0-0.1
			c0-19.3,9.5-36.4,24.1-46.9l0,0l-0.7,0.8c-1.5,2-1.3,3.8-0.4,6.3c0.6,1.7-1.2,3.6-2.2,4.7c-4.2,4.6-8.3,10.8-8.8,21.6
			c-0.4,9.9,2.5,18.6,3.5,23.2c1,4.9,1.2,6.5,1.3,7.4c3.7-3.1,7.7-6.2,11.7-9c6.5-4.3,11.7-7.4,16.3-9.9c10.3-5.6,13-5,4.8-0.2
			c-8.2,4.9-16.1,10.4-21.5,15.2C12,90,15.2,99.4,17.4,101.6">
   </path>
   <path class="st1" d="M120.5,102.8c0,1-0.8,1.9-1.9,1.9H45.5l1-0.2c9.6-2,20.8-6,32.2-12.4c22.6-11.7,37.4-26.8,41.3-37.7l0.2-0.5
			c0,0,0,0.2,0,0.5c0.1,0.9,0.1,2.3,0.1,3.5v44.9">
   </path>
   <path class="st1" d="M37.5,5.8L37.5,5.8C45.1,2.1,53.7,0,62.7,0c26.7,0,49.2,18.2,55.8,42.8c0,0-0.9-0.8-2.9-1.7
			c-1.4-0.6-3.5-1.2-6.3-1.7c-3.6-0.7-7.2-0.9-11.3-3.1c-7.4-4-17.2-21.3-32.9-25.8c-7.5-2.2-13.3-1.3-15.7-0.9
			c-1.3,0.2-3.9,0.5-4.8-0.7c-1.9-2.4-3.3-3.9-6.2-3.4C38.2,5.6,37.5,5.8,37.5,5.8">
   </path>
  </g>
  <g>
   <polygon class="st1" points="10.5,152.5 18.9,152.5 18.9,125.2 29.5,125.2 29.5,118 0,118 0,125.2 10.5,125.2 		">
   </polygon>
   <path class="st1" d="M32.1,152.5l1.9-5h13.9l1.9,5h9.3L45,118h-7.1l-14.7,34.5H32.1z M41.1,128.4l4.2,12.2h-8.7L41.1,128.4z">
   </path>
   <path class="st1" d="M75.3,153.1c6.8,0,11.2-2.6,14.4-6.3l-7-5.2c-1.5,2-3.9,3.7-7.7,3.7c-5.5,0-8.7-4.2-8.7-10.1
			c0-5.9,3.2-10.2,9-10.2c3.4,0,5.6,1.7,6.9,3.7l6.8-4.9c-3.1-3.8-7.3-6.6-13.7-6.6c-11.6,0-17.8,8-17.8,17.8
			C57.7,145.1,63.8,153.1,75.3,153.1z">
   </path>
   <path class="st1" d="M107.9,153.1c10.9,0,17.6-8,17.6-17.8c0-9.9-6.7-17.8-17.6-17.8c-11,0-17.7,8-17.7,17.8
			S96.9,153.1,107.9,153.1z M107.9,125.1c5.5,0,8.8,4.3,8.8,10.2c0,5.8-3.3,10-8.8,10c-5.6,0-8.8-4.2-8.8-10
			C99.1,129.4,102.3,125.1,107.9,125.1z">
   </path>
   <path class="st1" d="M31,174.1c3.3-1.6,4.8-3.8,4.8-7.7c0-5.1-4-8.1-12-8.1H10.5v34.5h15c8.8,0,13-3.2,13-9.9
			C38.5,178.2,35.9,175.1,31,174.1z M18.5,165h3.3c4,0,5.7,0.8,5.7,3.3c0,2.6-1.6,3.6-4.7,3.6h-4.2L18.5,165L18.5,165z M23.4,185.6
			h-5v-7.2h5.1c4.5,0,6.4,1,6.4,3.6C30,184.8,28.5,185.6,23.4,185.6z">
   </path>
   <polygon class="st1" points="50.3,178.8 64.9,178.8 64.9,171.8 50.3,171.8 50.3,165.5 67.8,165.5 67.8,158.3 41.9,158.3 
			41.9,192.8 68.2,192.8 68.2,185.5 50.3,185.5 		">
   </polygon>
   <polygon class="st1" points="80.7,158.3 72.3,158.3 72.3,192.8 95.9,192.8 95.9,185.5 80.7,185.5 		">
   </polygon>
   <polygon class="st1" points="108.4,158.3 100,158.3 100,192.8 123.6,192.8 123.6,185.5 108.4,185.5 		">
   </polygon>
  </g>
  <g>
   <path class="st1" d="M127.3,186v3.2h-0.5V186h-1v-0.5h2.6v0.5H127.3z M131.7,189.2v-2.7l-0.9,1.7h-0.5l-0.9-1.7v2.7h-0.5v-3.7h0.5
			l1.1,2.2l1.1-2.2h0.5v3.7H131.7z">
   </path>
  </g>
 </g>
</svg>