<svg version="1.1" id="Layer_1" xmlns="http://www.w3.org/2000/svg" xmlns:xlink="http://www.w3.org/1999/xlink" x="0px" y="0px" viewBox="0 0 270 78.5" style="enable-background:new 0 0 270 78.5;" xml:space="preserve">
 <style type="text/css">
  .st0{fill:#FFFFFF;}
	.st1{fill-rule:evenodd;clip-rule:evenodd;fill:#E2001A;}
	.st2{fill:#E2001A;}
	.st3{fill-rule:evenodd;clip-rule:evenodd;fill:#1A171B;}
	.st4{fill:#1A171B;}
 </style>
 <g id="Layer_2_1_">
  <g id="Livello_1">
   <path class="st0" d="M78.7,77.4h14.8c3.2,0,5.7-2.6,5.7-5.7c0,0,0,0,0,0v-1.3c3,4.4,8,7.1,13.3,7h12.6c3.2,0,5.7-2.6,5.7-5.7
			c0,0,0,0,0,0v-0.5c5.1,4.5,11.7,7,18.6,7c7.7,0,15.2-3.1,20.6-8.6v2.2c0,3.2,2.5,5.7,5.7,5.7c0,0,0,0,0,0h15.6
			c0.8,0,1.6-0.2,2.4-0.5c0.7,0.4,1.6,0.5,2.4,0.5h15.5c3.1,0,5.7-2.5,5.8-5.6c0,0,0-0.1,0-0.1v-1.1c7.5,7.5,18.8,9.8,28.7,6
			c0.9,0.5,1.9,0.8,2.9,0.9h15.3c3.2,0,5.7-2.6,5.7-5.7V25.8c0-3-2.3-5.5-5.3-5.7h-0.6v-0.4c0.2-4-3-7.4-7-7.5c-4-0.2-7.4,3-7.5,7
			c0,0.2,0,0.4,0,0.6c0,0.1,0,0.3,0,0.4h-0.6c-1.2,0-2.4,0.4-3.3,1.1c-3-1.3-6.3-1.9-9.6-2c-7,0-13.7,2.8-18.7,7.8V5.7
			c0-3.2-2.6-5.7-5.7-5.7c0,0,0,0,0,0h-15.5c-0.8,0-1.6,0.2-2.4,0.5C193,0.2,192.2,0,191.3,0h-15.6c-3.2,0-5.7,2.6-5.7,5.7v20.6
			c-5.4-5.5-12.8-8.7-20.6-8.7c-6.7,0-13.2,2.4-18.3,6.7c-0.7-2.5-2.9-4.2-5.5-4.2h-3.1v-9.7c0-3.2-2.6-5.7-5.7-5.7
			c-0.7,0-1.4,0.1-2.1,0.4L99.9,11c-2.2,0.9-3.6,3-3.6,5.3v3.8H96c-0.4,0-0.8,0.1-1.2,0.2c-0.4-0.1-0.8-0.1-1.2-0.1h-18
			c-0.8,0-1.6,0.2-2.4,0.5c-0.8-0.4-1.6-0.5-2.4-0.5H51.3c-2.3,0-4.3,1.3-5.2,3.4c-5.2-3.9-11.9-5.4-18.3-4
			c-1.5,0.4-2.9,0.9-4.3,1.5c-0.9-0.6-1.9-0.9-3-0.9H5.7c-3.1,0-5.7,2.5-5.7,5.7c0,0,0,0,0,0v45.8c-0.1,3,2.3,5.6,5.3,5.7
			c0.1,0,0.1,0,0.2,0h19.4c0.8,0,1.6-0.2,2.4-0.5c0.8,0.4,1.6,0.5,2.4,0.5h18c1.5,0,3-0.6,4-1.7c0.5-0.5,0.9-1.1,1.2-1.7
			c5.3,3.9,12,5.4,18.4,4c1.5-0.4,2.9-0.9,4.3-1.5C76.6,77.1,77.6,77.4,78.7,77.4z">
   </path>
   <path class="st1" d="M102,60.6V38.5h-6V26.2h6v-9.5l14.9-6v15.4h8.8v12.3h-8.8v18.1c0,2.8,1.4,3.8,4.9,3.8h3.5v11.8h-12.6
			C105.9,72.2,102,67.1,102,60.6">
   </path>
   <rect x="175.8" y="6.1" class="st2" width="15.6" height="66">
   </rect>
   <polyline class="st1" points="196.2,6.1 211.7,6.1 211.7,72.1 196.2,72.1 196.2,6.1 		">
   </polyline>
   <path class="st1" d="M141.6,43.1c0-2.8,3.3-6.5,7.9-6.5c5,0,8,4.2,8,6.5H141.6 M172.6,54.3c-2.4,10.8-12,18.6-23.1,18.7
			c-13.1,0-23.4-11-23.4-24.6s10.3-24.7,23.4-24.7c13.1,0,23.7,11,23.7,24.6c0,1.3-0.1,2.6-0.3,3.9h-31.7c0.4,4.3,4,7.5,8.2,7.4
			c3.5,0,6.5-2.2,7.7-5.4H172.6z">
   </path>
   <path class="st1" d="M78.7,26.2h14.8v45.9H78.7v-4.5c-3.6,3.5-4.9,4.2-8.6,5.3c-5.6,1.4-12.7-1.2-15.4-4.9
			c-2.2-2.8-3.3-6.3-3.3-9.9v-32h14.8v26.9c0,4.6,2.5,7.8,6.4,7.8c3.5,0,6.2-3.1,6.2-7.8V26.2">
   </path>
   <path class="st3" d="M20.5,72.1H5.6V26.2h14.9v4.5c3.6-3.5,4.9-4.2,8.6-5.3c5.6-1.4,12.7,1.2,15.4,4.9c2.1,2.9,3.3,6.3,3.3,9.9
			v31.9H33V45.2c0-4.6-2.5-7.7-6.4-7.7c-3.5,0-6.2,3.1-6.2,7.7L20.5,72.1">
   </path>
   <path class="st1" d="M229.3,49.1c0.1-5.6,4.8-10.1,10.5-9.9c5.6,0.1,10.1,4.8,9.9,10.5c-0.1,5.5-4.7,9.9-10.2,9.9
			C233.8,59.5,229.2,54.8,229.3,49.1 M214.2,49.3c0-13.2,9.9-23.9,22.1-23.9c4.7,0.1,9.3,1.8,12.9,4.8v-3.9h15.2v45.9h-15.3v-3.7
			c-3.2,3.2-7.9,4.7-12.9,4.7C224,73.2,214.1,62.4,214.2,49.3L214.2,49.3z">
   </path>
   <path class="st3" d="M256.2,17.3h0.3c0.5,0,1.2,0.1,1.2,0.7c0,0.6-0.6,0.8-1.2,0.8h-0.3V17.3 M255.1,21.9h1.1v-2.2h0.3
			c0.5,0,0.6,0.2,0.8,0.5l0.6,1.7h1.2l-0.9-2.1c-0.1-0.2-0.3-0.5-0.6-0.6l0,0c0.6-0.1,1.1-0.6,1.1-1.3c0-1.5-1.4-1.5-2.6-1.5h-1.1
			L255.1,21.9z">
   </path>
   <path class="st4" d="M256.9,14.6c-2.5,0-4.6,2-4.6,4.6s2,4.6,4.6,4.6c2.5,0,4.6-2,4.6-4.6C261.4,16.7,259.4,14.6,256.9,14.6
			C256.9,14.6,256.9,14.6,256.9,14.6z M256.9,23.3c-2.3,0-4.1-1.8-4.1-4.1s1.8-4.1,4.1-4.1c2.3,0,4.1,1.8,4.1,4.1
			S259.1,23.3,256.9,23.3C256.9,23.3,256.9,23.3,256.9,23.3z">
   </path>
  </g>
 </g>
</svg>