<svg version="1.1" id="Layer_1" xmlns="http://www.w3.org/2000/svg" xmlns:xlink="http://www.w3.org/1999/xlink" x="0px" y="0px" viewBox="0 0 221.2 62.6" style="enable-background:new 0 0 221.2 62.6;" xml:space="preserve">
 <style type="text/css">
  .st0{clip-path:url(#SVGID_2_);}
	.st1{fill:#FF671B;}
	.st2{clip-path:url(#SVGID_4_);}
	.st3{clip-path:url(#SVGID_6_);}
	.st4{clip-path:url(#SVGID_8_);}
	.st5{fill:#FFFFFF;}
	.st6{clip-path:url(#SVGID_10_);}
	.st7{clip-path:url(#SVGID_12_);}
 </style>
 <g>
  <g>
   <defs>
    <rect id="SVGID_1_" x="59.8" y="19.3" width="161.5" height="24.1">
    </rect>
   </defs>
   <clipPath id="SVGID_2_">
    <use href="#SVGID_1_" style="overflow:visible;">
    </use>
   </clipPath>
   <g class="st0">
    <path class="st1" d="M219.6,26.2c-0.9,0-1.6,0.7-1.6,1.6c0,0.9,0.7,1.6,1.6,1.6c0.9,0,1.6-0.7,1.6-1.6
				C221.2,26.9,220.5,26.2,219.6,26.2C219.6,26.2,219.6,26.2,219.6,26.2 M219.6,29.1c-0.7,0-1.3-0.6-1.3-1.3c0-0.7,0.6-1.3,1.3-1.3
				c0.7,0,1.3,0.6,1.3,1.3c0,0,0,0,0,0C220.9,28.5,220.4,29.1,219.6,29.1C219.7,29.1,219.6,29.1,219.6,29.1 M220.4,27.4
				c0-0.4-0.2-0.5-0.6-0.5H219v1.8h0.3v-0.8h0.3l0.5,0.8h0.3l-0.5-0.8C220.2,27.9,220.4,27.6,220.4,27.4
				C220.4,27.4,220.4,27.4,220.4,27.4 M219.3,27.7v-0.6h0.4c0.3,0,0.4,0.1,0.4,0.3c0,0.2-0.1,0.3-0.4,0.3L219.3,27.7L219.3,27.7z
				 M102.4,39.7c0,1.7-1.8,3.7-4,3.7c-1.9,0-3.7-0.9-3.7-4.4l0-9.8H90l-0.1,9.1c0,1.3,0.4,2,1.4,2c0.5,0,0.8-0.2,1.1-0.4
				c0.4-0.4,0.6-0.6,1-0.6c0.2,0,0.4,0.2,0.4,0.5c0,0,0,0,0,0c0,1.7-1.8,3.7-4.1,3.7c-1.8,0-3.6-0.9-3.6-4.4l0-9.8h-1
				c-1,0-1.3-0.2-1.3-0.8c0-0.6,0.2-0.8,0.8-1.1c0.9-0.4,1.4-0.8,1.9-1.6c1.2-1.7,1.1-3.5,2.6-3.5c0.5,0,0.7,0.3,0.7,0.7l0,3.9h2.8
				c1.2,0,1.9-0.1,2.6-1.1c1.2-1.7,1.1-3.5,2.6-3.5c0.4,0,0.7,0.3,0.7,0.7l0,3.9h3.4c0.5,0,0.8,0.1,0.8,0.8c0,0.6-0.1,1.6-1.1,1.6
				h-3l0,9.1c0,1.3,0.4,2,1.3,2c0.5,0,0.8-0.2,1.1-0.5c0.4-0.4,0.6-0.5,1-0.5C102.2,39.2,102.4,39.4,102.4,39.7
				C102.4,39.6,102.4,39.6,102.4,39.7 M111.3,42.2c0,0.4-0.2,0.7-0.6,0.7c-0.8,0-2-0.2-3.2-0.2h-1.3c-1.1,0-2.3,0.2-3.1,0.2
				c-0.4,0-0.6-0.3-0.6-0.7c0-0.8,0.6-1,1.2-1.2c0.6-0.2,1.3-0.6,1.3-1.6L105,24.8c0-0.8-0.5-1.6-2.2-1.8c-0.5-0.1-0.8-0.3-0.8-0.7
				c0-0.4,0.1-0.7,0.7-0.8c4.3-0.9,4.3-1.7,5.3-1.7c0.4,0,0.7,0.4,0.7,0.9c0,0.3,0,0.9,0,2.5l-0.1,16.3c0,0.9,0.5,1.3,1.3,1.5
				C110.5,41.2,111.3,41.4,111.3,42.2 M78.6,22.6c0-1.2,1.1-2.2,2.4-2.2c1.3,0,2.4,1,2.4,2.2s-1,2.2-2.4,2.2
				C79.7,24.8,78.6,23.8,78.6,22.6 M118.6,32.5c0.2-0.2,0.2-0.4,0.2-0.8c0-1.6-0.8-3.2-2.1-3.2c-1.3,0-2.4,1.7-2.4,4.6v0.5
				c0,5.2,2.2,6.7,3.8,6.7c1.2,0,1.8-0.3,2.3-0.8c0.4-0.4,0.6-0.8,1.1-0.8c0.4,0,0.6,0.3,0.6,0.7c0,1.8-2.1,4.1-5,4.1
				c-4.3,0-6.7-3.8-6.7-8.5c0-5.2,3.2-8.8,6.7-8.8c3.5,0,5.3,2.8,5.3,6.5c0,0.8,0,1.3-0.3,1.7c-0.4,0.5-1,0.5-2.4,0.5h-3.4
				c-0.6,0-1-0.3-1-0.8c0-0.8,0.5-1.1,1.7-1.2C118.1,32.8,118.4,32.7,118.6,32.5 M76.9,36.1c0,0.9-0.9,2.5-1.4,4.3
				c-0.3,1-0.2,1.8-0.3,2.4c-0.1,0.4-0.3,0.5-0.8,0.5c-0.8,0-2.1-0.6-6.5-0.6h-1.1c-2,0-4,0.3-5.9,0.3c-1,0-1.1-0.6-1.1-1
				c0-1.6,3-0.7,3-3.9v-14c0-2.5-2.9-1.9-2.9-3.5c0-0.4,0.3-0.7,0.7-0.7c0,0,0,0,0,0c0.5,0,2.1,0.2,4.1,0.2h0.5
				c2.1,0,3.9-0.2,4.1-0.2c0.4,0,0.7,0.3,0.7,0.7c0,0,0,0,0,0c0,1.6-3,1-3,3.5l-0.1,14.1c0,1.7,0.8,2,2.5,2h1.2
				c1.2,0,2.2-0.7,2.8-1.8l1.3-2.2c0.5-0.8,0.9-1,1.3-1C76.7,35.1,76.9,35.7,76.9,36.1 M85.5,42.2c0,0.4-0.1,0.8-0.6,0.8
				c-0.8,0-2.1-0.2-3.2-0.2h-1.3c-1.2,0-2.5,0.2-3.2,0.2c-0.5,0-0.6-0.4-0.6-0.8c0-0.7,0.6-0.9,1.2-1.1c0.7-0.2,1.5-0.6,1.5-1.6
				l-0.1-8.2c0-0.8-0.5-1.7-2.2-1.8c-0.5-0.1-0.7-0.3-0.7-0.7c0-0.4,0.1-0.7,0.7-0.8c4.2-0.9,4-1.7,5.3-1.7c0.4,0,0.8,0.4,0.8,1
				c0,0.3-0.1,0.9-0.1,2.5l-0.1,9.8c0,0.9,0.6,1.3,1.3,1.6C84.8,41.2,85.5,41.4,85.5,42.2 M179.9,38.2c0,2.5-1.8,5.1-5.3,5.1
				c-1.2,0-2.4-0.3-3.4-0.9c-0.6,0.5-1,0.7-1.2,0.7c-0.6,0-0.8-0.6-0.8-1.4c0-1,0-1.7-0.1-2.2c-0.1-0.6-0.3-1.1-0.3-1.7
				c0-0.8,0.4-1.2,1-1.2c0.5,0,0.7,0.2,1,1c1,2.6,2.1,3.4,3.8,3.4c1.2,0,1.9-0.8,1.9-1.5c0-1.1-0.8-1.8-2-2.4l-1.1-0.6
				c-3.7-1.9-4.4-3.2-4.4-5.3c0-2.6,2.1-5,5.1-5c1,0,2,0.3,2.8,0.8c0.4-0.4,0.6-0.6,1-0.6c0.4,0,0.8,0.3,0.8,0.7c0,0,0,0,0,0v1
				c0,1.1,0.4,2.1,0.4,3.1c0,0.7-0.3,1.1-0.8,1.1c-0.7,0-1-0.5-1.6-1.8c-0.6-1.1-1.2-2.3-2.5-2.3c-0.9,0-1.7,0.6-1.7,1.7
				c0,0.8,0.3,1.4,1.6,2.1l1.6,0.8C177.8,34.3,179.9,35.4,179.9,38.2 M206.4,27.9c0,1.4-1,2.3-1.9,2.3c-0.6,0-1.1-0.4-1.7-0.4
				c-1.7,0-2.3,2.6-2.4,5l0,4.6c0,0.8,0.5,1.2,1.3,1.5c0.6,0.2,1.5,0.4,1.5,1.2c0,0.4-0.1,0.8-0.6,0.8c-0.8,0-2.1-0.2-3.3-0.2h-1.3
				c-1.3,0-4.2,0.1-6,0.1c-0.9,0-1.7,0-2.4,0.1c-1,0-1-0.7-1-3.2l0-4.4c-0.4,0-0.7,0-1.1,0.1c-1.6,0.3-2.9,1.7-2.9,3.1
				c0,1.5,0.8,2.2,2.5,2.1c0.5-0.1,0.8,0,0.8,0.3c0,1.4-1.9,2.4-3.4,2.4c-2,0-3.8-1.6-3.8-4c0-3.1,2.5-5.5,6.9-6.1
				c0.3,0,0.7-0.1,1-0.1v-0.5c0-3.1-0.6-4.2-2-4.2c-1.3,0-1.9,0.7-2.5,2.1c-0.4,0.9-0.7,1.9-1.5,1.9c-0.6,0-0.9-0.4-0.9-1.3
				c0-1,0.4-2.1,0.4-3.1v-0.9c0-0.4,0.3-0.8,0.7-0.8c0,0,0.1,0,0.1,0c0.3,0,0.8,0.2,1.4,0.6c0.9-0.5,1.8-0.9,3.1-0.9
				c2,0,3.4,0.8,4.2,2.3c0.6,1.2,0.8,2.9,0.8,4.8V36c-0.1,4.6,0.6,5.2,2.2,5.2c1.2,0,2.3-0.9,2.3-2l-0.1-8c0-0.8-0.4-1.5-2.2-1.7
				c-0.4,0-0.7-0.4-0.7-0.8c0-0.4,0.2-0.8,0.7-0.8c3.9-0.8,3.6-1.7,4.8-1.7c0.5,0,0.9,0.4,0.9,0.9c0,0.4-0.1,0.9-0.1,2.5v0.7
				c1-3.2,2.6-4.5,4.3-4.5C205.6,25.8,206.4,26.7,206.4,27.9 M131.2,30.7c0,6.7,2.2,10,5,9.9c1.4,0,2.5-1.4,3.4-3.2
				c0.9-1.9,1.2-2.1,1.9-2.2c0.6,0,0.9,0.4,0.9,0.9c0,0.7-0.3,1.4-0.5,2.3c-0.6,1.8-0.7,2.8-1.1,4c-0.2,0.5-0.6,0.7-1,0.7
				c-0.4,0-0.8-0.2-1.2-0.8c-0.9,0.6-1.6,1-3.3,1.1c-4.2,0.1-8.5-4.2-8.5-11.8c0-6.6,4.2-12.2,9.6-12.3c1.8,0,3,0.4,4.5,1.4
				c0.6-0.5,0.9-0.9,1.6-0.9c0.4,0,0.8,0.3,0.8,0.8c0,0,0,0,0,0.1c0,0.8-0.4,1.3-0.9,2.4c-0.5,1.2-0.5,2.1-0.6,2.7
				c-0.2,0.8-0.5,1.7-1.3,1.7c-0.6,0-1-0.4-1-1.1l0-1.6c0-1.8-1.1-3-3.1-3C133.4,21.9,131.2,25.4,131.2,30.7 M217.4,38.2
				c0,2.5-1.9,5.1-5.6,5.1c-1.2,0-2.4-0.3-3.5-0.9c-0.6,0.5-1,0.7-1.2,0.7c-0.6,0-0.8-0.6-0.8-1.4c0-1,0-1.7-0.1-2.2
				c-0.1-0.6-0.3-1.1-0.3-1.7c0-0.8,0.4-1.2,1-1.2c0.5,0,0.7,0.2,1,1c1,2.6,2.2,3.4,3.9,3.4c1.5,0,2.2-0.8,2.2-1.5
				c0-1.1-0.9-1.7-2-2.3l-1.2-0.7c-3.5-2-4.2-3.2-4.2-5.3c0-2.7,2.2-5,4.9-5c0,0,0.1,0,0.1,0c1,0,2,0.3,2.8,0.8
				c0.4-0.4,0.6-0.6,1-0.6c0.4,0,0.8,0.3,0.8,0.7c0,0,0,0,0,0v1c0,1.1,0.4,2.1,0.4,3.1c0,0.7-0.3,1.1-0.8,1.1c-0.7,0-1-0.5-1.6-1.8
				c-0.6-1.1-1.2-2.3-2.5-2.3c-0.9,0-1.7,0.6-1.7,1.7c0,0.8,0.3,1.4,1.5,2.1L213,33C215.3,34.4,217.4,35.5,217.4,38.2 M164.4,32.5
				c0.2-0.2,0.2-0.4,0.2-0.8c0-1.6-0.8-3.2-2.1-3.2c-1.3,0-2.4,1.7-2.4,4.6v0.5c0,5.2,2.2,6.7,3.8,6.7c1.2,0,1.8-0.3,2.3-0.8
				c0.4-0.4,0.6-0.8,1.1-0.8c0.4,0,0.6,0.3,0.6,0.7c0,1.8-2.1,4.1-5,4.1c-4.3,0-6.7-3.8-6.7-8.5c0-5.2,3.2-8.8,6.7-8.8
				c3.5,0,5.3,2.8,5.3,6.5c0,0.8,0,1.3-0.3,1.7c-0.4,0.5-1,0.5-2.4,0.5H162c-0.6,0-1-0.3-1-0.8c0-0.8,0.5-1.1,1.7-1.2
				C163.9,32.8,164.2,32.7,164.4,32.5 M156.9,42c0,0.4-0.2,1-0.7,1c-0.2,0-1.2-0.1-1.9-0.1c-0.9,0-1.8,0.1-2.4,0.1c-1,0-1-0.7-1-3.2
				l0-4.4c-0.4,0-0.7,0-1.1,0.1c-1.6,0.3-2.8,1.7-2.8,3.1c0,1.5,0.8,2.3,2.5,2.1c0.5-0.1,0.8,0,0.8,0.3c0,1.4-1.9,2.4-3.3,2.4
				c-2.1,0-3.8-1.6-3.8-4c0-3.1,2.4-5.5,6.9-6.1c0.3,0,0.7-0.1,1-0.1v-0.5c0-3.1-0.6-4.2-2-4.2c-1.3,0-1.9,0.7-2.5,2.1
				c-0.4,0.9-0.7,1.9-1.5,1.9c-0.6,0-0.9-0.4-0.9-1.3c0-1,0.4-2.1,0.4-3.1v-0.9c0-0.4,0.3-0.8,0.7-0.8c0,0,0,0,0,0
				c0.3,0,0.8,0.2,1.4,0.6c0.9-0.5,1.8-0.9,3.2-0.9c2,0,3.4,0.9,4.2,2.3c0.6,1.2,0.8,2.9,0.8,4.8V36c0,4.3,0.5,5,1.7,5.3
				C156.8,41.3,156.9,41.6,156.9,42">
    </path>
   </g>
  </g>
  <g>
   <defs>
    <rect id="SVGID_3_" width="56.2" height="62.6">
    </rect>
   </defs>
   <clipPath id="SVGID_4_">
    <use xlink:href="#SVGID_3_" style="overflow:visible;">
    </use>
   </clipPath>
   <g class="st2">
    <g>
     <defs>
      <rect id="SVGID_5_" width="56.2" height="62.6">
      </rect>
     </defs>
     <clipPath id="SVGID_6_">
      <use xlink:href="#SVGID_5_" style="overflow:visible;">
      </use>
     </clipPath>
     <g class="st3">
      <path class="st1" d="M22.9,50.4l0.1-11c1.8,0.2,3.2-0.2,5.3-1.2c2.9-1.4,6.8-4.7,10-9.2l1.1-1.6c-0.8,4.8-5.2,10.5-7.3,13.6
						c-0.2,0.2-0.3,0.5-0.3,0.7c0,0.1,0,0.4,0.1,0.4c0.1,0,0.2,0,0.3-0.1c0.1-0.1,0.3-0.2,0.4-0.3c0.1-0.2,0.3-0.3,0.4-0.5
						c0.4-0.5,0.8-1,1.3-1.6c3-4.3,5-7.5,5.9-11.3c0,0.1,0,0.3,0.1,0.4c0.8,4.3-0.4,6-1.7,8.5c-0.2,0.3-0.3,0.7-0.3,1
						c0.1,0.5,0.4,0.4,0.8,0c1-1.3,1.8-2.8,2.2-4.5l2.6,15L22.9,50.4z M37.4,46.8l0-0.8L36,46.2l-0.1-0.9l1.4-0.1l0-0.8l-2.2,0.1
						l0.2,2.4L37.4,46.8z M34.5,47.8l-0.2-3.1l-0.8,0l0.3,3.9l3.7-0.2l0-0.8L34.5,47.8z M39.1,44.3l-0.8,0l0.3,3.9l3.7-0.2l0-0.8
						l-3,0.2L39.1,44.3z M40.1,46.7l2.2-0.1l0-0.8l-1.4,0.1l-0.1-0.9l1.4-0.1l0-0.8l-2.2,0.2L40.1,46.7z M32.6,47.2l0-0.8l-1.4,0.1
						l-0.1-0.9l1.4-0.1l0-0.8l-2.2,0.1l0.2,2.4L32.6,47.2z M24.9,48.4l-0.2-3.1l-0.8,0l0.3,3.9l3.7-0.2l0-0.8L24.9,48.4z M27.8,47.5
						l0-0.8l-1.4,0.1l-0.1-0.9l1.4-0.1l0-0.8l-2.2,0.1l0.2,2.4L27.8,47.5z M29.7,48.1l-0.2-3.1l-0.8,0l0.3,3.9l3.7-0.2l0-0.8
						L29.7,48.1z M45.8,21.6c0-0.2-0.1-0.4-0.2-0.5c-0.2-0.2-0.5-0.3-0.8-0.4c-0.4,0-1.1,0.2-1.1,0.6c0,0.1,0,0.2,0,0.3
						c-2.2,0-4.6-0.3-5.9-1.2c1-0.2,2-0.4,2.9-0.8c0,0.2,0,0.4,0.1,0.5c0.3,0.4,0.8,0.5,1.3,0.5c0.4-0.1,0.8-0.3,0.8-0.7
						c0-0.2,0-0.4-0.1-0.6c-0.1-0.1-0.3-0.2-0.4-0.3c1.9-0.8,3.6-1.6,4.2-1.9c0.3,0.9,0.9,3.4,1,4.1c0,0.1,0,0.1-0.1,0.2
						c0,0,0,0-0.1,0C47.3,21.4,46.6,21.5,45.8,21.6 M46.1,18.5c-0.2-0.1-0.4-0.2-0.6-0.1c-0.3,0-0.6,0.1-0.8,0.4
						c-0.4,0.3-0.2,0.8,0.1,1.1c0.3,0.2,0.7,0.2,1,0s0.7-0.5,0.6-0.9C46.4,18.7,46.3,18.6,46.1,18.5 M18.3,7.8
						c-0.6-0.3-1.9,0.3-1.4,1.1c0.1,0.2,0.3,0.3,0.6,0.4c0.4,0.1,0.9-0.1,1.2-0.4c0.2-0.2,0.1-0.6,0-0.8C18.5,7.9,18.4,7.9,18.3,7.8
						 M13.6,9c-0.3,0.2-0.8,0.6-0.5,0.9c0.3,0.4,1.1,0.1,1.4,0c0.3-0.1,0.8-0.5,0.6-0.9c0-0.1-0.1-0.2-0.2-0.2
						C14.6,8.6,13.9,8.8,13.6,9 M15.4,4.2c-0.4,0-0.8,0.2-1.1,0.5c-0.1,0.2-0.2,0.4-0.1,0.6c0.2,0.2,0.4,0.3,0.7,0.2
						c0.4-0.1,0.8-0.3,1.1-0.7C16.3,4.4,15.8,4.2,15.4,4.2 M9.5,11.3c-0.1,0.4-0.2,0.9,0.3,0.9c0.7,0.1,1.5-0.7,1.7-1.3
						c0.1-0.3-0.1-0.6-0.4-0.7C10.4,10.1,9.7,10.8,9.5,11.3 M7.6,12.4c-0.3-0.1-0.8,0.3-1,0.4C6.3,13.2,6,13.6,6,14
						c0,0.3,0.2,0.6,0.5,0.7c0.8,0.1,1.6-1.1,1.5-1.8C8,12.7,7.8,12.5,7.6,12.4 M6,10c-0.1,0-0.1,0-0.2,0c-0.6,0.1-1.5,1.1-1.1,1.8
						C4.8,11.9,4.9,12,5,12c0.1,0,0.2,0,0.3-0.1c0.4-0.2,0.7-0.5,0.8-0.9c0.1-0.2,0.1-0.4,0.1-0.6C6.3,10.2,6.2,10.1,6,10 M4.1,13.7
						c-0.2-0.1-0.4,0-0.6,0.1c-0.5,0.3-1.2,1.7-0.3,2c0.3,0.1,0.5,0,0.7-0.2c0.4-0.3,0.7-1.1,0.5-1.6c0,0,0,0,0,0
						C4.4,13.8,4.3,13.7,4.1,13.7 M9.2,8.4C9.1,8.3,9,8.2,8.8,8.3C8.2,8.3,7.4,9,7.5,9.7c0,0.1,0.1,0.2,0.2,0.3
						c0.1,0.1,0.3,0.1,0.4,0c0.4-0.1,1.3-0.7,1.3-1.3C9.4,8.6,9.3,8.5,9.2,8.4 M5,16.5c-1,0-2.1,2.2-0.9,2.5c0.1,0,0.3,0,0.4,0
						c0.6-0.2,1.3-1.3,1.1-2C5.6,16.7,5.4,16.6,5,16.5 M22.6,6.3c-1.6,3.1-5.1,3.8-7.9,5c-2.3,1-4.3,2.4-5.9,4.2
						c-1.5,1.7-2.5,4.6-5.1,5c-2.1,0.3-2.6-1.8-2.4-3.6c0.3-2.2,1.8-5.7,4.8-8.3C7.7,7.2,9.5,6,11.4,5C11.2,6.1,11,7,11,7.4
						c-0.3,0.2-0.5,0.5-0.6,0.8c-0.1,0.1,0,0.3,0.1,0.4c0.1,0.1,0.3,0.2,0.5,0.1C11.4,8.3,12,8,12.6,7.8c0.5-0.1,1.1-0.2,1.3-0.2
						c0.2,0,0.3-0.2,0.4-0.4c0-0.2-0.1-0.4-0.3-0.5c-0.1,0-0.2-0.1-0.3-0.1l-0.4-2.6c3-1.3,5.2-1.6,5.2-1.6c-1.1,1.1-2,2.5-2.5,4
						C18.3,7.3,20.9,6.7,22.6,6.3">
      </path>
     </g>
    </g>
    <g>
     <defs>
      <rect id="SVGID_7_" width="56.2" height="62.6">
      </rect>
     </defs>
     <clipPath id="SVGID_8_">
      <use xlink:href="#SVGID_7_" style="overflow:visible;">
      </use>
     </clipPath>
     <g class="st4">
      <path class="st5" d="M18.8,61.8c-0.1,0-0.2-0.1-0.1-0.2c0.7-0.4,1.4-0.7,2.1-1c0.3,0.3,0.5,0.7,0.6,1.1L18.8,61.8 M39.9,60.7
						c0,0,1.9,0.9,2.1,1c0.1,0.1,0,0.2-0.1,0.2l-2.5-0.1C39.4,61.3,39.6,61,39.9,60.7 M24.5,11.2c-0.3,0.5-0.6,1.1-0.9,1.6
						c0-0.2,0-0.5-0.1-0.7C23.8,11.8,24.1,11.5,24.5,11.2 M22.6,13.2c0.1,0.3,0.3,0.6,0.6,0.8c-0.2,0.4-0.3,0.9-0.4,1.3
						c-0.3-0.9-0.6-1.2-0.8-1.2C22.1,13.8,22.3,13.5,22.6,13.2 M21.4,15c0,0.7,0.5,1.2,1,1.4c-0.1,0.5-0.3,1-0.4,1.5
						c-0.2-1-0.4-1.3-0.6-1.3c-0.2,0-0.3,0.1-0.5,0.3c-0.5,0.9,0.2,1.7,0.8,2.1c-0.2,0.5-0.4,1-0.5,1.4c-0.2-1.1-0.4-1.5-0.6-1.5
						c-0.2,0-0.3,0-0.4,0.2C20.2,17.6,20.7,16.2,21.4,15 M20.1,21.9c0-0.5-0.1-1-0.1-1.4c0.2,0.3,0.4,0.6,0.6,0.8
						c-0.2,0.3-0.3,0.6-0.5,0.8C20.1,22.1,20.1,22,20.1,21.9 M11.6,25.1c-0.1,0-0.6-0.1-0.8-0.2c-0.1-0.1-0.1-0.3,0-0.3
						c0.3-0.4,1.1-0.6,1.6-0.6C12.1,24.3,11.8,24.7,11.6,25.1 M11.3,25.8c-0.1,0-0.2,0-0.3,0.1c-0.2,0-0.3,0.1-0.5,0.3
						c0,0-0.1,0.1-0.1,0.1c0,0.1,0,0.1,0,0.2c0,0.1,0,0.1,0,0.2c0,0,0.1,0.1,0.1,0.1c0.1,0.1,0.3,0.1,0.5,0.1c0.1,0,0.2,0,0.3,0
						C11,26.7,11.1,26.2,11.3,25.8 M11.5,30.3c-0.2,0-0.4,0-0.6,0c-0.2,0-0.3-0.2-0.3-0.3c0-0.2,0.1-0.3,0.3-0.4c0.2,0,0.4,0,0.6,0
						c0,0,1,0,1,0.3C12.5,30.3,11.5,30.3,11.5,30.3 M12.8,28.4c0-0.1,0-0.1-0.1-0.2c-0.1-0.1-0.2-0.1-0.3-0.2
						c-0.1,0-0.3-0.1-0.4-0.1c-0.1,0-0.1,0-0.2,0l-0.2,0l-0.5,0c-0.2,0-0.4,0-0.5,0.2c-0.1,0.2-0.1,0.6,0.2,0.7c0.1,0,0.2,0.1,0.4,0
						c0.1,0,0.3,0,0.5,0l0.3,0c0.1,0,0.2,0,0.2,0c0.1,0,0.3,0,0.4-0.1c0.1,0,0.2-0.1,0.3-0.1C12.7,28.5,12.8,28.5,12.8,28.4
						 M22.8,61.7c-0.1-0.4-0.2-1.2-0.6-1.5c0.3-0.2,0.7-0.3,1-0.4c0.6,0.5,0.9,1.5,1,1.9L22.8,61.7z M25.6,61.5
						c-0.1-0.9-0.4-1.7-1-2.4l1.2-0.5c1.1,1.1,1.2,2.8,1.2,2.8S25.9,61.5,25.6,61.5 M29.8,61.5c-0.3,0-1.2,0-1.4,0
						C28,59.3,27,58.2,27,58.2c0-0.1,1.3-0.3,1.3-0.3s1.1,0.3,1.4,0.3L29.8,61.5L29.8,61.5z M29.8,57c-0.1,0.3-1.5-0.2-1.5-0.5
						c0-0.2-0.5-4.8-0.5-5l2-0.1C29.8,53,29.8,55.4,29.8,57 M37.4,59.7c0.4,0.1,0.7,0.3,1,0.4c-0.4,0.4-0.5,1.2-0.6,1.5l-1.4-0.1
						C36.5,61.2,36.9,60.1,37.4,59.7 M34.9,58.7l1.2,0.4c-0.6,0.7-0.9,1.5-1,2.4c-0.4,0-1.4,0-1.4,0S33.9,59.7,34.9,58.7 M33.6,58.2
						c0,0-0.9,1.1-1.3,3.3c-0.2,0-1.1,0-1.4,0l0-3.3c0.3,0,1.4-0.3,1.4-0.3S33.6,58.1,33.6,58.2 M30.9,51.3c0.5,0,1.5-0.1,2-0.1
						c0,0-0.5,5.1-0.5,5.3c0,0.4-1.4,0.8-1.5,0.5C30.9,55.4,30.9,52.9,30.9,51.3 M52.5,19c-0.1,0.2-0.2,0.5-0.3,0.7
						c-0.1,0.5-1.9,10.5-1.9,10.5s-1.6,0.5-8.1,2.1l-0.6-2.4c2.2-0.4,6.8-1.3,6.9-1.4c0.1-0.1,0.8-3.5,1.1-5.2
						c0-0.3,0.2-0.9-0.1-0.7c-0.4,0.4-1.3,0.9-1.8,0.4c-0.2-0.2-0.2-0.5-0.1-0.7c0.2,0,0.4-0.1,0.6-0.1c0.4-0.1,0.7-0.5,0.6-0.9
						c0,0,0,0,0,0c0.7-0.7,2.5-2.9,2-4.7s-3-1.5-4.5-0.4c-0.5,0.4-0.6,0.3-0.6,0.2c0-0.1,0-0.1,0-0.2c0-0.6,1.6-2.8,3.7-1.7
						c0.2,0.1,0.3,0.2,0.5,0.2c0.8,0-1.1-3.6-0.5-3.9c0.4-0.2,0.9,0.7,1.3,1.8c0.4,0.9,0.5,1.9,0.7,1.9c0.3,0,0.7-4.2,1.4-4.1
						c0.6,0.1,0,3.6-0.1,4c-0.1,0.4-0.1,0.5,0,0.6c0.3,0.1,0.6-0.5,1-1.1c0.6-0.9,1.1-1.6,1.3-1.4C55.8,12.9,53.7,16.9,52.5,19
						 M28.5,12c0.2,0.5,0.5,0.9,0.9,1.2c0.2,0.1,0.5,0.2,0.8,0.3c0.3,0,0.6,0,0.8,0c0.3-0.1,0.6-0.2,0.8-0.4
						c0.2-0.2,0.4-0.4,0.4-0.7c0.2-0.5,0.2-1,0-1.5l0-0.1c-0.1-0.1-0.2-0.2-0.3-0.2c-0.2,0-0.3,0.2-0.3,0.3c0,0.4,0,0.7-0.2,1
						c-0.1,0.3-0.4,0.5-0.7,0.6c-0.3,0.1-0.7,0.1-0.9-0.1c-0.2-0.1-0.3-0.2-0.4-0.3c-0.1-0.1-0.3-0.2-0.4-0.4
						c-0.1-0.1-0.2-0.2-0.3-0.1C28.5,11.6,28.4,11.8,28.5,12L28.5,12z M18.3,38.7c-1.5-2.2-3.6-5.5-4.9-8v-0.1l0-0.9c0,0,0,0,0,0
						c0.2,0.1,0.4,0,0.5-0.2c0.2-0.3-0.4-0.7-0.2-2.3c0.1-0.8,0.6-1.7,0.6-1.7c0,0,0-0.1,0-0.1c0-0.1-0.1-0.1-0.1-0.2
						c0,0-0.1-0.1-0.1-0.1c-0.1-0.1-0.4-0.2-0.8,0.7c-0.4,0.7-0.5,1.3-1.1,1.1c-1.1-0.3,0.4-2.2,0.7-2.5c0.4-0.4,1.1-0.7,1.7-0.7
						c1,0,0.9,2.6,0.7,4.2c0,0.3-0.2,1.6-0.2,1.6s0.8,1.9,1.6,3.2c0.2,0.4,0.8,1.3,1.3,1.9c0.2,0.2,0.3,0.5,0.5,0.7
						c0.1,0,0.8-0.6,1-0.8c0.3-0.3,3.1-3,3.8-3.6c0,0,0.1,0,0.1,0s0.1,0,0.2,0c0.1,0,0.3,0,0.4,0c0.3,0,0.5,0,0.8,0H25
						c0.2,0,0.4-0.1,0.5-0.3c0.1-0.3,0-0.6-0.3-0.7c-0.3-0.2-0.7-0.2-1.1-0.3c-0.2,0-0.4,0-0.6,0c-0.1,0-0.2,0-0.3,0
						c-0.1,0-0.2,0.1-0.3,0.1c0,0-0.1,0-0.1,0.1c-1.4-1.8-2.2-4.4-2.3-4.8c-0.1-0.3-0.2-0.7-0.2-1h0.1c0.1,0,0.3,0,0.4,0
						c0.8-0.1,1.3-0.4,1.5-1c0.1-0.3,0.1-0.4,0-0.5c-0.1-0.1-0.3-0.2-1.4,0.4c0.2-0.3,0.4-0.7,0.6-1c0.3,0,0.6-0.1,0.9-0.3
						c0.7-0.3,1.1-0.8,1.1-1.4c0-0.3,0-0.4-0.2-0.5c-0.1,0-0.4-0.1-1.3,0.9c0.1-0.3,0.3-0.7,0.4-1.1c0.3-0.1,0.6-0.2,0.8-0.3
						c0.7-0.4,1-0.9,1-1.5c0-0.3-0.1-0.4-0.2-0.5c-0.1,0-0.4-0.1-1.2,0.9c0.1-0.4,0.3-0.9,0.4-1.5c0-0.1,0-0.1,0-0.2
						c0.3,0,0.5-0.1,0.8-0.2c0.7-0.3,1.1-0.8,1.2-1.4c0-0.3,0-0.4-0.2-0.5c-0.1,0-0.4-0.2-1.4,1c0.1-0.5,0.3-1,0.5-1.4
						c0.3,0,0.6-0.1,1-0.1c0.7-0.2,1.2-0.6,1.3-1.2c0.1-0.3,0-0.4-0.1-0.5c-0.1-0.1-0.4-0.2-1.7,1c0.3-0.6,0.7-1.2,1.1-1.7
						c0.1,0,0.2,0,0.4,0c0.2,0,0.4,0,0.6,0c0.7-0.1,1.3-0.5,1.5-1.1c0.1-0.3,0.1-0.4-0.1-0.5c-0.1-0.1-0.3-0.2-1.2,0.4
						c0.2-0.3,0.5-0.5,0.8-0.7c3.1-1.5,7.3-2.5,12.8-2.6c4.4,0,5.7,0.8,5.7,1.4c0,2-5.7,5.6-9.4,6.6c-0.8,0.2-1.4,0.4-1,1.2l0.7,1.6
						c-1.7,0.2-4.9-0.3-6.5-0.6c0.3-0.4,0.6-0.7,0.9-1l0,0c0.1-0.1,0.1-0.2,0.1-0.4c-0.1-0.2-0.2-0.3-0.4-0.2
						c-0.3,0.1-0.5,0.2-0.8,0.3c-0.2,0.1-0.5,0.3-0.7,0.5c-0.4,0.4-0.7,0.9-1,1.4c-0.2,0.5-0.4,1.1-0.4,1.6c0,0.3,0,0.5,0,0.8
						c0,0.3,0,0.6,0.1,0.8c0,0.1,0.1,0.2,0.3,0.3c0.2,0,0.4-0.1,0.4-0.3c0,0,0,0,0,0v0c0-0.2,0.1-0.5,0.1-0.7c0-0.2,0.1-0.5,0.2-0.7
						c0.1-0.3,0.1-0.5,0.2-0.7c3.7,6,8.5,5.8,9.6,5.9c0,0,0.2,0,0.3,0l0.4,1.4C29.1,40.1,23,38.2,23,38.2v-2c0.3-0.3,1.6-2,1.3-2.5
						c-0.1-0.1-0.5-0.4-0.8,0C22.3,35.3,20,37.8,18.3,38.7 M32.9,10.8c0.3,1.1,1.4,1.7,2.5,1.5c0.3-0.1,0.6-0.2,0.8-0.4
						c0.2-0.2,0.4-0.4,0.5-0.7c0-0.1,0.1-0.1,0.1-0.2l0-0.2c0-0.1,0-0.3,0-0.4c0-0.2-0.1-0.5-0.1-0.7l0-0.1c0-0.1-0.2-0.2-0.3-0.2
						c-0.2,0-0.3,0.1-0.3,0.3c0,0.4-0.1,0.7-0.2,1c-0.1,0.1-0.2,0.3-0.3,0.4c-0.1,0.1-0.3,0.2-0.4,0.2c-0.3,0.1-0.7,0-1-0.1
						c-0.2-0.1-0.3-0.2-0.4-0.3c-0.1-0.1-0.3-0.2-0.4-0.4c-0.1-0.1-0.3-0.2-0.4-0.1C32.9,10.5,32.9,10.6,32.9,10.8L32.9,10.8z">
      </path>
     </g>
    </g>
    <g>
     <defs>
      <rect id="SVGID_9_" width="56.2" height="62.6">
      </rect>
     </defs>
     <clipPath id="SVGID_10_">
      <use xlink:href="#SVGID_9_" style="overflow:visible;">
      </use>
     </clipPath>
     <g class="st6">
      <path d="M17.4,9.2c0.4,0.1,0.9-0.1,1.2-0.4c0.2-0.2,0.1-0.6,0-0.8c-0.1-0.1-0.1-0.1-0.2-0.2c-0.6-0.3-1.9,0.3-1.4,1.1
						C16.9,9.1,17.2,9.2,17.4,9.2 M37.4,46.8l0-0.8L36,46.2l-0.1-0.9l1.4-0.1l0-0.8l-2.2,0.1l0.2,2.4L37.4,46.8z M4.5,14
						C4.5,14,4.5,14,4.5,14c-0.1-0.2-0.2-0.3-0.4-0.3c-0.2-0.1-0.4,0-0.6,0.1c-0.5,0.3-1.2,1.7-0.3,2c0.3,0.1,0.5,0,0.7-0.2
						C4.4,15.2,4.7,14.5,4.5,14 M34.5,47.8l-0.2-3.1l-0.8,0l0.3,3.9l3.7-0.2l0-0.8L34.5,47.8z M39.1,44.3l-0.8,0l0.3,3.9l3.7-0.2
						l0-0.8l-3,0.2L39.1,44.3z M55.7,11.5c-0.6-0.4-1.5,0.4-1.9,1.1c0.2-1.4,0.4-3.3-0.6-3.5c-1-0.2-1.8,2.2-1.8,3c0,0-1-3-2.1-2.6
						s-0.8,2-0.1,4.1c-2.5-1.3-4.4,1.8-4.2,3.3c-0.9,0.6-3.3,1.7-8.7,3.3c0,0-0.1,0-0.1,0c0,0,0,0.1,0.1,0.1
						c0.1,0.3,0.7,1.8,6.8,2.3c1.3,0.1,2.5,0.1,3.8,0c-0.1,0.2-0.1,0.4-0.1,0.5c0,0.4,0.2,0.7,0.5,1c0.3,0.2,0.6,0.3,1,0.3
						c0.1,0,0.2,0,0.3-0.1c0,0,0.1,0,0.1,0c0,0-0.4,2.2-0.9,3.5c-0.3,0.1-0.5,0.2-6.3,0.9L41,27.4c-0.4-1.2-1.1-4.1-1.1-4.1
						c-7,0.3-9.8-5.4-9.8-5.4c0.1,0,1.4,0.3,3.9,0.6c1,0.1,2.1,0.2,3.1,0.1c0.4,0,1-0.2,1-0.7c0-0.4-0.7-1.9-0.9-2.2
						c1.1-0.4,2.2-0.7,3.2-1.2c1.8-0.9,7-3.9,6.9-6.6c0-1.2-1.1-1.7-2-1.9c-3-0.8-10.1-0.9-15.6,1c-0.1,0-0.2,0.1-0.3,0.1
						c0-0.1,0-0.3,0-0.4c0-0.3-0.1-0.4-0.3-0.5c-0.1,0-0.4-0.1-1.4,1.5c-0.1,0-0.2,0.1-0.4,0.2c0.2-0.5,0.1-0.8,0-0.9
						c-0.1-0.1-0.3-0.1-0.6,0c-0.6,0.3-0.8,1-0.7,1.5l-0.3,0.2c0-0.2-0.1-0.4-0.2-0.4c-0.2-0.1-0.3,0-0.5,0.2
						c-0.2,0.2-0.4,0.6-0.4,0.9c-4.6,3.1-6,7.4-6,10.7c0,0.3,0,0.7,0,1c-0.1-0.1-0.2-0.1-0.2-0.1c-0.2,0-0.3,0.1-0.4,0.4
						c-0.1,0.6,0.1,1.2,0.6,1.7c0,0,0,0-0.1,0c-0.3,0-0.5,0.2-0.5,0.4c0,0.3,0.2,0.5,0.4,0.5c0,0,0,0,0,0h0c0.1,0,0.2,0,0.4-0.1
						c0.7,3.3,2,5.4,2.8,6.4c-0.1,0.1-1.8,2-3.1,2.9c-0.5-0.6-0.8-1.2-1.2-1.6c-0.5-0.9-1-1.8-1.4-2.7c0-0.1,0.1-0.7,0.2-1.2
						c0.1-0.8,0.2-1.6,0.2-2.4c0-0.2,0.1-2.9-1.9-2.9c-0.4,0-0.9,0.1-1.3,0.4v-0.4c0-1.7,0-5.4,0-5.4c0.6-0.3,0.9-0.9,0.9-1.6
						c0-0.3-0.1-0.6-0.2-0.8c0.2,0,0.4,0,0.7-0.1c0.2,0,0.3-0.2,0.4-0.3l0.2-0.7c0-0.2,0-0.3-0.2-0.4l-0.8-0.4v0
						c0.2-0.1,0.4-0.1,0.6-0.2c0.7-0.2,1.3-0.4,1.9-0.7c0.8-0.3,1.7-0.7,2.5-1.2c0.9-0.5,1.7-1,2.4-1.7c0.7-0.6,1.3-1.3,1.8-2.1
						c0.1-0.2,0.2-0.5,0.3-0.7C24,5.9,24.2,5,24.1,4.9c-0.1-0.1-3,0.9-4.8,0.9c-0.5,0-1.1,0-1.6-0.1c0.7-1.9,3.5-4.5,3.5-4.7
						s-3.4,0-7.9,1.7l-0.3-2c-0.2-1-0.6-1-0.8,0c-0.1,0.4-0.3,1.5-0.5,2.7c0,0-0.1,0-0.1,0.1c-0.3,0.2-4.1,2.4-5.9,4
						c-1.9,1.7-2.6,2.6-3.9,4.8c-1.1,1.8-2.1,4.8-1.5,6.9c0.8,2.8,2.7,3.5,4.9,2.3c0.9-0.5,1.7-1.2,2.4-2c1.1-1.3,2-2.6,3.1-3.8
						c0,0.6,0.3,1.1,0.8,1.5c0,0.1,0,0.1,0,0.2l0,5.9v0.2c0,0-0.1,0-0.1,0c-0.3,0-0.6,0.1-0.8,0.3c-0.2,0.1-0.3,0.2-0.4,0.3
						c-0.1,0.2-0.2,0.3-0.2,0.5c0,0.1,0,0.2,0,0.3c0,0.1,0,0.2,0.1,0.3c0,0.1,0.1,0.2,0.2,0.3c-0.1,0-0.1,0.1-0.2,0.2
						c-0.1,0.1-0.2,0.3-0.3,0.5c-0.1,0.2-0.1,0.3-0.1,0.5c0,0.2,0,0.3,0.1,0.5c0.1,0.2,0.2,0.3,0.3,0.4l0,0
						c-0.2,0.2-0.3,0.5-0.3,0.8c0,0.4,0.1,0.7,0.4,0.9c0,0,0.1,0,0.1,0.1l-0.1,0.1C10,29.6,10,29.8,10,30c0,0.2,0,0.4,0.1,0.5
						c0.1,0.2,0.3,0.4,0.5,0.5c0.2,0.1,0.4,0.1,0.5,0.1c0.1,0,0.2,0,0.3,0v0.2l0,31.4h2V33c1.3,2.1,3.2,5.5,3.9,6.4
						c0.2,0.2,0.4,0.6,0.7,0.6s0.6-0.1,0.9-0.3c0.2-0.1,0.4-0.3,0.6-0.4c0.5-0.3,0.9-0.7,1.3-1.1c0.1-0.1,0.3-0.2,0.4-0.4
						c0,0,0.3-0.2,0.3-0.2l-0.1,14.2l5-0.3l0.9,5.5l-0.8,0.2c0,0-0.5-0.4-0.8-0.3h0c-0.4,0.1-0.5,0.8-0.5,0.8l-1.2,0.5
						c0,0-0.5-0.4-0.9-0.2c-0.4,0.2-0.4,0.8-0.4,0.8l-1.1,0.5c0,0-0.5-0.4-0.8-0.2c-0.3,0.2-0.4,0.9-0.4,0.9
						c-3.1,1.3-4.6,2.6-2.8,2.6H43c1.8,0,0.3-1.3-2.8-2.7c0,0,0-0.7-0.4-0.9C39.5,59,39,59.3,39,59.3l-1.1-0.5c0,0,0-0.6-0.4-0.8
						s-0.9,0.2-0.9,0.2l-1.2-0.5c0,0-0.1-0.7-0.5-0.8c-0.4-0.1-0.8,0.3-0.8,0.3l-0.8-0.2l1-6l11.2-0.7l-3-16.8l8.5-2.4
						c0.2-0.1,0.4-0.3,0.4-0.5c0.4-2,1.7-10.8,1.7-10.8C56.4,14,56.6,12,55.7,11.5 M18.8,61.8c-0.1,0-0.2-0.1-0.1-0.2
						c0.7-0.4,1.4-0.7,2.1-1c0.3,0.3,0.5,0.7,0.6,1.1L18.8,61.8 M39.9,60.7c0,0,1.9,0.9,2.1,1c0.1,0.1,0,0.2-0.1,0.2l-2.5-0.1
						C39.4,61.3,39.6,61,39.9,60.7 M45.8,21.6c0-0.2-0.1-0.4-0.2-0.5c-0.2-0.2-0.5-0.3-0.8-0.4c-0.4,0-1.1,0.2-1.1,0.6
						c0,0.1,0,0.2,0,0.3c-2.2,0-4.6-0.3-5.9-1.2c1-0.2,2-0.4,2.9-0.8c0,0.2,0,0.4,0.1,0.5c0.3,0.4,0.8,0.5,1.3,0.5
						c0.4-0.1,0.8-0.3,0.8-0.7c0-0.2,0-0.4-0.1-0.6c-0.1-0.1-0.3-0.2-0.4-0.3c1.9-0.8,3.6-1.6,4.2-1.9c0.3,0.9,0.9,3.4,1,4.1
						c0,0.1,0,0.1-0.1,0.2c0,0,0,0-0.1,0C47.3,21.4,46.6,21.5,45.8,21.6 M47.6,16.4c0.8-0.2,1.8-0.3,2.2,0.6
						c0.6,1.3-0.6,2.7-1.1,3.3C48.3,18.9,47.9,17.2,47.6,16.4 M24.5,11.2c-0.3,0.5-0.6,1.1-0.9,1.6c0-0.2,0-0.5-0.1-0.7
						C23.8,11.8,24.1,11.5,24.5,11.2 M22.6,13.2c0.1,0.3,0.3,0.6,0.6,0.8c-0.2,0.4-0.3,0.9-0.4,1.3c-0.3-0.9-0.6-1.2-0.8-1.2
						C22.1,13.8,22.3,13.5,22.6,13.2 M21.4,15c0,0.7,0.5,1.2,1,1.4c-0.1,0.5-0.3,1-0.4,1.5c-0.2-1-0.4-1.3-0.6-1.3
						c-0.2,0-0.3,0.1-0.5,0.3c-0.5,0.9,0.2,1.7,0.8,2.1c-0.2,0.5-0.4,1-0.5,1.4c-0.2-1.1-0.4-1.5-0.6-1.5c-0.2,0-0.3,0-0.4,0.2
						C20.2,17.6,20.7,16.2,21.4,15 M20.1,21.9c0-0.5-0.1-1-0.1-1.4c0.2,0.3,0.4,0.6,0.6,0.8c-0.2,0.3-0.3,0.6-0.5,0.8
						C20.1,22.1,20.1,22,20.1,21.9 M8.8,15.5c-1.5,1.7-2.5,4.6-5.1,5c-2.1,0.3-2.6-1.8-2.4-3.6c0.3-2.2,1.8-5.7,4.8-8.3
						C7.7,7.2,9.5,6,11.4,5C11.2,6.1,11,7,11,7.4c-0.3,0.2-0.5,0.5-0.6,0.8c-0.1,0.1,0,0.3,0.1,0.4c0.1,0.1,0.3,0.2,0.5,0.1
						C11.4,8.3,12,8,12.6,7.8c0.5-0.1,1.1-0.2,1.3-0.2c0.2,0,0.3-0.2,0.4-0.4c0-0.2-0.1-0.4-0.3-0.5c-0.1,0-0.2-0.1-0.3-0.1
						l-0.4-2.6c3-1.3,5.2-1.6,5.2-1.6c-1.1,1.1-2,2.5-2.5,4c2.2,0.9,4.8,0.2,6.5-0.1c-1.6,3.1-5.1,3.8-7.9,5
						C12.4,12.2,10.4,13.7,8.8,15.5 M10.8,24.5c0.3-0.4,1.1-0.6,1.6-0.6c-0.3,0.4-0.6,0.7-0.8,1.2c-0.1,0-0.6-0.1-0.8-0.2
						C10.7,24.8,10.7,24.6,10.8,24.5 M10.4,26.3c0-0.1,0-0.1,0.1-0.1c0.1-0.1,0.3-0.2,0.5-0.3c0.1,0,0.2-0.1,0.3-0.1
						c-0.1,0.4-0.2,0.9,0,1.2c-0.1,0-0.2,0-0.3,0c-0.2,0-0.3-0.1-0.5-0.1c0,0-0.1-0.1-0.1-0.1c0-0.1-0.1-0.1,0-0.2
						C10.4,26.4,10.4,26.4,10.4,26.3 M11.5,30.3c-0.2,0-0.4,0-0.6,0c-0.2,0-0.3-0.2-0.3-0.3c0-0.2,0.1-0.3,0.3-0.4
						c0.2,0,0.4,0,0.6,0c0,0,1,0,1,0.3C12.5,30.3,11.5,30.3,11.5,30.3 M12.7,28.6c-0.1,0.1-0.2,0.1-0.3,0.1c-0.1,0-0.3,0.1-0.4,0.1
						c-0.1,0-0.1,0-0.2,0l-0.3,0c-0.2,0-0.3,0-0.5,0c-0.1,0-0.2,0-0.4,0c-0.3-0.1-0.3-0.5-0.2-0.7c0.1-0.2,0.3-0.2,0.5-0.2
						c0.2,0,0.3,0,0.5,0l0.2,0c0.1,0,0.2,0,0.2,0c0.1,0,0.3,0.1,0.4,0.1c0.1,0,0.2,0.1,0.3,0.2c0.1,0,0.1,0.1,0.1,0.2
						C12.8,28.4,12.7,28.5,12.7,28.6 M18.3,38.7c-1.5-2.2-3.6-5.5-4.9-8v-0.1l0-0.9c0,0,0,0,0,0c0.2,0.1,0.4,0,0.5-0.2
						c0.2-0.3-0.4-0.7-0.2-2.3c0.1-0.8,0.6-1.7,0.6-1.7c0,0,0-0.1,0-0.1c0-0.1-0.1-0.1-0.1-0.2c0,0-0.1-0.1-0.1-0.1
						c-0.1-0.1-0.4-0.2-0.8,0.7c-0.4,0.7-0.5,1.3-1.1,1.1c-1.1-0.3,0.4-2.2,0.7-2.5c0.4-0.4,1.1-0.7,1.7-0.7c1,0,0.9,2.6,0.7,4.2
						c0,0.3-0.2,1.6-0.2,1.6s0.8,1.9,1.6,3.2c0.2,0.4,0.8,1.3,1.3,1.9c0.2,0.2,0.3,0.5,0.5,0.7c0.1,0,0.8-0.6,1-0.8
						c0.3-0.3,3.1-3,3.8-3.6c0,0,0.1,0,0.1,0s0.1,0,0.2,0c0.1,0,0.3,0,0.4,0c0.3,0,0.5,0,0.8,0H25c0.2,0,0.4-0.1,0.5-0.3
						c0.1-0.3,0-0.6-0.3-0.7c-0.3-0.2-0.7-0.2-1.1-0.3c-0.2,0-0.4,0-0.6,0c-0.1,0-0.2,0-0.3,0c-0.1,0-0.2,0.1-0.3,0.1
						c0,0-0.1,0-0.1,0.1c-1.4-1.8-2.2-4.4-2.3-4.8c-0.1-0.3-0.2-0.7-0.2-1h0.1c0.1,0,0.3,0,0.4,0c0.8-0.1,1.3-0.4,1.5-1
						c0.1-0.3,0.1-0.4,0-0.5c-0.1-0.1-0.3-0.2-1.4,0.4c0.2-0.3,0.4-0.7,0.6-1c0.3,0,0.6-0.1,0.9-0.3c0.7-0.3,1.1-0.8,1.1-1.4
						c0-0.3,0-0.4-0.2-0.5c-0.1,0-0.4-0.1-1.3,0.9c0.1-0.3,0.3-0.7,0.4-1.1c0.3-0.1,0.6-0.2,0.8-0.3c0.7-0.4,1-0.9,1-1.5
						c0-0.3-0.1-0.4-0.2-0.5c-0.1,0-0.4-0.1-1.2,0.9c0.1-0.4,0.3-0.9,0.4-1.5c0-0.1,0-0.1,0-0.2c0.3,0,0.5-0.1,0.8-0.2
						c0.7-0.3,1.1-0.8,1.2-1.4c0-0.3,0-0.4-0.2-0.5c-0.1,0-0.4-0.2-1.4,1c0.1-0.5,0.3-1,0.5-1.4c0.3,0,0.6-0.1,1-0.1
						c0.7-0.2,1.2-0.6,1.3-1.2c0.1-0.3,0-0.4-0.1-0.5c-0.1-0.1-0.4-0.2-1.7,1c0.3-0.6,0.7-1.2,1.1-1.7c0.1,0,0.2,0,0.4,0
						c0.2,0,0.4,0,0.6,0c0.7-0.1,1.3-0.5,1.5-1.1c0.1-0.3,0.1-0.4-0.1-0.5c-0.1-0.1-0.3-0.2-1.2,0.4c0.2-0.3,0.5-0.5,0.8-0.7
						c3.1-1.5,7.3-2.5,12.8-2.6c4.4,0,5.7,0.8,5.7,1.4c0,2-5.7,5.6-9.4,6.6c-0.8,0.2-1.4,0.4-1,1.2l0.7,1.6
						c-1.7,0.2-4.9-0.3-6.5-0.6c0.3-0.4,0.6-0.7,0.9-1l0,0c0.1-0.1,0.1-0.2,0.1-0.4c-0.1-0.2-0.2-0.3-0.4-0.2
						c-0.3,0.1-0.5,0.2-0.8,0.3c-0.2,0.1-0.5,0.3-0.7,0.5c-0.4,0.4-0.7,0.9-1,1.4c-0.2,0.5-0.4,1-0.4,1.6c0,0.3,0,0.5,0,0.8
						c0,0.3,0,0.6,0.1,0.8c0,0.1,0.1,0.2,0.3,0.3c0.2,0,0.4-0.1,0.4-0.3c0,0,0,0,0,0v0c0-0.2,0.1-0.5,0.1-0.7c0-0.2,0.1-0.5,0.2-0.7
						c0.1-0.3,0.1-0.5,0.2-0.7c3.7,6,8.5,5.8,9.6,5.9c0,0,0.2,0,0.3,0l0.4,1.4C29.1,40.1,23,38.2,23,38.2v-2c0.3-0.3,1.6-2,1.3-2.5
						c-0.1-0.1-0.5-0.4-0.8,0C22.3,35.3,20,37.8,18.3,38.7 M22.8,61.7c-0.1-0.4-0.2-1.2-0.6-1.5c0.3-0.2,0.7-0.3,1-0.4
						c0.6,0.5,0.9,1.5,1,1.9L22.8,61.7z M25.6,61.5c-0.1-0.9-0.4-1.7-1-2.4l1.2-0.5c1.1,1.1,1.2,2.8,1.2,2.8S25.9,61.5,25.6,61.5
						 M29.8,61.5c-0.3,0-1.2,0-1.4,0C28,59.3,27,58.2,27,58.2c0-0.1,1.3-0.3,1.3-0.3s1.1,0.3,1.4,0.3L29.8,61.5L29.8,61.5z M29.8,57
						c-0.1,0.3-1.5-0.2-1.5-0.5c0-0.2-0.5-4.8-0.5-5l2-0.1C29.8,53,29.8,55.4,29.8,57 M37.4,59.7c0.4,0.1,0.7,0.3,1,0.4
						c-0.4,0.4-0.5,1.2-0.6,1.5l-1.4-0.1C36.5,61.2,36.9,60.1,37.4,59.7 M34.9,58.7l1.2,0.4c-0.6,0.7-0.9,1.5-1,2.4
						c-0.4,0-1.4,0-1.4,0S33.9,59.7,34.9,58.7 M33.6,58.2c0,0-0.9,1.1-1.3,3.3c-0.2,0-1.1,0-1.4,0l0-3.3c0.3,0,1.4-0.3,1.4-0.3
						S33.6,58.1,33.6,58.2 M30.9,51.3c0.5,0,1.5-0.1,2-0.1c0,0-0.5,5.1-0.5,5.3c0,0.4-1.4,0.8-1.5,0.5
						C30.9,55.4,30.9,52.9,30.9,51.3 M43.9,49.1l-21,1.4l0.1-11c1.8,0.2,3.2-0.2,5.3-1.2c2.9-1.4,6.8-4.7,10-9.2l1.1-1.6
						c-0.8,4.8-5.2,10.5-7.3,13.6c-0.2,0.2-0.3,0.5-0.3,0.7c0,0.1,0,0.4,0.1,0.4c0.1,0,0.2,0,0.3-0.1c0.1-0.1,0.3-0.2,0.4-0.3
						c0.1-0.2,0.3-0.3,0.4-0.5c0.4-0.5,0.8-1,1.3-1.6c3-4.3,5-7.5,5.9-11.3c0,0.1,0,0.3,0.1,0.4c0.8,4.3-0.4,6-1.7,8.5
						c-0.2,0.3-0.3,0.7-0.3,1c0.1,0.5,0.4,0.4,0.8,0c1-1.3,1.8-2.8,2.2-4.5L43.9,49.1z M52.5,19c-0.1,0.2-0.2,0.5-0.3,0.7
						c-0.1,0.5-1.9,10.5-1.9,10.5s-1.6,0.5-8.1,2.1l-0.6-2.4c2.2-0.4,6.8-1.3,6.9-1.4c0.1-0.1,0.8-3.5,1.1-5.2
						c0-0.3,0.2-0.9-0.1-0.7c-0.4,0.4-1.3,0.9-1.8,0.4c-0.2-0.2-0.2-0.5-0.1-0.7c0.2,0,0.4-0.1,0.6-0.1c0.4-0.1,0.7-0.5,0.6-0.9
						c0,0,0,0,0,0c0.7-0.7,2.5-2.9,2-4.7c-0.5-1.8-3-1.5-4.5-0.4c-0.5,0.4-0.6,0.3-0.6,0.2c0-0.1,0-0.1,0-0.2c0-0.6,1.6-2.8,3.7-1.7
						c0.2,0.1,0.3,0.2,0.5,0.2c0.8,0-1.1-3.6-0.5-3.9c0.4-0.2,0.9,0.7,1.3,1.8c0.4,0.9,0.5,1.9,0.7,1.9c0.3,0,0.7-4.2,1.4-4.1
						c0.6,0.1,0,3.6-0.1,4c-0.1,0.4-0.1,0.5,0,0.6c0.3,0.1,0.6-0.5,1-1.1c0.6-0.9,1.1-1.6,1.3-1.4C55.8,12.9,53.7,16.9,52.5,19
						 M46.1,18.5c-0.2-0.1-0.4-0.2-0.6-0.1c-0.3,0-0.6,0.1-0.8,0.4c-0.4,0.3-0.2,0.8,0.1,1.1c0.3,0.2,0.7,0.2,1,0
						c0.3-0.2,0.7-0.5,0.6-0.9C46.4,18.7,46.3,18.6,46.1,18.5 M40.1,46.7l2.2-0.1l0-0.8l-1.4,0.1l-0.1-0.9l1.4-0.1l0-0.8l-2.2,0.2
						L40.1,46.7z M5,16.5c-1,0-2.1,2.2-0.9,2.5c0.1,0,0.3,0,0.4,0c0.6-0.2,1.3-1.3,1.1-2C5.6,16.7,5.4,16.6,5,16.5 M24.9,48.4
						l-0.2-3.1l-0.8,0l0.3,3.9l3.7-0.2l0-0.8L24.9,48.4z M32.6,47.2l0-0.8l-1.4,0.1l-0.1-0.9l1.4-0.1l0-0.8l-2.2,0.1l0.2,2.4
						L32.6,47.2z M27.8,47.5l0-0.8l-1.4,0.1l-0.1-0.9l1.4-0.1l0-0.8l-2.2,0.1l0.2,2.4L27.8,47.5z M28.5,12c0.2,0.5,0.5,0.9,0.9,1.2
						c0.2,0.1,0.5,0.2,0.8,0.3c0.3,0,0.6,0,0.8,0c0.3-0.1,0.6-0.2,0.8-0.4c0.2-0.2,0.4-0.4,0.4-0.7c0.2-0.5,0.2-1,0-1.5l0-0.1
						c-0.1-0.1-0.2-0.2-0.3-0.2c-0.2,0-0.3,0.2-0.3,0.3c0,0.4,0,0.7-0.2,1c-0.1,0.3-0.4,0.5-0.7,0.6c-0.3,0.1-0.7,0.1-0.9-0.1
						c-0.2-0.1-0.3-0.2-0.4-0.3C29.2,12,29,11.9,29,11.7c-0.1-0.1-0.2-0.2-0.3-0.1C28.5,11.6,28.4,11.8,28.5,12L28.5,12z M32.9,10.8
						c0.3,1.1,1.4,1.7,2.5,1.5c0.3-0.1,0.6-0.2,0.8-0.4c0.2-0.2,0.4-0.4,0.5-0.7c0-0.1,0.1-0.1,0.1-0.2l0-0.2c0-0.1,0-0.3,0-0.4
						c0-0.2-0.1-0.5-0.1-0.7l0-0.1c0-0.1-0.2-0.2-0.3-0.2c-0.2,0-0.3,0.1-0.3,0.3c0,0.4-0.1,0.7-0.2,1c-0.1,0.1-0.2,0.3-0.3,0.4
						c-0.1,0.1-0.3,0.2-0.4,0.2c-0.3,0.1-0.7,0-1-0.1c-0.2-0.1-0.3-0.2-0.4-0.3c-0.1-0.1-0.3-0.2-0.4-0.4c-0.1-0.1-0.3-0.2-0.4-0.1
						C32.9,10.5,32.9,10.6,32.9,10.8L32.9,10.8z M29.7,48.1l-0.2-3.1l-0.8,0l0.3,3.9l3.7-0.2l0-0.8L29.7,48.1z M15.1,9
						c0-0.1-0.1-0.2-0.2-0.2c-0.4-0.2-1.1,0-1.4,0.2c-0.3,0.2-0.8,0.6-0.5,0.9c0.3,0.4,1.1,0.1,1.4,0C14.8,9.8,15.3,9.4,15.1,9
						 M7.6,12.4c-0.3-0.1-0.8,0.3-1,0.4C6.3,13.2,6,13.6,6,14c0,0.3,0.2,0.6,0.5,0.7c0.8,0.1,1.6-1.1,1.5-1.8
						C8,12.7,7.8,12.5,7.6,12.4 M8.8,8.3C8.2,8.3,7.4,9,7.5,9.7c0,0.1,0.1,0.2,0.2,0.3c0.1,0.1,0.3,0.1,0.4,0
						c0.4-0.1,1.3-0.7,1.3-1.3c0-0.1,0-0.3-0.1-0.4C9.1,8.3,9,8.2,8.8,8.3 M11,10.3c-0.6-0.2-1.4,0.5-1.6,1
						c-0.1,0.4-0.2,0.9,0.3,0.9c0.7,0.1,1.5-0.7,1.7-1.3C11.5,10.7,11.3,10.4,11,10.3 M14.9,5.6c0.4-0.1,0.8-0.3,1.1-0.7
						c0.3-0.5-0.2-0.7-0.5-0.7c-0.4,0-0.8,0.2-1.1,0.5c-0.1,0.2-0.2,0.4-0.1,0.6C14.4,5.5,14.7,5.6,14.9,5.6 M6.3,10.4
						c0-0.2-0.1-0.3-0.3-0.4c-0.1,0-0.1,0-0.2,0c-0.6,0.1-1.5,1.1-1.1,1.8C4.8,11.9,4.9,12,5,12c0.1,0,0.2,0,0.3-0.1
						c0.4-0.2,0.7-0.5,0.8-0.9C6.3,10.9,6.3,10.6,6.3,10.4">
      </path>
     </g>
    </g>
    <g>
     <defs>
      <rect id="SVGID_11_" width="56.2" height="62.6">
      </rect>
     </defs>
     <clipPath id="SVGID_12_">
      <use xlink:href="#SVGID_11_" style="overflow:visible;">
      </use>
     </clipPath>
     <g class="st7">
      <path d="M42.4,56.7c0.6,0,1.1,0.5,1.1,1.1c0,0.6-0.5,1.1-1.1,1.1c-0.6,0-1.1-0.5-1.1-1.1C41.3,57.2,41.8,56.7,42.4,56.7
						C42.4,56.7,42.4,56.7,42.4,56.7 M42.4,56.9c-0.5,0-0.9,0.4-0.9,0.9c0,0,0,0,0,0c0,0.5,0.4,0.9,0.8,0.9c0,0,0,0,0.1,0
						c0.5,0,0.9-0.4,0.9-0.9S42.9,56.9,42.4,56.9 M42.2,58.4H42v-1.2h0.5c0.3,0,0.4,0.1,0.4,0.4c0,0.2-0.1,0.3-0.3,0.3c0,0,0,0,0,0
						l0.4,0.5h-0.2l-0.3-0.5h-0.2L42.2,58.4L42.2,58.4z M42.2,57.7h0.2c0.2,0,0.3-0.1,0.3-0.2c0-0.1-0.1-0.2-0.3-0.2h-0.3L42.2,57.7
						L42.2,57.7z">
      </path>
     </g>
    </g>
   </g>
  </g>
 </g>
</svg>