<svg version="1.1" id="Layer_1" xmlns="http://www.w3.org/2000/svg" xmlns:xlink="http://www.w3.org/1999/xlink" x="0px" y="0px" viewBox="0 0 538.8 241.6" style="enable-background:new 0 0 538.8 241.6;" xml:space="preserve">
 <style type="text/css">
  .st0{fill:#32292A;}
	.st1{fill:#FAC008;}
	.st2{fill:#FEFEFE;}
 </style>
 <g>
  <g>
   <path class="st0" d="M121,0C54.2,0,0,54.2,0,120.8c0,66.7,54.2,120.8,121,120.8c66.7,0,121-54.1,121-120.8C242,54.2,187.7,0,121,0
			z">
   </path>
   <path class="st1" d="M121,12C60.7,12,11.9,60.8,11.9,120.8c0,60.1,48.8,108.9,109.1,108.9c60.1,0,109-48.8,109-108.9
			C230,60.8,181.1,12,121,12z">
   </path>
   <path class="st0" d="M190.2,161.6c0.2-1.2-0.1-2.7-1.4-3.1c-4.8-1.4-8.3-7.5-6.9-15.6c1.5-8.3,4.2-21.4-1.2-28.1
			c0,0-21.5-10.5-41.4-20.2c-4.8,0-9.7-0.4-13.1-1.4c0.9,2.2,3.1,8.8,3.3,13.1c-8.1,0.4-25.2-5.6-31.4-13.1
			c2.9-6.8,3.2-12.1,2.2-16.5C86.7,74.1,69.3,80.2,66,95c-7.7-5.6-25.3-5.9-32.4,6.9c-5.7,10.5-1.9,29.5-0.9,34.4
			c1,4.6,2.1,8,3.8,10c1.6,1.9,5.1,2.7,8.4,3c2,9.9,12.5,9.7,9.5,18.4c5-1.9,6.6-8.8,4.5-13.2c1.9,0,5.1,2.4,4.1,6.6
			c6-1.1,4.1-9.9,7.4-11.1c1.9,13,14.8,17.3,11,26.5c2.9,0,6.3-2,6.4-5.1c0,0,5,8.2,3.5,12.3l-6.1,9h16.5l1.9-7.7c0,0-4-10.8-3.7-17
			c2.1-0.4,5,2.2,4.8,4.6c5.8-4.3-3.6-12.5-1.4-19.2c1.2,5.9,6.8,7.2,7.4,12c14.5-3.2,30-15,40.3-15c0,0,6.8,14.8,24.9,15.5
			c3.1,5.3,5,15,4.1,16.8l-5.8,9.9h15.9l2.3-7.2C189.9,179.3,188.1,169.2,190.2,161.6z">
   </path>
   <path class="st2" d="M123.1,31.7c-15,7.9-15.7,19.7-15.7,19.7s8.3-3,15.4-2.8c-4.2,6.5-10.3,11-10.3,11s10.2-0.1,17.2,2.7
			c-4.5,4.1-12.5,5.2-12.5,5.2s2.7,2.5,5.2,9.8c-7.2,0.1-12.1-2.6-12.1-2.6s0.6,9.2-3.5,18.7c2.4-2,6.3-6.8,6.9-13.4
			c5.2,2.5,14.4,0.9,14.4,0.9s-1.4-6.8-4.1-10.3c7.9-1.2,17.2-9.5,17.2-9.5s-7.6-4.7-17.6-5.2c4-3.2,8.2-11.7,8.2-11.7
			s-10.4-1.2-16.9,1.4c11.2-14.8,38.2-8.8,44.1-5.1c-5.7,0.5-14.9,4.7-17.4,7.5c21.5-1.8,42.2,17.1,48.9,30.7
			c-11.3-4.3-32.7,5-50.2,3c4.8,2.3,9.9,7.8,11.9,11.7c-7.3,1.6-19.5,1.9-26.2,0c0.9,2.2,3.1,8.8,3.3,13.1
			c-8.1,0.4-25.2-5.6-31.4-13.1c9.2-21.9-7.7-28-8.3-39.2C89.4,46.5,99.8,34.8,123.1,31.7z">
   </path>
   <path class="st2" d="M56.8,96.9c5.6,8.2-0.4,12.2-5.5,14c-0.9,0.4-2.5,1.4-2.5,3.6c0,2.2,1.7,4,3.8,4c0.9,0,1.7-0.2,2.1-0.4
			C69.6,113.2,64.6,97.6,56.8,96.9z">
   </path>
   <path class="st2" d="M38.1,123.7c1.2-3.2,5.6-4,7.8-2.2C45,124.1,41,125.4,38.1,123.7z">
   </path>
  </g>
  <g>
   <path class="st0" d="M345.9,45.1c0,10.2-0.7,18.9-16.8,18.9c-16.1,0-16.7-8.6-16.7-18.9c0-1,0-24.2,0-24.2h11.1v21.3
			c0,10.2-0.1,12.1,5.6,12.1c5.9,0,5.7-1.9,5.7-12.1V20.8h11.1V45.1z">
   </path>
   <path class="st0" d="M525.5,39.1v6c0,10.2-0.7,18.9-17.4,18.9c-16.7,0-17.4-8.6-17.4-18.9c0-1,0-5,0-6c0-10.2,0.7-18.9,17.4-18.9
			C524.8,20.2,525.5,28.8,525.5,39.1z M501.8,39.4v5.6c0,7.9,0.3,9.2,6.3,9.2c6,0,6.3-1.3,6.3-9.2c0-0.9,0-4.7,0-5.6
			c0-8-0.3-9.4-6.3-9.4C502.1,30,501.8,31.3,501.8,39.4z">
   </path>
   <path class="st0" d="M380.9,73.7h20.1v76.9h-20.1V73.7z">
   </path>
   <path class="st0" d="M357.3,161.2h15.1v57.7h-15.1V161.2z">
   </path>
   <path class="st0" d="M477.2,186.8c0,0-8.9,0-14,0c-11,0-11.6,11.4-11.6,11.4h10.8v2.8c-0.3,4.4-2.6,5.4-7.8,5.4
			c-8.2,0-8.5-1.8-8.5-12.6c0-1.2,0-6.3,0-7.4c0-11,0.3-12.7,8.5-12.7c5.7,0,7,1.2,7.5,6.7l14.5-5.3c-1.5-8.6-6.3-14.6-22-14.6
			c-22.7,0-23.5,11.7-23.5,25.4v8.2c0,13.7,0.9,25.4,23.5,25.4c13.8,0,19.5-4.8,21.5-11.7C477.6,202.4,475.6,193.9,477.2,186.8z">
   </path>
   <path class="st0" d="M409.4,161.2v27.3l-13-27.3H378c0,0,2.3,3.8,2.3,10.2v47.5h15.1v-27.5l11.7,24.4c1,2,2.3,3.1,5,3.1h12.4
			v-57.7H409.4z">
   </path>
   <path class="st0" d="M503.7,182.5c-5.9-0.9-7.2-1.8-7.2-4.2c0-2.8,1.8-4.7,6-4.7c4.8,0,6,0.7,7.7,5.1l14.2-5.3
			c-1.6-9.2-7.5-13.1-21.4-13.1c-16.8,0-21.7,7-21.7,17.8c0,11.5,5.3,16.4,23.3,18.8c4.3,0.6,6.1,1.5,6.1,4.7c0,3.1-1.3,4.7-6.3,4.7
			c-5.3,0-6.2-1.2-7.5-5.7l-15.4,5.6c1.9,9.5,8.6,13.4,21.8,13.4c16.3,0,22.2-7.5,22.2-17.5C525.8,190.1,519.2,185,503.7,182.5z">
   </path>
   <path class="st0" d="M527.4,107.3c0-18.1-1.3-33.6-32.2-33.6h-29.4c0,0,2,1.5,2,11.8v65l27.4,0c30.9,0,32.2-15.6,32.2-33.5
			c0-1.6,0-3.2,0-5C527.4,110.5,527.4,108.9,527.4,107.3z M507.2,117.5c0,13.6-0.6,15.5-12,15.5h-7.3V97.2c0-4.4-2.6-6-2.6-6h10
			c11.4,0,12,1.9,12,15.5V117.5z">
   </path>
   <path class="st0" d="M444,133h-12.9V73.7H411v76.9h50.1v-21.2C461.1,129.4,456.9,133,444,133z">
   </path>
   <path class="st0" d="M477.6,53.7h-7.2V20.8h-11.1v42.7h27.8V51.6C487.2,51.6,484.8,53.7,477.6,53.7z">
   </path>
   <path class="st0" d="M299.9,40.7c3.7-0.9,5.7-3.1,5.7-9.8c0-9.2-5.1-10.2-14.8-10.2h-18.3c0,0,1.9,2.3,1.9,8.8v34h15.8
			c10.8-0.1,16.5-1,16.5-11.7C306.8,44,304.5,41.6,299.9,40.7z M284.4,30h4.1c5,0,6.1,0,6.1,3.5c0,2.8-0.7,3.2-3.8,3.3h-5.3v-4.1
			C285.6,30.7,284.4,30,284.4,30z M287.9,54.1h-2.3v-9.1h5.1c4,0,5,0.6,5,4.5C295.7,54.3,294.2,54.1,287.9,54.1z">
   </path>
   <path class="st0" d="M441.2,20.8h-17.1c0,0,1.5,3.5,0.6,6.1l-11.3,36.5h11.4l2.9-10.2h12.4l2.8,10.2h11.6L441.2,20.8z M430.2,44
			l3.6-13l3.8,13H430.2z">
   </path>
   <path class="st0" d="M353.5,73.7l-9.8,52.9l-8.3-47.6c-0.9-4.2-4-5.3-6.4-5.3h-16c2.8,5.1-1,10.8-9.4,52.9l-9.8-52.9h-23.9
			c0,0,4,3.7,5.4,10.1l13.3,66.8h21.7c4.1,0,6.4-3.8,7-6.9l6.3-32.6l7.6,39.4h21.8c3.7,0,6.1-2.9,6.9-6.3L374,73.7H353.5z">
   </path>
   <path class="st0" d="M336.7,161.2l-7.3,39.6l-6.3-35.6c-0.6-3.2-2.9-3.9-4.8-3.9h-12c2.1,3.8-0.7,8.2-7,39.6l-7.3-39.6h-18
			c0,0,3.1,2.8,4.1,7.6l10,50.1h16.2c3.1,0,4.8-2.9,5.3-5.3l4.8-24.4l5.7,29.7h16.4c2.6,0,4.5-2.3,5.1-4.8l10.4-52.9H336.7z">
   </path>
   <path class="st0" d="M387.6,20.8v42.7h11.1V47.4h5.9c4.1,0,5.7-2.5,7.6-9.8h-13.5v-7.2H411c3.6,0,5.3,1.5,5.3,1.5V20.8H387.6z">
   </path>
   <path class="st0" d="M352.9,20.8v42.7h11.1V47.4h5.9c4.1,0,5.9-2.5,7.6-9.8h-13.5v-7.2h12.3c3.7,0,5.3,1.5,5.3,1.5V20.8H352.9z">
   </path>
   <path class="st0" d="M538.8,214.4c0,2.8-2.3,5.1-5.3,5.1c-2.8,0-5.1-2.3-5.1-5.1c0-2.9,2.3-5.3,5.1-5.3
			C536.5,209.1,538.8,211.5,538.8,214.4z M529.2,214.4c0,2.3,2,4.4,4.4,4.4c2.5,0,4.4-2,4.4-4.4c0-2.5-1.9-4.4-4.4-4.4
			C531.2,210,529.2,211.9,529.2,214.4z M533.3,211.5c1.2,0,2.2-0.1,2.2,1.6c0,1-0.4,1.3-1.2,1.5l1.3,2.6h-0.7l-1.3-2.6h-1v2.6h-0.7
			v-5.7H533.3z M532.5,213.9h0.7c1,0,1.5,0,1.5-0.9c0-1-0.4-1-1.5-1h-0.7V213.9z">
   </path>
  </g>
 </g>
</svg>