<svg xmlns="http://www.w3.org/2000/svg" width="69.112" height="71.513" viewBox="0 0 69.112 71.513" xmlns:xlink="http://www.w3.org/1999/xlink">
 <defs>
  <style>
   .a{fill:#e21936;}.b{fill:#b40938;}.c{fill:#fff;}.d{fill:#d7d8da;}
  </style>
 </defs>
 <g transform="translate(-22.34 -23.24)">
  <path class="a" d="M62.656,220.16H59.295v-1.369a.478.478,0,0,0-.479-.479h-.5a.477.477,0,0,0-.476.479v7.267a.442.442,0,0,0,.476.395h.5a.443.443,0,0,0,.479-.395l0-4.546h2.863a.479.479,0,0,1,.476.479l0,4.064a.442.442,0,0,0,.476.395h.5a.442.442,0,0,0,.476-.395V221.59a1.426,1.426,0,0,0-1.427-1.43m-6.769,0h-1.7v-1.369a.476.476,0,0,0-.476-.476h-.5a.476.476,0,0,0-.476.476v6.231a1.435,1.435,0,0,0,1.43,1.43l1.721,0a.479.479,0,0,0,.476-.479v-.4a.479.479,0,0,0-.476-.479h-1.22a.476.476,0,0,1-.476-.476v-3.109h1.7a.476.476,0,0,0,.476-.476v-.4a.48.48,0,0,0-.479-.479M39.717,217.94h-.5a.476.476,0,0,0-.476.476v.4a.476.476,0,0,0,.476.476h.5a.476.476,0,0,0,.476-.476v-.4a.478.478,0,0,0-.476-.476m0,2.223h-.5a.476.476,0,0,0-.476.476v5.339a.476.476,0,0,0,.476.476h.5a.476.476,0,0,0,.476-.476v-5.339a.478.478,0,0,0-.476-.476m6.963,0H42.341a.476.476,0,0,0-.476.476v5.423a.442.442,0,0,0,.476.391h.5a.442.442,0,0,0,.476-.391v-4.546h2.863a.476.476,0,0,1,.476.476l0,4.067a.442.442,0,0,0,.476.392h.5a.442.442,0,0,0,.476-.392V221.59a1.428,1.428,0,0,0-1.427-1.43m41.611-.01H84.9a1.435,1.435,0,0,0-1.43,1.43v3.426a1.437,1.437,0,0,0,1.43,1.433h3.388a1.437,1.437,0,0,0,1.43-1.433v-3.423a1.435,1.435,0,0,0-1.43-1.433m-.023,4.462a.476.476,0,0,1-.476.476H85.4a.476.476,0,0,1-.476-.476v-2.63a.476.476,0,0,1,.476-.476h2.388a.476.476,0,0,1,.476.476Zm8.836-3.954-.356-.353a.473.473,0,0,0-.673,0l-1.98,1.977-1.977-1.977a.476.476,0,0,0-.676,0l-.353.353a.482.482,0,0,0,0,.676l1.977,1.977-1.977,1.977a.482.482,0,0,0,0,.676l.353.353a.482.482,0,0,0,.676,0L94.1,224.34l1.98,1.977a.478.478,0,0,0,.673,0l.356-.353a.482.482,0,0,0,0-.676l-1.977-1.977,1.977-1.977a.482.482,0,0,0,0-.676m-16.329-.5H77.413v-1.369a.477.477,0,0,0-.479-.476h-.5a.476.476,0,0,0-.476.476v7.27a.44.44,0,0,0,.476.391h4.342a1.438,1.438,0,0,0,1.433-1.433V221.6a1.444,1.444,0,0,0-1.437-1.437m-.019,4.462a.476.476,0,0,1-.476.476H77.41l0-3.582h2.863a.476.476,0,0,1,.476.476h0Zm-10.713-4.507h-3.19a1.435,1.435,0,0,0-1.43,1.43v3.436a1.434,1.434,0,0,0,1.43,1.427h3.96a.476.476,0,0,0,.476-.476v-.4a.479.479,0,0,0-.476-.479H67.354a.476.476,0,0,1-.476-.476v-.563H71a.477.477,0,0,0,.476-.479v-1.987a1.443,1.443,0,0,0-1.433-1.437m-.023,2.546H66.879v-.8a.381.381,0,0,1,.385-.388h2.359a.388.388,0,0,1,.4.388v.8Zm28.728-4.274a1.078,1.078,0,1,0,1.055,1.077,1.047,1.047,0,0,0-1.055-1.077m0,1.967a.892.892,0,1,1,.825-.89.829.829,0,0,1-.825.89m.479-1.123c0-.243-.149-.343-.434-.343H98.34v1.194h.2v-.508h.184l.307.508h.223l-.336-.521a.313.313,0,0,0,.311-.33m-.692.171v-.349h.236c.12,0,.259.019.259.162,0,.175-.129.188-.275.188Z" transform="translate(-11.094 -131.706)">
  </path>
  <path class="a" d="M56.9,23.24,26.355,32.021a5.724,5.724,0,0,0-4.015,5.685V67.5a5.725,5.725,0,0,0,4.012,5.685L56.895,81.97V23.24Z">
  </path>
  <path class="b" d="M129.15,23.24l30.543,8.781a5.722,5.722,0,0,1,4.012,5.685V67.5a5.727,5.727,0,0,1-4.009,5.685L129.15,81.97Z" transform="translate(-72.252)">
  </path>
  <path class="c" d="M61.963,85.361c-.77,1.446-3.96,4.963-5.785,4.465-1.647-.447-2.634-1.941-2.789-6.206-.126-3.507.99-8.752,2.676-9.541.2-.094.142-.087.327.032.34.214,1.129.715,1.136,4.546,0,.754-.087,1.644-.133,2.116-.042.4-.042.4.052.443a5.141,5.141,0,0,0,1.841.214c1.119-.006,1.239-.89,1.31-1.417l.006-.049c.579-4.229-.055-7.432-1.65-9.027a2.968,2.968,0,0,0-2.465-.819c-2.77.343-7.011,6.914-5.84,17.97a.985.985,0,0,1-.534.958c-.4.11-.563.026-.951-.391a5.043,5.043,0,0,1-.877-2.572A50.02,50.02,0,0,1,49.48,73.319c.2-.912.22-.987,0-1.229-.178-.2-.489-.2-1.032-.146l-.288.036c-.569.061-.77-.278-1.016.806-.272,1.194-.9.388-1.281.162a2.572,2.572,0,0,0-2.449-.094c-1.171.65-3.109,3.067-3.523,8.726-.029-.2-.052-.353-.058-.424-1.039-9.6-3.113-19.794-3.213-20.2-.226-.728-2.278-1.165-2.653-1.074-.23.052-.026.434.466,3.659,1.268,8.318,2.983,22.907,1.75,26.744a2.131,2.131,0,0,1-3.837.615,13.079,13.079,0,0,1-1.834-4.122,1.576,1.576,0,0,0-.446.32c-.336.324-.32.32-.275.854a13.108,13.108,0,0,0,1.663,5.2c1.932,3.122,5.015,3.054,6.568,1.737.964-.815,2.1-2.249,2.317-5.63.058-.906.061-1.912.045-2.718.214,1.259.676,3.5,2.019,4.326a3.148,3.148,0,0,0,3.475-.149,4.027,4.027,0,0,0,.993-1.517c.139.055,1.485,4.358,4.122,2.44.951-.7,1.019-1.488,1.721-.55,2.43,3.242,6.516,1.87,9.211-1.5a8.993,8.993,0,0,0,1.356-2.1,20.28,20.28,0,0,0-1.317-2.132M45.682,80.311c-.107,2.145-.2,3.507-.391,5.494-.123,1.32-.388,2.556-1.3,2.482-.589-.133-1.281-.456-1.644-2.85a20.2,20.2,0,0,1,.33-6.613,5.417,5.417,0,0,1,1.21-2.6c1.178-1.11,1.912-.139,1.9,1.838-.01.948-.087,1.825-.107,2.255" transform="translate(-5.023 -24.781)">
  </path>
  <path class="d" d="M159.828,72.225a1.045,1.045,0,0,0-.511.469c-1.174,6.115-4.581,10.641-10.046,11.324a10.6,10.6,0,0,1-11.153-5.546,17.993,17.993,0,0,1-1.948-4.743c-.152-.6,2.52-3.142,5.808-9.486a25.976,25.976,0,0,0,1.718-4.416,2,2,0,0,0-1.472-1.8c-3.436,5.724-8.373,12.016-8.425,10.958a174,174,0,0,0-.165-22.224c-.175-.3-1.437-.181-1.789-.181a1.159,1.159,0,0,0-.647.239s-.456,1-.809,9.9c-.165,4.183-.314,12.5-.314,12.5s-.22,5.986-.935,7.205l.006,4.167a10.678,10.678,0,0,0,1.022-1.42c-.006.722-.013,1.5,0,1.977.058,2.33.291,3.834.764,4.255s2.485-.023,2.779-.382-.327-6.875-.233-7.461c.065-.246.207-.1.327.162,3.129,6.788,9.011,10.214,14.579,9.464,6.215-.841,10.467-6.539,11.793-14.236,0,0,.343-1.013-.349-.722" transform="translate(-72.245 -15.773)">
  </path>
 </g>
</svg>