<svg version="1.1" id="Layer_1" xmlns="http://www.w3.org/2000/svg" xmlns:xlink="http://www.w3.org/1999/xlink" x="0px" y="0px" viewBox="0 0 202.9 174.9" style="enable-background:new 0 0 202.9 174.9;" xml:space="preserve">
 <style type="text/css">
  .st0{fill:#FFFFFF;}
	.st1{fill:#0062AA;}
	.st2{fill:#F18A21;}
 </style>
 <g>
  <g>
   <path class="st0" d="M178.2,131.1c0,2.8,2.3,5.1,5.2,5.1c2.8,0,5.1-2.3,5.1-5.1c0-2.8-2.3-5.1-5.1-5.1
			C180.5,126,178.2,128.3,178.2,131.1">
   </path>
   <path class="st0" d="M98.7,1.6L66,21v5.2c-0.1-0.1-3.7-2.8-3.7-2.8L33.8,41.1v4.3c-0.6-0.2-4.2-1.5-4.2-1.5L4.7,58.2
			c0,0,1,5.6,1.3,7.4C5.2,66,0,68.3,0,68.3L4.4,89c0,0,4.6,1.7,6.3,2.3c0.9,5.2,6.3,34.4,6.3,34.4c0.3,1.5,0.7,3.1,1.2,4.8
			c-1.9,0.5-9.5,2.5-9.5,2.5l5,15l87.8,26.9l87.8-26.9l5-15c0,0-7.4-2-9.2-2.4c0.9-4.9,6.3-34.3,7.2-39.2c1.7-0.6,6.3-2.3,6.3-2.3
			l4.4-20.7c0,0-5.2-2.3-6.1-2.6c0.3-1.8,1.3-7.4,1.3-7.4l-3.3-1.9l-21.6-12.4c0,0-3.6,1.3-4.2,1.5v-4.3l-28.4-17.6
			c0,0-3.6,2.7-3.7,2.8V21L101.5,0L98.7,1.6z">
   </path>
   <path class="st1" d="M30.2,49.8L10.8,61c0,0,1,5.5,1.4,7.9c-1.4,0.6-5.9,2.6-5.9,2.6l2.9,13.4c0,0,4.5,1.7,6.4,2.4
			c0.5,2.6,4.1,22.3,6.8,37.4c1.8,9.7,8.3,19.2,8.3,19.2l70.7,23.6l75.8-25.3c0,0,9.3-50.6,10.1-54.9c1.9-0.7,6.4-2.4,6.4-2.4
			l2.9-13.4c0,0-4.5-2-5.9-2.6c0.4-2.3,1.4-7.9,1.4-7.9l-19.4-11.2l-9.1,3.3V44L141,30l-9.4,7.1v-13l-30-17.8l-1.8,1.1L71.5,24.1v13
			L62,30L39.3,44v9.1L30.2,49.8z">
   </path>
  </g>
  <polygon class="st0" points="101.5,163.1 174.1,138.7 184.1,84 175.5,80.4 173.4,77 190.6,81.6 192.3,74 186.4,71.4 187.9,63.2 
		172.6,54.4 172.6,66.1 159.9,60.4 159.9,46.5 141.3,35 141.3,52.5 127.8,46.6 127.8,26.6 101.5,11 	">
  </polygon>
  <polygon class="st2" points="101.5,11 75.2,26.6 75.2,46.6 61.7,52.5 61.7,35 43.1,46.5 43.1,60.4 32.8,65 30.4,61.5 30.4,54.4 
		15.1,63.2 16.6,71.4 10.7,74 12.4,81.6 31.1,76.7 31.1,79.7 18.9,84 28.9,138.7 101.5,163.1 	">
  </polygon>
  <polygon class="st1" points="175.7,133.6 101.5,164.5 27.3,133.6 15.8,136.7 18.1,143.4 101.5,169 184.9,143.4 187.2,136.7 	">
  </polygon>
  <rect x="99.7" y="10.1" class="st1" width="3.6" height="156.2">
  </rect>
  <path class="st0" d="M102.1,63L102.1,63L102.1,63z">
  </path>
  <path class="st0" d="M145.2,64L145.2,64L145.2,64C145.2,64.1,145.2,64,145.2,64">
  </path>
  <path class="st0" d="M182.1,125.8l0-7.7c0-0.5-0.2-2.3-2.3-3c-3.5-1.2-7.1-3.4-10.5-6.4c0,0,0.1,0.1,0.1,0.1
		c-0.8-0.8-2.3-1.4-4-0.3l-3.8,2.4c-2.6,1.7-5.1,3.3-8,4.5c0,0-0.1,0-0.1,0.1c-1.4,0.7-2,2.1-2,3.3c0,0,0,0.1,0,0.1v11.8
		c-0.2-0.1-0.5-0.1-0.8-0.2c0-7.8,0-28.2,0-28.2c0-0.3,0-0.4,0.1-0.5l0.2-0.5c0.1-0.3,0.1-0.6,0.1-0.9c0-0.7-0.2-1.4-0.7-1.9
		c-0.6-0.8-1.6-1.1-2.7-1c-0.1,0-0.3,0.1-0.4,0.1c-1.3,0.4-2.8,0.8-4.2,1.1c1-1,2-2,3.2-3c0,0,0.1-0.1,0.1-0.1l1-0.8c0,0,0,0,0.1,0
		c0.1,0,0.2,0.1,0.3,0.1c3.8,0.7,7,2.8,10.2,4.9c0,0,0.1,0.1,0.1,0.1c2.6,1.8,4.5,0.2,5-0.4c2.8-2.7,5.6-4.3,9.7-5.5
		c1.7-0.4,2.7-1.8,2.7-3.6l0-3.2c0-1-0.5-1.9-1.3-2.4c-0.1-0.1-0.2-0.1-0.2-0.1c1.2-0.6,2.1-1.7,2.1-3l0-7.7c0-0.5-0.2-2.3-2.3-3
		c-3.5-1.2-7.1-3.4-10.5-6.4c0,0,0.1,0.1,0.1,0.1c-0.8-0.8-2.3-1.4-4-0.3c0,0-3.8,2.4-3.8,2.4c-2.5,1.7-5,3.2-7.8,4.4
		c0.4-0.5,0.6-1.1,0.6-1.8v-2.6l-0.9-2.2c0,0-2.2-0.8-2.2-0.8c-0.4,0-0.9,0-1.6,0c0-0.8,0.2-1.5,0.5-2.8c0,0,0,0.1,0,0.1
		c0.5-1.6-0.3-2.6-0.6-3c-0.7-0.8-1.8-1-2.9-0.7c-1.3,0.4-5.4,1.3-8.9,2c0.3-0.4,0.4-1,0.4-1.5c0,0,0,0,0-0.1c0-1.1-0.7-2-1.6-2.5
		c-0.4-0.2-2.6-1.2-4.9-2.5c-1.9-1.1-3.5-2.2-3.9-2.5c-1-0.7-2.3-0.7-3.4,0c0,0-1,0.8-1,0.8l-2.8,2.1c-1.9,1.3-4,2.5-4.4,2.7
		c-1,0.5-1.5,1.6-1.5,2.7c0.1,1.1,0.8,2.1,1.8,2.4c1.4,0.5,3.6,1.4,4.9,2.2l1.5,0.9c-0.4,0.2-0.7,0.4-1,0.7c0,0-0.1,0.1-0.1,0.1
		c-1.2,1.5-2.4,3.1-3.7,5.1c-3.3-2-5.6-4.2-6.8-5.5c-1.1-1.1-1.8-1.8-3.1-1.8h0c-0.7,0-1.4,0-2.4,1.1v-8.3c0-0.7-0.3-1.5-0.9-2
		c-0.7-0.7-1.7-0.9-2.6-0.6c-2.2,0.6-9.7,2.6-11.9,2.9c-0.7,0.1-1.4,0.5-1.8,1.2c0,0,0,0,0,0l-0.1,0.1c-0.2,0.3-0.3,0.6-0.3,0.9
		l-0.3,0.7l-1-0.9c-2.7-0.9-5-2-6.9-3.2l-0.2-0.1c-1.1-0.7-2.6-0.5-3.5,0.5c-1.1,1.2-2.4,2.8-3.3,4.2c-0.3-0.3-1.5-1.4-1.5-1.4
		c-2.7-0.9-5-2-6.9-3.2l-0.1-0.1c-1.1-0.7-2.6-0.5-3.5,0.5c-1,1.1-2.2,2.5-3.3,3.8v-0.5c0-0.6-0.1-1.5-0.8-2.3l-2.1-0.9
		c-0.8,0-1.9-0.2-3-0.4c-3-0.5-6.7-1.1-10.1,0.7c-2.5,1.3-4.2,3.3-4.7,5.5c-0.4,1.6-0.1,3.3,0.9,4.5c1.6,2.1,3.5,2.6,4.8,2.3
		c0.1,0,0.1-0.1,0.2-0.1c0,4.8,0,17.6,0,20.2c-6.8,3.4-7.6,8.8-7.6,10.8c0,0.2,0,0.4,0,0.5c0.1,1,0.8,2,1.7,2.4
		c0.4,0.2,0.8,0.2,1.2,0.2c-3.7,2-9.2,7.5-10.6,12.5c-0.8,2.3-1.3,4.7-1.3,7.1c0,5.2,1.9,10.4,5.6,14.4c6.9,7.3,16.7,10.2,26.3,7.8
		c2.9-0.7,5.6-2.1,7.8-3.9c3.1,3.3,7.6,5,9.7,5.2c2.6,0.2,7.8-1.8,9.9-2.6c0.8,0.4,1.9,1,1.9,1l2.4,1.2c0,0-0.1-0.1-0.2-0.1
		c0.8,0.5,1.7,0.6,2.6,0.3c0.9-0.2,1.7-0.8,2.1-1.6c-0.1,0.1,0,0.1-0.1,0.2l1-1.3c0.8,0.2,1.6,0,1.9-0.1l0.3-0.1c0,0,0.1,0,0.1,0
		c0.7-0.1,2.7-0.6,5.1,0c2.7,0.7,4.3,2.2,4.3,2.2c0.3,0.3,2.1,1.8,4.4,0c3.9-2.6,6-3.2,7.9-3.8c1-0.3,2.1-0.4,3-0.5
		c0.7-0.1,1.4-0.2,2-0.4c0.2,0.2,0.3,0.3,0.5,0.4c0,0,1.1,0.5,1.1,0.5c1.5,0.7,5.4,2.5,7.3,4c1.3,1,2.9,0.9,4.1-0.1
		c0.1-0.1,0.1-0.1,0.2-0.2c1.5-1.5,2.7-2.8,4.2-4.1c0.3,0.3,0.7,0.6,1.2,0.8c0,0,0.3,0.1,0.3,0.1c1.1,0.5,2.8,1.2,5.5,3.3
		c0,0,0.1,0.1,0.1,0.1c2.3,1.6,4,0.2,4.5-0.2c0,0,3.4-3.4,5.4-5.3c0.3,0.2,0.6,0.3,0.8,0.4c0.1,0,0.2,0.1,0.3,0.1
		c3.8,0.7,7,2.8,10.2,4.9c0,0,0.1,0.1,0.1,0.1c2.6,1.8,4.5,0.2,5-0.4c2.8-2.7,5.6-4.3,9.7-5.5c1.7-0.4,2.7-1.8,2.7-3.6l0-3.2
		c0-1-0.5-1.9-1.3-2.4c-0.1-0.1-0.2-0.1-0.2-0.1C181.3,128.2,182.1,127.1,182.1,125.8">
  </path>
  <path class="st0" d="M21.3,114.6c0,0,0-0.1,0-0.1c0,0,0-0.1,0-0.1C21.4,114.4,21.4,114.5,21.3,114.6">
  </path>
  <path class="st1" d="M80.1,91.6l-0.7-1.8l0-27.1l0.6-2.1c0,0,0-0.1-0.1-0.1c-4.6-1.6-7-3.2-7.6-3.5c0,0-0.1,0-0.1,0
		c-1.9,2.1-4.3,5.6-4.7,6.2c0,0.1-0.1,0.1,0,0.1c0.3,0.2,0.8,0.6,1.3,0.7C70,64.5,70,65,70,65v24.1c0,0.5,0,1.1-0.3,1.3
		c-0.5,0.3-1-0.1-1.8-0.8c-2.2-1.8-3.8-3.2-3.8-3.2V62.7l0.5-2.1c0,0,0-0.1-0.1-0.1c-4.6-1.6-7-3.2-7.5-3.5c0,0-0.1,0-0.1,0
		c-1.9,2.1-4.7,5.6-5.1,6.2c0,0.1-0.1,0.1,0,0.1c0.3,0.2,1.3,0.6,1.7,0.7c1.2,0.5,1.2,0.9,1.2,0.9v23.4c-1,0.8-4.1,2.5-4.7,2.5
		c-0.6,0-1-0.6-1-0.6V59c0-0.9,0.1-1.1-0.3-1.1c-3.3,0-8.2-1.9-11.8,0c-3.5,1.8-3.9,4.6-2.9,6c1.1,1.5,2.1,1.3,2.1,1.3
		c-0.6-3.7,2.9-2.9,3.4-2c0.2,0.3,0.1,1.1,0.1,1.1v25.3c-7.7,2.9-7.7,8.4-7.6,9.4c0,0.1,0.1,0.1,0.1,0.1c6.1-5.2,11.5-1.7,12.4-1.1
		c0.1,0,0.1,0.1,0.2,0c1.1-0.6,9.4-4.8,10.2-5.3c1-0.6,1.8,0,1.8,0s6.1,5,6.7,5.3c0.2,0.1,0.3,0,0.4,0c7-5,15.3-6.1,16.5-6.3
		C80.2,91.8,80.1,91.6,80.1,91.6">
  </path>
  <path class="st1" d="M101.7,95.8l0-19.6c-0.8-1-2.2-1.8-3.2-2.7c-2-0.1-3.8,2.1-3.8,2.1v16c0,0.8,0.7,1.6,1.2,2.3
		c0.1,0.1,0.1,0.2,0,0.3c-1.9,1.2-3.7,2.4-5.3,3.9c-0.3,0.3-0.5,0.1-0.7,0c-1.8-1.5-3.8-2.7-5.8-3.9c-0.2-0.2-0.1-0.3,0-0.4
		c0.6-0.5,1-1,1-1.6V60.7l-0.5-2c2.4-0.4,8.5-1.9,10.6-2.5c-0.2,0.9-0.4,1.7-0.5,2.5v11c0.2,0.2,0.5,0.2,0.7,0.1
		c0,0,6.2-4.1,6.6-4.1c0.5,0,3.3,3.8,8.8,7.1c0.6,0.3-0.2,0.5-0.2,2.2v19.5c0,3.1-2.4,8.3-7.6,10.5c-2.6,1-4.8,1.2-5.3,1.2
		c-0.6,0-0.3-0.2-0.2-0.3C97.6,105.9,101.4,102.9,101.7,95.8">
  </path>
  <path class="st1" d="M145.6,67.1c0-0.2-0.1-0.3-0.3-0.3c0,0-3.7,0-3.7,0c-0.3,0-0.5-0.1-0.6-0.4c-0.3-2.1-0.3-3.3,0.4-5.8
		c0.1-0.2,0.1-0.4-0.2-0.3c-1.9,0.6-9,2-9.9,2.2c-0.1,0-0.1,0.1-0.1,0.1c0.3,1.2,0.4,2.5,0.3,3.8c0,0.4-0.4,0.4-0.4,0.4h-1.9
		c0,0-0.7,0-0.7,0.7v1.9c0,0,0,0.6,0.6,0.6h1.9c0,0,0.5,0,0.5,0.5V90c0,0,0,1.1-0.2,1.7c-0.2,0.6-0.6,1.2-0.8,1.5
		c-0.1,0.1-0.1,0.2,0,0.2c0.3,0.2,6,2.6,8.6,4.6c0.2,0.1,0.4,0.2,0.7,0c1.5-1.5,2.8-2.8,4.4-4.2c0.7-0.7,1.7-1.3,2.2-1.7
		c0.5-0.4-0.8-1.6-1.6-1.9l-1.6,1.1c-1,0.3-1.9-0.5-2.5-1.2V70.3c0-0.2,0.1-0.3,0.3-0.3c0,0,3.7,0,3.8,0c0.3,0,0.5-0.1,0.5-0.4V67.1
		z">
  </path>
  <path class="st1" d="M134.9,110.9c0-0.2-0.1-0.3-0.3-0.3c0,0-3.7,0-3.7,0c-0.3,0-0.5-0.1-0.6-0.4c-0.3-2.1-0.3-3.3,0.4-5.8
		c0.1-0.2,0.1-0.4-0.2-0.3c-1.9,0.6-9,2-9.9,2.2c-0.1,0-0.1,0.1-0.1,0.1c0.3,1.2,0.4,2.5,0.3,3.8c0,0.4-0.4,0.4-0.4,0.4h-1.9
		c0,0-0.7,0-0.7,0.7v1.9c0,0,0,0.6,0.6,0.6h1.9c0,0,0.5,0,0.5,0.5v19.5c0,0,0,1.1-0.2,1.7c-0.2,0.6-0.6,1.2-0.8,1.5
		c-0.1,0.1-0.1,0.2,0,0.2c0.3,0.2,6,2.6,8.6,4.6c0.2,0.1,0.4,0.2,0.7,0c1.5-1.5,2.8-2.8,4.4-4.2c0.7-0.7,1.7-1.3,2.2-1.7
		c0.5-0.4-0.8-1.6-1.6-1.9l-1.6,1.1c-1,0.3-1.9-0.5-2.5-1.2v-20c0-0.2,0.1-0.3,0.3-0.3c0,0,3.7,0,3.8,0c0.3,0,0.5-0.1,0.5-0.4V110.9
		z">
  </path>
  <path class="st2" d="M129.3,58.2c0.1,0,0.1-0.1,0-0.1c-0.5-0.2-2.8-1.3-5.1-2.6c-2.1-1.2-3.7-2.4-4.1-2.7c-0.1,0-0.1,0-0.2,0
		c-0.5,0.3-2.4,1.8-3.9,2.9c-2,1.4-4.2,2.6-4.8,2.9c-0.1,0-0.1,0.1,0,0.1c0.6,0.2,3.5,1.3,5.5,2.5c2.6,1.7,3.8,2.3,4.1,2.5
		c0.1,0,0.1,0.1,0.2,0c0.4-0.3,1.7-1.2,3.8-2.8C126.6,59.6,128.8,58.4,129.3,58.2">
  </path>
  <path class="st1" d="M126.1,70.8c0,0,0-0.5-0.5-0.7c-2.4-0.8-4.8-1.9-7.1-3.2c-0.3-0.2-0.5-0.1-0.7,0c-1.4,1.8-2.8,3.7-4.1,5.6
		c-0.2,0.3-0.2,0.6,0.1,0.8c0.5,0.2,2.1,1,2.5,1.3c0.4,0.3,0.3,0.6,0.3,1.7v15.3c0,0,0.1,1.8-1.3,2.7c-0.1,0.1-0.1,0.1,0,0.2
		c1.9,1.2,3.9,2.6,5.5,3.6c0.2,0.1,0.3,0.1,0.6,0c2.2-1.7,3.6-2.5,5.5-3.6c0.1-0.1,0.1-0.1,0-0.2c-0.4-0.5-0.8-1-1-1.7V70.8z">
  </path>
  <path class="st1" d="M138.3,106.1c-0.1-0.6,0.1-1.6-1-3c-0.1-0.1-0.1-0.2,0-0.3c0.4-0.2,1.7-0.3,3.2-0.5c1.9-0.4,5.2-1.1,7.6-1.9
		c0,0,0.3,0,0.2,0.2c0,0.1-0.4,0.7-0.4,1.7c0,1.4,0,31.2,0,31.2c0,0.4,0.2,0.6,0.5,0.7c0.7,0.2,1.6-1.3,2.1-1c0.6,0.4,0.7,0.5,1.4,1
		c0.6,0.5,0.2,0.9,0.2,0.9s-6.6,6.5-6.8,6.7c-0.4,0.4-0.7,0.2-1-0.1c-3.3-2.5-5.3-3.3-6.5-3.8c-1.2-0.5-0.1-0.7,0.3-2
		c0.1-0.4,0.1-1.1,0.1-1.1L138.3,106.1z">
  </path>
  <path class="st1" d="M105.1,110.9c0.4,0.3,4,3.4,11,2.4c0.1,0,0.6-0.2,0.4,0.2c-0.9,2.5-3.4,4.5-6.1,5.2c-3.2,1-7,0.2-9.5-1.5
		c-0.3,0-0.6,0.2-0.6,0.5c0,0.3-0.2,4-0.1,6c0,0,0,0.2,0.4,0.2c0.4,0,15,0.3,15,0.3c0.7,0.1,1.2,0.6,1.3,1.2c0,0-0.2,8.3-0.2,9.6
		c0,1.2,0.5,1.6,0.4,1.8c-0.1,0.2-2.6,0.3-4.6,0.9c-2,0.6-4.4,1.3-8.6,4.1c-0.4,0.2-0.7,0.7-1.1,0.3c-0.4-0.4-2.4-2-5.5-2.9
		c-3.1-0.8-5.7-0.2-6.4,0c-0.7,0.1-1,0.4-1,0.1c0-2,2.6-4.6,5.9-5.7c3.3-1.1,7.7-0.5,10.4,1.5c0.4,0.1,0.7-0.1,0.9-0.3
		c0,0,0.5-0.4,0.5-0.7s0-5,0-5c-0.1-0.2-0.2-0.3-0.4-0.4l-14.3-0.3c-1-0.1-1.3-0.7-1.3-1.6c0,0,0-8.8,0-9.8c0-1-0.7-1.6-0.5-1.8
		c0.2-0.3,3.1-0.4,6.5-1.3c3.4-1,6.3-2.7,6.7-2.9C104.5,110.4,104.7,110.6,105.1,110.9">
  </path>
  <path class="st1" d="M148.7,74c4.6-1.9,8-4.6,12.2-7.1c0.2-0.1,0.4-0.2,0.6,0c3.2,2.9,7.1,5.5,11.4,7c0.4,0.1,0.5,0.3,0.5,0.5
		c0,0.3,0,6.4,0,7.7c0,0.3-0.4,0.6-0.7,0.7c-5,1.1-10.3,1.9-15.2,3.2c0,0-0.5,0.2-0.5,0.7c0,0.5,0,1,0.1,1.4c2,1.1,4.1,2.1,6.1,3.3
		l0.5,0c2.5-1.9,5.4-3.1,8.4-3.9c0,0,0.7-0.2,0.7,0.2c0,0.4,0,2.3,0,3.2c0,0.9-0.4,0.9-0.7,1c-4.7,1.3-7.9,3.3-10.9,6.2
		c-0.7,0.7-1.2,0.2-1.6,0c-3.5-2.4-7-4.5-11.2-5.4c-0.2-0.1-0.1-0.3-0.1-0.4V75C148.2,75,148.2,74.3,148.7,74 M157.2,75v6
		c0.1,0.2,0.2,0.3,0.5,0.4l3.4-0.6c1-0.3,3-0.4,3-0.7v-2.6c0-1,0.3,0.3-4.9-3.6C158.4,73.8,157.2,74.6,157.2,75">
  </path>
  <path class="st1" d="M154.7,117.9c4.6-1.9,8-4.6,12.2-7.1c0.2-0.1,0.4-0.2,0.6,0c3.2,2.9,7.1,5.5,11.4,7c0.4,0.1,0.5,0.3,0.5,0.5
		c0,0.3,0,6.4,0,7.7c0,0.3-0.4,0.6-0.7,0.7c-5,1.1-10.3,1.9-15.2,3.2c-0.1,0-0.5,0.2-0.5,0.7c0,0.5,0,1,0.1,1.4
		c2,1.1,4.1,2.1,6.1,3.3l0.5,0c2.5-1.9,5.4-3.1,8.4-3.9c0,0,0.7-0.2,0.7,0.2c0,0.4,0,2.3,0,3.2c0,0.9-0.4,0.9-0.7,1
		c-4.7,1.3-7.9,3.3-10.9,6.2c-0.7,0.7-1.2,0.2-1.6,0c-3.5-2.4-7-4.5-11.2-5.4c-0.2-0.1-0.1-0.3-0.1-0.4v-17.1
		C154.3,118.8,154.2,118.1,154.7,117.9 M163.3,118.9v6c0.1,0.2,0.2,0.3,0.5,0.4l3.4-0.6c1-0.3,3-0.4,3-0.7v-2.6c0-1,0.3,0.3-4.9-3.6
		C164.4,117.7,163.3,118.5,163.3,118.9">
  </path>
  <path class="st1" d="M65.7,106c-3.4,3.2-5.5,6.9-7.4,10.6c-0.6,0.2-1.1-0.5-1.6-0.9c-2.4-2.8-3-6.4-2.4-9.9c0,0-0.5-0.5-2.2-0.7
		c-1.3-0.2-1.7-0.1-2.1-0.2c0,0-3.1-0.1-6.3,0.9c-2.9,0.9-4.5,2.4-4.5,2.4c-4.9,4.6-6.1,11.6-3.7,17.5c0,0,1,2,1.8,3.1
		c0.8,1,2.2,2.4,2.2,2.4c1.4,1.3,9.9,7.8,20.9,4.1l0,0.2c0,0-0.4,0.4-0.5,0.6c-2.2,2.5-5.3,4.3-8.6,5.1c-9,2.3-17.8-0.8-23.6-7
		c-4.7-5.1-6.1-12.5-3.7-18.8c1.1-4.3,6.7-9.7,9.8-11.1c2.6-1.3,5.2-2.7,13.9-3.2C54.4,100.6,66.4,104.2,65.7,106">
  </path>
  <path class="st1" d="M73.7,110.9c2.1,0.8,7.3,2.3,12.9,3.4c0.4,0.1,0.4,0.4,0.4,0.4s0,18.7,0,19c0,0.3,2.7,1.8,2.9,1.9
		c0.3,0.2,0.1,0.5,0.1,0.5c-1.2,1.9-2.8,3.6-4,5.6c-0.2,0.3-0.7,0.4-1,0.3c-1.7-0.8-3.4-1.8-5.1-2.6l-0.6,0c-3,1.3-7.8,2.9-9.5,2.8
		c-1.7-0.2-7-2.2-9.3-6.1c-0.9-1.5-0.7-3.2-0.7-3.2c0-4.1,2.9-7.4,7.1-9c0,0,1.7-0.6,4-1.2c2.3-0.5,3.8-0.5,4.8-0.4
		c1.4,0.1,2.2,0.1,2.2-0.4c0-0.5,0.1-2.3,0.1-2.6c0-0.3,0-0.3-0.3-0.4c-0.4-0.1-3.4-1-4.3-1.2c-0.9-0.2-1.7-0.5-2.2-0.2
		c-0.5,0.3-2.4,1.6-3.2,2.1c-0.8,0.5-2.5,1.2-4,1.3c-1.6,0.2-3.6-0.3-4-0.6c0,0-0.5-0.3,0-0.5C60.2,119.6,63.8,118.7,73.7,110.9
		 M76.5,125.6c-2.4-0.1-4.8,0.7-6,2.7c-1.1,1.7-1.1,4-0.2,5.7c0.6,1,1.7,1.8,3,2c1.3,0.2,2.9,0.2,3.9-0.6l0.3-9.4
		C77.4,125.6,76.8,125.6,76.5,125.6">
  </path>
  <path class="st1" d="M183.3,128.8c1.3,0,2.4,1,2.4,2.3c0,1.3-1.1,2.3-2.4,2.3c-1.3,0-2.4-1-2.4-2.3
		C180.9,129.8,182,128.8,183.3,128.8 M183.3,133.1c1.1,0,2-0.9,2-2c0-1.1-0.9-2-2-2c-1.1,0-2,0.9-2,2
		C181.4,132.3,182.2,133.1,183.3,133.1 M182.4,129.8h1.1c0.7,0,1,0.3,1,0.8c0,0.5-0.3,0.7-0.7,0.7l0.8,1.2h-0.5l-0.8-1.2h-0.5v1.2
		h-0.4V129.8z M182.8,131h0.5c0.4,0,0.7,0,0.7-0.4c0-0.4-0.3-0.4-0.6-0.4h-0.6V131z">
  </path>
 </g>
</svg>