<svg version="1.1" id="Layer_1" xmlns="http://www.w3.org/2000/svg" xmlns:xlink="http://www.w3.org/1999/xlink" x="0px" y="0px" viewBox="0 0 150 79" style="enable-background:new 0 0 150 79;" xml:space="preserve">
 <style type="text/css">
  .st0{fill:#CE3439;}
	.st1{fill-rule:evenodd;clip-rule:evenodd;fill:#CE3439;}
 </style>
 <g id="Page-1">
  <g id="Property-1_x3D_Initial" transform="translate(-555.000000, 0.000000)">
   <g id="Group" transform="translate(555.000000, 0.000000)">
    <path id="Shape" class="st0" d="M75.1,0L0.2,18.7c-0.1,0-0.1,0.1-0.1,0.1c0,0.1,0,0.1,0,0.2l10.2,44.4c0,0,0,0.1,0.1,0.1
				c0,0,0.1,0.1,0.1,0.1L75.3,79c0,0,0.1,0,0.1,0l64.3-16c0,0,0.1,0,0.1-0.1c0,0,0.1-0.1,0.1-0.1l10.1-44c0-0.1,0-0.1,0-0.2
				c0-0.1-0.1-0.1-0.2-0.1L75.1,0L75.1,0z M135.6,58.6L75.2,73h-0.1L14.7,58.7c0,0-0.1,0-0.1-0.1c0,0-0.1-0.1-0.1-0.1L6.8,22.2
				c0-0.1,0-0.1,0-0.2s0.1-0.1,0.1-0.1L75.2,5.5h0.1l68.1,16.4c0.1,0,0.1,0.1,0.1,0.1c0,0.1,0,0.1,0,0.2l-7.7,36.3
				c0,0.1,0,0.1-0.1,0.1C135.7,58.6,135.6,58.6,135.6,58.6L135.6,58.6z">
    </path>
    <path id="Shape_1_" class="st0" d="M39.8,38.5c0,0-0.4-8.2-4.5-12.7c-4.6-5.3-16.6-1.3-19.4-1.1c0,0,0,0-0.1,0c0,0,0,0,0,0
				c0,0,0,0,0,0.1c0,0,0,0,0,0.1l2.3,2.7l3.8,22.1v0.8l-1.2,2.9c0,0,0,0,0,0.1c0,0,0,0,0,0.1c0,0,0,0,0,0c0,0,0,0,0.1,0
				c1.5-0.2,11.7-1.5,14.7-3.6C38.3,47.8,40.3,44.5,39.8,38.5z M32.4,41.7c0,0.5-0.1,1-0.3,1.5c-0.2,0.5-0.5,0.9-0.9,1.3
				c-0.4,0.4-0.8,0.6-1.3,0.8s-1,0.2-1.5,0.2c0,0,0,0-0.1,0c0,0,0,0,0-0.1l-2.8-16c0,0,0,0,0,0c0,0,0,0,0,0c0,0,0,0,0,0c0,0,0,0,0,0
				c0.5-0.2,1-0.3,1.6-0.2c0.5,0,1,0.2,1.5,0.4c0.5,0.2,0.9,0.6,1.2,1c0.3,0.4,0.6,0.9,0.8,1.4C30.7,31.8,32.7,37.5,32.4,41.7z">
    </path>
    <path id="Shape_2_" class="st0" d="M57.5,39.5l-4.8,0.4c0,0-0.1,0-0.1,0.1c0,0,0,0.1,0,0.1c0,0.6-0.2,2.4-1.2,3.1
				c-0.2,0.1-0.5,0.2-0.8,0.2c-0.3,0-0.5-0.2-0.7-0.4c-0.6-0.6-1.3-1.9-1.4-5.2c0,0,0-0.1,0-0.1c0,0,0,0,0.1,0l9.1-0.7c0,0,0,0,0,0
				c0,0,0,0,0,0c0,0,0,0,0,0c0,0,0,0,0,0c0-1.1,0-10.8-5.6-12.5c-6-1.8-8.2,2.8-8.2,2.8s-2.9,5.6-0.5,15.3c0.4,1.8,1.3,3.4,2.5,4.8
				c1,1.2,2.5,1.9,4.1,2.1c1.6,0.2,3.1-0.2,4.4-1.1c1.1-0.8,1.9-1.9,2.4-3.1c0.8-1.7,1.2-3.7,1-5.6c0,0,0,0,0,0
				C57.6,39.5,57.6,39.5,57.5,39.5C57.6,39.5,57.5,39.5,57.5,39.5C57.5,39.5,57.5,39.5,57.5,39.5z M49.9,29.3c1.8,0.1,2,3.6,2,4.1
				c0,0,0,0,0,0.1c0,0,0,0-0.1,0L48,33.8c0,0,0,0,0,0c0,0,0,0,0,0c0,0,0,0,0,0c0,0,0,0,0,0C47.8,33.1,47.7,29.2,49.9,29.3z">
    </path>
    <path id="Path_1_" class="st0" d="M58.5,24.5l1.5,2.3c0,0,0,0.1,0,0.1l0.6,18.9c0,0,0,0.1,0,0.1l-1.2,2.3c0,0,0,0.1,0,0.1
				s0,0.1,0,0.1c0,0,0,0,0.1,0.1c0,0,0.1,0,0.1,0l7.2-0.2c0,0,0,0,0.1,0c0,0,0,0,0.1,0c0,0,0,0,0-0.1c0,0,0,0,0-0.1l-0.5-15.3
				c0,0-0.1-1.5,1.3-1.7c1.3,0,1.3,1.6,1.3,1.6l0.6,15.3c0,0,0,0,0,0.1c0,0,0,0,0,0.1c0,0,0,0,0.1,0c0,0,0,0,0.1,0l6.8-0.1
				c0,0,0.1,0,0.1,0c0,0,0,0,0.1-0.1c0,0,0-0.1,0-0.1c0,0,0-0.1,0-0.1l-0.9-1.8c0,0,0,0,0-0.1l-0.6-16.9c0,0-0.1-5.2-4.2-5.4
				c-1,0-1.9,0.4-2.7,0.9c-0.8,0.6-1.4,1.4-1.8,2.3c0,0,0,0.1-0.1,0.1c0,0-0.1,0-0.1,0c0,0-0.1,0-0.1-0.1c0,0,0-0.1,0-0.1v-2.3
				c0,0,0-0.1-0.1-0.1c0,0-0.1,0-0.1,0l-7.3,0.3c0,0,0,0-0.1,0c0,0,0,0-0.1,0c0,0,0,0-0.1,0c0,0,0,0-0.1,0c0,0,0,0,0,0.1
				c0,0,0,0,0,0.1S58.5,24.4,58.5,24.5C58.5,24.5,58.5,24.5,58.5,24.5z">
    </path>
    <path id="Path_2_" class="st0" d="M78.3,24l1.3,2.4c0,0,0,0.1,0,0.1l-0.6,18.9c0,0,0,0,0,0.1l-1.3,2.2c0,0,0,0.1,0,0.1
				c0,0,0,0.1,0,0.1c0,0,0,0,0.1,0.1c0,0,0.1,0,0.1,0l7.2,0.2c0,0,0.1,0,0.1,0s0.1-0.1,0.1-0.1l0.4-15.4c0,0,0-1.5,1.4-1.7
				c1.3,0.1,1.2,1.7,1.2,1.7L87.9,48c0,0,0,0,0,0.1c0,0,0,0,0,0.1c0,0,0,0,0.1,0c0,0,0,0,0.1,0l7.1,0.3c0,0,0.1,0,0.1,0
				c0,0,0,0,0.1-0.1c0,0,0,0,0-0.1c0,0,0-0.1,0-0.1l-1.1-2.1c0,0,0,0,0-0.1l0.4-16.9c0,0,0.2-5.2-3.9-5.7c-1,0-1.9,0.3-2.8,0.8
				c-0.8,0.5-1.5,1.3-1.9,2.2c0,0,0,0.1-0.1,0.1c0,0-0.1,0-0.1,0c0,0-0.1,0-0.1-0.1c0,0,0-0.1,0-0.1l0.1-2.3c0,0,0,0,0-0.1
				c0,0,0,0,0-0.1s0,0-0.1,0c0,0,0,0-0.1,0l-7.3-0.1c0,0,0,0-0.1,0c0,0,0,0,0,0.1C78.2,23.9,78.2,23.9,78.3,24
				C78.2,24,78.3,24,78.3,24z">
    </path>
    <path id="Path_3_" class="st0" d="M95,24.7l9.1,0.8c0,0,0.1,0,0.1,0c0,0,0,0,0.1,0.1s0,0.1,0,0.1c0,0,0,0.1,0,0.1l-1.3,2.2
				c-0.1,0.1-0.1,0.3-0.1,0.4l1.3,12.6c0,0,0,0.1,0.1,0.1c0,0,0.1,0.1,0.1,0.1c0,0,0.1,0,0.1-0.1c0,0,0.1-0.1,0.1-0.1l3.1-12.4
				c0-0.1,0-0.3,0-0.4l-0.9-2.2c0,0,0-0.1,0-0.1c0,0,0-0.1,0-0.1c0,0,0,0,0.1-0.1c0,0,0.1,0,0.1,0l9,0.7c0,0,0.1,0,0.1,0
				s0,0,0.1,0.1c0,0,0,0.1,0,0.1c0,0,0,0.1,0,0.1l-1.4,1.5c-0.2,0.2-0.3,0.4-0.4,0.6c-0.1,0.2-0.1,0.3-0.2,0.5l-9.3,25.8
				c0,0,0,0.1-0.1,0.1c0,0-0.1,0-0.1,0l-7.4-0.7c0,0-0.1,0-0.1,0c0,0,0,0-0.1-0.1c0,0,0-0.1,0-0.1s0-0.1,0-0.1l1.4-1.8
				c0.3-0.4,0.6-0.9,0.7-1.4l1-3.3l-3.9-20.1c0-0.1,0-0.1-0.1-0.2l-1.5-2.5c0,0,0-0.1,0-0.1c0,0,0-0.1,0-0.1
				C94.8,24.8,94.8,24.7,95,24.7C94.9,24.7,94.9,24.7,95,24.7z">
    </path>
    <path id="Path_4_" class="st0" d="M122.5,24.8c-0.2,1.8-1.1,3.5-2.4,4.7l-2.7,2c0,0-0.1,0.1-0.2,0.1c-0.1,0-0.1,0-0.2-0.1
				c0.2-0.6,0.5-1.2,0.7-1.8l0.8-2l0.2-0.6c-0.5-0.1-1-0.3-1.5-0.7c-0.6-0.5-1-1.1-1.2-1.8c-0.2-0.7-0.2-1.5,0.1-2.2
				c0.3-0.7,0.8-1.3,1.5-1.7c0.7-0.4,1.4-0.5,2.2-0.4c0.8,0.2,1.6,0.6,2.1,1.3C122.4,22.7,122.6,23.8,122.5,24.8z">
    </path>
    <path id="Path_5_" class="st0" d="M122.4,24v-0.7C122.5,23.5,122.5,23.7,122.4,24z">
    </path>
    <path id="Path_6_" class="st0" d="M132.6,35.7l1-5.2c0-0.1,0-0.1,0-0.2c0-0.1-0.1-0.1-0.1-0.1c-0.8-0.5-4.1-2.7-7-2.4
				c-1.3,0.1-2.5,0.4-3.7,1.1c-1.2,0.9-2.2,2.2-2.7,3.6c-0.5,1.4-0.5,3-0.1,4.5c0.2,0.7,0.6,1.3,1,1.9c0.5,0.8,1.1,1.6,1.6,2.4
				c0.4,0.6,0.8,1.3,1.2,1.9c0.3,0.4,0.5,0.8,0.7,1.3c0,0.1,0,0.2,0,0.4c0,0.4-0.2,0.8-0.5,1.1c-0.3,0.3-0.7,0.5-1.1,0.5
				c-1.3-0.1-3.2-1.5-4.9-3.5c0,0,0,0-0.1,0c0,0-0.1,0-0.1,0c0,0-0.1,0-0.1,0c0,0,0,0,0,0.1l-1.2,6.1c0,0.1,0,0.1,0,0.2
				c0,0.1,0.1,0.1,0.1,0.2c0.9,0.8,4.9,4.3,9.3,2.7c4.9-1.8,5.3-5.5,5.3-5.5c0.3-1.4,0.3-2.8-0.1-4.1c-0.3-1.3-1-2.6-1.9-3.6
				c-3.1-3.6-2.9-4.2-2.9-4.2c0-0.2,0-0.5,0.1-0.7c0.1-0.2,0.2-0.4,0.4-0.6c0.2-0.2,0.4-0.3,0.6-0.4c0.2-0.1,0.5-0.1,0.7-0.1
				c1.6,0,3.5,2.1,4.1,2.8c0,0,0,0.1,0.1,0.1c0,0,0.1,0,0.1,0c0,0,0.1,0,0.1-0.1S132.6,35.7,132.6,35.7z">
    </path>
    <path id="Shape_3_" class="st1" d="M112.8,55.5c0.4,0,0.8-0.1,1.1-0.3c0.3-0.2,0.6-0.5,0.8-0.9c0.2-0.4,0.2-0.8,0.1-1.2
				c-0.1-0.4-0.3-0.8-0.6-1.1c-0.3-0.3-0.7-0.5-1.1-0.6c-0.4-0.1-0.8,0-1.2,0.1c-0.4,0.2-0.7,0.4-0.9,0.8c-0.2,0.3-0.3,0.7-0.3,1.1
				c0,0.5,0.2,1.1,0.6,1.5C111.7,55.3,112.2,55.5,112.8,55.5z M112.8,51.9c0.3,0,0.6,0.1,0.8,0.3c0.2,0.2,0.4,0.4,0.6,0.7
				c0.1,0.3,0.1,0.6,0.1,0.9c-0.1,0.3-0.2,0.6-0.4,0.8c-0.2,0.2-0.5,0.4-0.8,0.4c-0.3,0.1-0.6,0-0.9-0.1c-0.3-0.1-0.5-0.3-0.7-0.6
				c-0.2-0.3-0.3-0.5-0.3-0.9c0-0.2,0-0.4,0.1-0.6c0.1-0.2,0.2-0.4,0.3-0.5c0.1-0.1,0.3-0.3,0.5-0.3
				C112.4,51.9,112.6,51.8,112.8,51.9L112.8,51.9z M112.4,53.6h0.3l0.5,0.9h0.6l-0.5-0.9c0.4,0,0.6-0.2,0.6-0.6c0-0.1,0-0.2-0.1-0.3
				c0-0.1-0.1-0.2-0.2-0.3c-0.2-0.1-0.4-0.1-0.6-0.1h-1.1v2.3h0.5L112.4,53.6L112.4,53.6z M112.4,53.2v-0.5h0.5c0.2,0,0.5,0,0.5,0.2
				s-0.1,0.3-0.3,0.3H112.4z">
    </path>
   </g>
  </g>
 </g>
</svg>